{
.appVersion = "3309";
.formatVersion = 3;
axes = (
{
name = Weight;
tag = wght;
}
);
classes = (
{
code = "zero.dnom one.dnom two.dnom three.dnom four.dnom five.dnom six.dnom seven.dnom eight.dnom nine.dnom equal.dnom hyphen.dnom minus.dnom parenleft.dnom parenright.dnom plus.dnom";
name = dnom_frac;
},
{
code = "zero one two three four five six seven eight nine equal hyphen minus parenleft parenright plus";
name = dnom_frac_numr_ordn_sinf_subs_sups;
},
{
code = "slash zero one two three four five six seven eight nine";
name = frac;
},
{
code = "A O a o zero.numr one.numr two.numr three.numr four.numr five.numr six.numr seven.numr eight.numr nine.numr equal.numr hyphen.numr minus.numr parenleft.numr parenright.numr plus.numr";
name = frac_ordn;
},
{
code = "ordfeminine ordmasculine ordfeminine ordmasculine zero.dnom one.dnom two.dnom three.dnom four.dnom five.dnom six.dnom seven.dnom eight.dnom nine.dnom equal.dnom hyphen.dnom minus.dnom parenleft.dnom parenright.dnom plus.dnom";
name = frac_ordn2;
},
{
code = "zero.numr one.numr two.numr three.numr four.numr five.numr six.numr seven.numr eight.numr nine.numr equal.numr hyphen.numr minus.numr parenleft.numr parenright.numr plus.numr";
name = frac_numr;
},
{
code = "zero.inferior one.inferior two.inferior three.inferior four.inferior five.inferior six.inferior seven.inferior eight.inferior nine.inferior plus.inferior minus.inferior equal.inferior parenleft.inferior parenright.inferior hyphen.inferior";
name = sinf_subs;
},
{
code = "zero.superior onesuperior twosuperior threesuperior four.superior five.superior six.superior seven.superior eight.superior nine.superior plus.superior minus.superior equal.superior parenleft.superior parenright.superior hyphen.superior";
name = sups;
},
{

glyphs = (
{
color = 6;
glyphname = A;
kernLeft = A1;
kernRight = A;
lastChange = "2024-07-10 12:37:15 +0000";
layers = (
{
anchors = (
{
name = bottom;
pos = (328,-20);
},
{
name = ogonek;
pos = (650,-2);
},
{
name = top;
pos = (328,719);
},
{
name = topgr;
pos = (66,500);
}
);
layerId = "80F95D5A-7464-498F-9BB9-FC89FE1B12C4";
shapes = (
{
closed = 1;
nodes = (
(193,106,l),
(459,106,l),
(415,236,l),
(237,236,l)
);
},
{
closed = 1;
nodes = (
(-3,0,l),
(196,0,l),
(379,700,l),
(224,700,l)
);
},
{
closed = 1;
nodes = (
(459,0,l),
(658,0,l),
(431,700,l),
(276,700,l)
);
}
);
width = 655;
},
{
anchors = (
{
name = bottom;
pos = (328,-20);
},
{
name = ogonek;
pos = (620,-3);
},
{
name = top;
pos = (328,719);
},
{
name = topgr;
pos = (106,500);
}
);
layerId = "C7381861-8087-459F-9A66-D6EC096294DF";
shapes = (
{
closed = 1;
nodes = (
(143,141,l,{
name = dv01;
}),
(509,141,l),
(475,216,l,{
name = dv03;
}),
(177,216,l,{
name = dv02;
})
);
},
{
closed = 1;
nodes = (
(32,0,l),
(128,0,l),
(342,700,l),
(259,700,l)
);
},
{
closed = 1;
nodes = (
(527,0,l),
(623,0,l),
(396,700,l),
(313,700,l)
);
}
);
width = 655;
},
{
anchors = (
{
name = bottom;
pos = (328,-20);
},
{
name = ogonek;
pos = (613,-3);
},
{
name = top;
pos = (328,719);
},
{
name = topgr;
pos = (106,500);
}
);
layerId = "B3C53035-7890-4C98-85EB-10A7AE0A8F58";
shapes = (
{
closed = 1;
nodes = (
(129,154,l,{
name = dv01;
}),
(525,154,l),
(501,204,l,{
name = dv03;
}),
(153,204,l,{
name = dv02;
})
);
},
{
closed = 1;
nodes = (
(42,0,l),
(105,0,l),
(336,700,l),
(277,700,l)
);
},
{
closed = 1;
nodes = (
(550,0,l),
(613,0,l),
(378,700,l),
(319,700,l)
);
}
);
width = 655;
}
);
unicode = 65;
},
{
color = 6;
glyphname = Aogonek;
kernLeft = A1;
kernRight = A;
lastChange = "2024-07-10 12:39:07 +0000";
layers = (
{
anchors = (
{
name = bottom;
pos = (328,-20);
},
{
name = top;
pos = (328,719);
},
{
name = topgr;
pos = (66,500);
}
);
layerId = "80F95D5A-7464-498F-9BB9-FC89FE1B12C4";
shapes = (
{
closed = 1;
nodes = (
(193,106,l),
(459,106,l),
(415,236,l),
(237,236,l)
);
},
{
closed = 1;
nodes = (
(-3,0,l),
(196,0,l),
(379,700,l),
(224,700,l)
);
},
{
closed = 1;
nodes = (
(459,0,l),
(658,0,l),
(431,700,l),
(276,700,l)
);
},
{
closed = 1;
nodes = (
(658,-182,l),
(615.672,-168,o),
(595,-137,o),
(595,-103,cs),
(595,-66,o),
(618.619,-23,o),
(657,1,c),
(597.709,3,l),
(501.236,-14,o),
(453,-52,o),
(453,-104,cs),
(453,-157,o),
(504.25,-195,o),
(583.637,-205,c)
);
}
);
width = 655;
},
{
anchors = (
{
name = bottom;
pos = (328,-20);
},
{
name = top;
pos = (328,719);
},
{
name = topgr;
pos = (106,500);
}
);
layerId = "C7381861-8087-459F-9A66-D6EC096294DF";
shapes = (
{
closed = 1;
nodes = (
(143,141,l,{
name = dv01;
}),
(509,141,l),
(475,216,l,{
name = dv03;
}),
(177,216,l,{
name = dv02;
})
);
},
{
closed = 1;
nodes = (
(32,0,l),
(128,0,l),
(342,700,l),
(259,700,l)
);
},
{
closed = 1;
nodes = (
(527,0,l),
(623,0,l),
(396,700,l),
(313,700,l)
);
},
{
closed = 1;
nodes = (
(624,-183,l),
(580,-171,o),
(557,-143,o),
(557,-103,cs),
(557,-62,o),
(582,-22,o),
(623,0,c),
(602,3,l),
(529,-12,o),
(482,-59,o),
(482,-110,cs),
(482,-157,o),
(522,-196,o),
(582,-206,c)
);
}
);
width = 655;
},
{
anchors = (
{
name = bottom;
pos = (328,-20);
},
{
name = top;
pos = (328,719);
},
{
name = topgr;
pos = (106,500);
}
);
layerId = "B3C53035-7890-4C98-85EB-10A7AE0A8F58";
shapes = (
{
closed = 1;
nodes = (
(123,154,l,{
name = dv01;
}),
(529,154,l),
(495,204,l,{
name = dv03;
}),
(157,204,l,{
name = dv02;
})
);
},
{
closed = 1;
nodes = (
(42,0,l),
(105,0,l),
(332,700,l),
(269,700,l)
);
},
{
closed = 1;
nodes = (
(550,0,l),
(613,0,l),
(386,700,l),
(323,700,l)
);
},
{
closed = 1;
nodes = (
(614,-183,l),
(570,-171,o),
(547,-143,o),
(547,-103,cs),
(547,-62,o),
(572,-22,o),
(613,0,c),
(595,3,l),
(535,-12,o),
(492,-59,o),
(492,-108,cs),
(492,-154,o),
(531,-196,o),
(578,-206,c)
);
}
);
width = 655;
}
);
unicode = 260;
},
{
color = 6;
glyphname = AE;
kernLeft = A1;
kernRight = E;
lastChange = "2024-07-10 12:37:15 +0000";
layers = (
{
anchors = (
{
name = bottom;
pos = (480,-20);
},
{
name = top;
pos = (480,719);
}
);
layerId = "80F95D5A-7464-498F-9BB9-FC89FE1B12C4";
shapes = (
{
closed = 1;
nodes = (
(398,0,l),
(835,0,l),
(835,140,l),
(588,140,l),
(588,297,l),
(795,297,l),
(795,437,l),
(588,437,l),
(588,560,l),
(820,560,l),
(820,700,l),
(398,700,l)
);
},
{
closed = 1;
nodes = (
(256,560,l),
(542,560,l),
(543,700,l),
(300,700,l)
);
},
{
closed = 1;
nodes = (
(193,106,l),
(533,106,l),
(489,246,l),
(237,246,l)
);
},
{
closed = 1;
nodes = (
(-3,0,l),
(196,0,l),
(397,700,l),
(224,700,l)
);
}
);
width = 880;
},
{
anchors = (
{
name = bottom;
pos = (480,-20);
},
{
name = top;
pos = (480,719);
}
);
layerId = "C7381861-8087-459F-9A66-D6EC096294DF";
shapes = (
{
closed = 1;
nodes = (
(414,0,l),
(815,0,l,{
name = ab01;
}),
(815,80,l,{
name = sv01;
}),
(504,80,l),
(504,325,l,{
name = dv01;
}),
(775,325,l),
(775,405,l),
(504,405,l,{
name = dv02;
}),
(504,620,l,{
name = sv02;
}),
(801,620,l),
(801,700,l,{
name = at01;
}),
(414,700,l)
);
},
{
closed = 1;
nodes = (
(270,620,l),
(489,620,l),
(490,700,l),
(304,700,l)
);
},
{
closed = 1;
nodes = (
(138,141,l,{
name = dv01;
}),
(491,141,l),
(457,221,l,{
name = dv03;
}),
(172,221,l,{
name = dv02;
})
);
},
{
closed = 1;
nodes = (
(32,0,l),
(128,0,l),
(339,700,l),
(259,700,l)
);
}
);
width = 880;
},
{
anchors = (
{
name = bottom;
pos = (480,-20);
},
{
name = top;
pos = (480,719);
}
);
layerId = "B3C53035-7890-4C98-85EB-10A7AE0A8F58";
shapes = (
{
closed = 1;
nodes = (
(424,0,l),
(805,0,l,{
name = ab01;
}),
(805,54,l,{
name = sv01;
}),
(484,54,l),
(484,338,l,{
name = dv01;
}),
(765,338,l),
(765,392,l),
(484,392,l,{
name = dv02;
}),
(484,646,l,{
name = sv02;
}),
(793,646,l),
(793,700,l,{
name = at01;
}),
(424,700,l)
);
},
{
closed = 1;
nodes = (
(270,646,l),
(469,646,l),
(470,700,l),
(304,700,l)
);
},
{
closed = 1;
nodes = (
(138,157,l,{
name = dv01;
}),
(471,157,l),
(437,211,l,{
name = dv03;
}),
(162,211,l,{
name = dv02;
})
);
},
{
closed = 1;
nodes = (
(42,0,l),
(105,0,l),
(332,700,l),
(269,700,l)
);
}
);
width = 880;
}
);
unicode = 198;
},
{
color = 6;
glyphname = B;
kernLeft = B;
kernRight = B1;
lastChange = "2024-07-10 12:37:15 +0000";
layers = (
{
anchors = (
{
name = bottom;
pos = (328,-20);
},
{
name = top;
pos = (308,719);
}
);
layerId = "80F95D5A-7464-498F-9BB9-FC89FE1B12C4";
shapes = (
{
closed = 1;
nodes = (
(68,0,l),
(356,0,ls),
(518,0,o),
(604,97,o),
(604,205,cs),
(604,328,o),
(494,372,o),
(365,372,c),
(493,372,o),
(558,426,o),
(558,518,cs),
(558,614,o),
(487,700,o),
(316,700,cs),
(68,700,l)
);
},
{
closed = 1;
nodes = (
(258,140,l),
(258,560,l),
(284,560,ls),
(343,560,o),
(369,538,o),
(369,501,cs),
(369,461,o),
(338,436,o),
(292,436,cs),
(100,436,l),
(100,300,l),
(286,300,ls),
(373,300,o),
(416,287,o),
(416,223,cs),
(416,163,o),
(377,140,o),
(301,140,cs)
);
}
);
width = 634;
},
{
anchors = (
{
name = bottom;
pos = (328,-20);
},
{
name = top;
pos = (288,719);
}
);
layerId = "C7381861-8087-459F-9A66-D6EC096294DF";
shapes = (
{
closed = 1;
nodes = (
(88,0,l,{
name = ab01;
}),
(356,0,ls),
(489,0,o),
(584,73,o),
(584,196,cs),
(584,312,o),
(499,372,o),
(345,372,c,{
name = dv02;
}),
(472,372,o),
(538,425,o),
(538,526,cs),
(538,636,o),
(461,700,o),
(332,700,cs,{
name = at01;
}),
(88,700,l)
);
},
{
closed = 1;
nodes = (
(178,80,l),
(178,620,l,{
name = sv02;
}),
(317,620,ls),
(407,620,o),
(447,589,o),
(447,520,cs,{
name = sv04;
}),
(447,451,o),
(406,406,o),
(317,406,cs,{
name = sv03;
}),
(100,406,l),
(100,330,l),
(328,330,ls,{
name = dv01;
}),
(448,330,o),
(493,287,o),
(493,207,cs),
(493,127,o),
(447,80,o),
(327,80,cs,{
name = sv01;
})
);
}
);
width = 634;
},
{
anchors = (
{
name = bottom;
pos = (328,-20);
},
{
name = top;
pos = (285,719);
}
);
layerId = "B3C53035-7890-4C98-85EB-10A7AE0A8F58";
shapes = (
{
closed = 1;
nodes = (
(98,0,l,{
name = ab01;
}),
(356,0,ls),
(483,0,o),
(574,83,o),
(574,199,cs),
(574,311,o),
(489,372,o),
(335,372,c,{
name = dv02;
}),
(462,372,o),
(528,425,o),
(528,528,cs),
(528,636,o),
(455,700,o),
(332,700,cs,{
name = at01;
}),
(98,700,l)
);
},
{
closed = 1;
nodes = (
(158,54,l),
(158,646,l,{
name = sv02;
}),
(326,646,ls),
(417,646,o),
(467,613,o),
(467,531,cs,{
name = sv04;
}),
(467,447,o),
(415,396,o),
(324,396,cs,{
name = sv03;
}),
(110,396,l),
(110,346,l),
(334,346,ls,{
name = dv01;
}),
(452,346,o),
(513,296,o),
(513,199,cs),
(513,102,o),
(453,54,o),
(334,54,cs,{
name = sv01;
})
);
}
);
width = 634;
}
);
unicode = 66;
},
{
color = 6;
glyphname = C;
kernLeft = C1;
kernRight = C;
lastChange = "2024-07-10 12:39:12 +0000";
layers = (
{
anchors = (
{
name = bottom;
pos = (416,-20);
},
{
name = top;
pos = (386,719);
}
);
layerId = "80F95D5A-7464-498F-9BB9-FC89FE1B12C4";
shapes = (
{
closed = 1;
nodes = (
(561,208,l),
(503.671,147.864,o),
(453.507,124,o),
(393.107,124,cs),
(281.519,124,o),
(216,206.719,o),
(216,357.386,cs),
(216,499.19,o),
(274.353,576,o),
(387.988,576,cs),
(453.507,576,o),
(505.718,550.907,o),
(561,493,c),
(667,599,l),
(612.148,665,o),
(514.634,720,o),
(381.568,720,cs),
(163.177,720,o),
(23,572,o),
(23,361,cs),
(23,140,o),
(175.366,-20,o),
(394.773,-20,cs),
(511.587,-20,o),
(596.912,25,o),
(667,102,c)
);
}
);
width = 684;
},
{
anchors = (
{
name = bottom;
pos = (401,-20);
},
{
name = top;
pos = (381,719);
}
);
layerId = "C7381861-8087-459F-9A66-D6EC096294DF";
shapes = (
{
closed = 1;
nodes = (
(579,160,l),
(527.477,93,o),
(460.101,60,o),
(385.789,60,cs,{
name = dv02;
}),
(243.11,60,o),
(147,182,o),
(147,366,cs),
(147,542,o),
(234.193,640,o),
(373.899,640,cs,{
name = dv03;
}),
(453.165,640,o),
(517.569,609,o),
(579,541,c),
(637,599,l),
(572,681,o),
(487,720,o),
(378,720,cs,{
name = dv04;
}),
(172,720,o),
(53,581,o),
(53,365,cs),
(53,135,o),
(187,-20,o),
(385,-20,cs,{
name = dv01;
}),
(483,-20,o),
(563,18,o),
(637,102,c)
);
}
);
width = 684;
},
{
anchors = (
{
name = bottom;
pos = (393,-19);
},
{
name = top;
pos = (373,719);
}
);
layerId = "B3C53035-7890-4C98-85EB-10A7AE0A8F58";
shapes = (
{
closed = 1;
nodes = (
(584,144,l),
(531,73,o),
(458,35,o),
(376,35,cs),
(225,35,o),
(124,165,o),
(124,364,cs),
(124,555,o),
(220,665,o),
(369,665,cs),
(456,665,o),
(530,628,o),
(584,556,c),
(627,599,l),
(559,680,o),
(472,720,o),
(371,720,cs),
(186,720,o),
(63,585,o),
(63,362,cs),
(63,138,o),
(188,-20,o),
(379,-20,cs),
(477,-20,o),
(561,22,o),
(627,101,c)
);
}
);
width = 684;
}
);
unicode = 67;
},
{
color = 6;
glyphname = Ccedilla;
kernLeft = C1;
kernRight = C;
lastChange = "2024-07-10 12:37:15 +0000";
layers = (
{
anchors = (
{
name = bottom;
pos = (396,-218);
},
{
name = top;
pos = (386,719);
}
);
layerId = "80F95D5A-7464-498F-9BB9-FC89FE1B12C4";
shapes = (
{
closed = 1;
nodes = (
(561,208,l),
(503.671,147.864,o),
(453.507,124,o),
(393.107,124,cs),
(281.519,124,o),
(216,206.719,o),
(216,357.386,cs),
(216,499.19,o),
(274.353,576,o),
(387.988,576,cs),
(453.507,576,o),
(505.718,550.907,o),
(561,493,c),
(667,599,l),
(612.148,665,o),
(514.634,720,o),
(381.568,720,cs),
(163.177,720,o),
(23,572,o),
(23,361,cs),
(23,140,o),
(175.366,-20,o),
(394.773,-20,cs),
(511.587,-20,o),
(596.912,25,o),
(667,102,c)
);
},
{
closed = 1;
nodes = (
(264,-205,l),
(286,-211,o),
(319,-218,o),
(372,-218,cs),
(475,-218,o),
(524,-191,o),
(524,-134,cs),
(524,-87,o),
(491,-64,o),
(423,-64,c),
(470.423,20.41,l),
(368.423,20.41,l),
(300,-109,l),
(316,-107,o),
(341,-105,o),
(358,-105,cs),
(388,-105,o),
(404,-111,o),
(404,-133,cs),
(404,-151,o),
(393,-164,o),
(356,-164,cs),
(335,-164,o),
(306,-160,o),
(290,-154,c)
);
}
);
width = 684;
},
{
anchors = (
{
name = bottom;
pos = (381,-218);
},
{
name = top;
pos = (381,719);
}
);
layerId = "C7381861-8087-459F-9A66-D6EC096294DF";
shapes = (
{
closed = 1;
nodes = (
(579,160,l),
(527.477,93,o),
(460.101,60,o),
(385.789,60,cs,{
name = dv02;
}),
(243.11,60,o),
(147,182,o),
(147,366,cs),
(147,542,o),
(234.193,640,o),
(373.899,640,cs,{
name = dv03;
}),
(453.165,640,o),
(517.569,609,o),
(579,541,c),
(637,599,l),
(572,681,o),
(487,720,o),
(378,720,cs,{
name = dv04;
}),
(172,720,o),
(53,581,o),
(53,365,cs),
(53,135,o),
(187,-20,o),
(385,-20,cs,{
name = dv01;
}),
(483,-20,o),
(563,18,o),
(637,102,c)
);
},
{
closed = 1;
nodes = (
(285,-205,l),
(306,-211,o),
(330,-218,o),
(369,-218,cs),
(449,-218,o),
(495,-189,o),
(495,-137,cs),
(495,-90,o),
(458,-64,o),
(399,-64,c),
(443.74,14.895,l),
(386.74,14.895,l),
(332,-86,l),
(347,-84,o),
(358,-82,o),
(371,-82,cs),
(406,-82,o),
(427,-97,o),
(427,-132,cs),
(427,-166,o),
(408,-182,o),
(366,-182,cs),
(343,-182,o),
(321,-177,o),
(304,-171,c)
);
}
);
width = 684;
},
{
anchors = (
{
name = bottom;
pos = (373,-217);
},
{
name = top;
pos = (373,719);
}
);
layerId = "B3C53035-7890-4C98-85EB-10A7AE0A8F58";
shapes = (
{
closed = 1;
nodes = (
(584,144,l),
(531,73,o),
(458,35,o),
(376,35,cs),
(225,35,o),
(124,165,o),
(124,364,cs),
(124,555,o),
(220,665,o),
(369,665,cs),
(456,665,o),
(530,628,o),
(584,556,c),
(627,599,l),
(559,680,o),
(472,720,o),
(371,720,cs),
(186,720,o),
(63,585,o),
(63,362,cs),
(63,138,o),
(188,-20,o),
(379,-20,cs),
(477,-20,o),
(561,22,o),
(627,101,c)
);
},
{
closed = 1;
nodes = (
(282,-204,l),
(302,-210,o),
(325,-217,o),
(363,-217,cs),
(441,-217,o),
(482,-187,o),
(482,-139,cs),
(482,-91,o),
(442,-63,o),
(384,-63,c),
(424.194,13.137,l),
(379.194,13.137,l),
(329,-81,l),
(341,-78,o),
(351,-77,o),
(361,-77,cs),
(406,-77,o),
(430,-97,o),
(430,-131,cs),
(430,-165,o),
(405,-187,o),
(360,-187,cs),
(339,-187,o),
(315,-182,o),
(297,-176,c)
);
}
);
width = 684;
}
);
unicode = 199;
},
{
color = 6;
glyphname = D;
kernLeft = B;
kernRight = C;
lastChange = "2024-07-10 12:38:28 +0000";
layers = (
{
anchors = (
{
name = bottom;
pos = (318,-20);
},
{
name = top;
pos = (318,719);
}
);
layerId = "80F95D5A-7464-498F-9BB9-FC89FE1B12C4";
shapes = (
{
closed = 1;
nodes = (
(342,0,ls),
(555,0,o),
(699,141,o),
(699,350,cs),
(699,558,o),
(554,700,o),
(342,700,cs),
(58,700,l),
(58,0,l)
);
},
{
closed = 1;
nodes = (
(248,560,l),
(321.431,560,ls),
(440.508,560,o),
(506,489,o),
(506,359,cs),
(506,224,o),
(435.546,140,o),
(321.431,140,cs),
(248,140,l)
);
}
);
width = 722;
},
{
anchors = (
{
name = bottom;
pos = (318,-20);
},
{
name = top;
pos = (318,719);
}
);
layerId = "C7381861-8087-459F-9A66-D6EC096294DF";
shapes = (
{
closed = 1;
nodes = (
(333,0,ls),
(533,0,o),
(669,142,o),
(669,350,cs),
(669,557,o),
(532,700,o),
(333,700,cs,{
name = at01;
}),
(84,700,l),
(84,0,l,{
name = ab01;
})
);
},
{
closed = 1;
nodes = (
(174,620,l,{
name = sv02;
}),
(324.439,620,ls),
(480.916,620,o),
(575,518,o),
(575,349,cs),
(575,181,o),
(480.916,80,o),
(324.439,80,cs),
(174,80,l,{
name = sv01;
})
);
}
);
width = 722;
},
{
anchors = (
{
name = bottom;
pos = (318,-20);
},
{
name = top;
pos = (318,719);
}
);
layerId = "B3C53035-7890-4C98-85EB-10A7AE0A8F58";
shapes = (
{
closed = 1;
nodes = (
(335,0,ls),
(527,0,o),
(659,142,o),
(659,350,cs),
(659,557,o),
(526,700,o),
(335,700,cs,{
name = at01;
}),
(94,700,l),
(94,0,l,{
name = ab01;
})
);
},
{
closed = 1;
nodes = (
(154,646,l,{
name = sv02;
}),
(322,646,ls),
(493,646,o),
(598,534,o),
(598,346,cs),
(598,165,o),
(493,54,o),
(322,54,cs),
(154,54,l,{
name = sv01;
})
);
}
);
width = 722;
}
);
unicode = 68;
},
{
color = 6;
glyphname = Eth;
kernLeft = Eth;
kernRight = C;
lastChange = "2024-07-10 12:38:28 +0000";
layers = (
{
layerId = "80F95D5A-7464-498F-9BB9-FC89FE1B12C4";
shapes = (
{
closed = 1;
nodes = (
(352,0,ls),
(565,0,o),
(709,141,o),
(709,350,cs),
(709,558,o),
(564,700,o),
(352,700,cs),
(68,700,l),
(68,0,l)
);
},
{
closed = 1;
nodes = (
(398.082,326,l),
(398.082,430,l),
(-0.28,430,l),
(-0.28,326,l)
);
},
{
closed = 1;
nodes = (
(258,560,l),
(331.431,560,ls),
(450.508,560,o),
(516,489,o),
(516,359,cs),
(516,224,o),
(445.546,140,o),
(331.431,140,cs),
(258,140,l)
);
}
);
width = 732;
},
{
layerId = "C7381861-8087-459F-9A66-D6EC096294DF";
shapes = (
{
closed = 1;
nodes = (
(343,0,ls),
(543,0,o),
(679,142,o),
(679,350,cs),
(679,557,o),
(542,700,o),
(343,700,cs,{
name = at01;
}),
(84,700,l),
(84,0,l,{
name = ab01;
})
);
},
{
closed = 1;
nodes = (
(398.082,336,l),
(398.082,400,l),
(-0.28,400,l),
(-0.28,336,l)
);
},
{
closed = 1;
nodes = (
(174,620,l,{
name = sv02;
}),
(334.439,620,ls),
(490.916,620,o),
(585,518,o),
(585,349,cs),
(585,181,o),
(490.916,80,o),
(334.439,80,cs),
(174,80,l,{
name = sv01;
})
);
}
);
width = 732;
},
{
layerId = "B3C53035-7890-4C98-85EB-10A7AE0A8F58";
shapes = (
{
closed = 1;
nodes = (
(345,0,ls),
(537,0,o),
(669,142,o),
(669,350,cs),
(669,557,o),
(536,700,o),
(345,700,cs,{
name = at01;
}),
(94,700,l),
(94,0,l,{
name = ab01;
})
);
},
{
closed = 1;
nodes = (
(398.082,337,l),
(398.082,389,l),
(-0.28,389,l),
(-0.28,337,l)
);
},
{
closed = 1;
nodes = (
(154,646,l,{
name = sv02;
}),
(332,646,ls),
(503,646,o),
(608,534,o),
(608,346,cs),
(608,165,o),
(503,54,o),
(332,54,cs),
(154,54,l,{
name = sv01;
})
);
}
);
width = 732;
}
);
unicode = 208;
},
{
color = 6;
glyphname = E;
kernLeft = B;
kernRight = E;
lastChange = "2024-07-10 12:37:15 +0000";
layers = (
{
anchors = (
{
name = bottom;
pos = (276,-20);
},
{
name = ogonek;
pos = (488,-2);
},
{
name = top;
pos = (265,719);
},
{
name = topgr;
pos = (-60,500);
}
);
layerId = "80F95D5A-7464-498F-9BB9-FC89FE1B12C4";
shapes = (
{
closed = 1;
nodes = (
(58,0,l),
(495,0,l),
(495,140,l),
(248,140,l),
(248,297,l),
(455,297,l),
(455,437,l),
(248,437,l),
(248,560,l),
(480,560,l),
(480,700,l),
(58,700,l)
);
}
);
width = 530;
},
{
anchors = (
{
name = bottom;
pos = (260,-20);
},
{
name = ogonek;
pos = (472,-2);
},
{
name = top;
pos = (265,719);
},
{
name = topgr;
pos = (-28,500);
}
);
layerId = "C7381861-8087-459F-9A66-D6EC096294DF";
shapes = (
{
closed = 1;
nodes = (
(74,0,l),
(475,0,l,{
name = ab01;
}),
(475,80,l,{
name = sv01;
}),
(164,80,l),
(164,325,l,{
name = dv01;
}),
(435,325,l),
(435,405,l),
(164,405,l,{
name = dv02;
}),
(164,620,l,{
name = sv02;
}),
(461,620,l),
(461,700,l,{
name = at01;
}),
(74,700,l)
);
}
);
width = 530;
},
{
anchors = (
{
name = bottom;
pos = (265,-20);
},
{
name = ogonek;
pos = (465,-3);
},
{
name = top;
pos = (265,719);
},
{
name = topgr;
pos = (-22,500);
}
);
layerId = "B3C53035-7890-4C98-85EB-10A7AE0A8F58";
shapes = (
{
closed = 1;
nodes = (
(84,0,l),
(465,0,l,{
name = ab01;
}),
(465,54,l,{
name = sv01;
}),
(144,54,l),
(144,338,l,{
name = dv01;
}),
(425,338,l),
(425,392,l),
(144,392,l,{
name = dv02;
}),
(144,646,l,{
name = sv02;
}),
(453,646,l),
(453,700,l,{
name = at01;
}),
(84,700,l)
);
}
);
width = 530;
}
);
unicode = 69;
},
{
color = 6;
glyphname = Eogonek;
kernLeft = B;
kernRight = E;
lastChange = "2024-07-10 12:37:15 +0000";
layers = (
{
anchors = (
{
name = bottom;
pos = (286,-20);
},
{
name = top;
pos = (275,719);
},
{
name = topgr;
pos = (-50,500);
}
);
layerId = "80F95D5A-7464-498F-9BB9-FC89FE1B12C4";
shapes = (
{
closed = 1;
nodes = (
(68,0,l),
(505,0,l),
(505,140,l),
(258,140,l),
(258,297,l),
(465,297,l),
(465,437,l),
(258,437,l),
(258,560,l),
(490,560,l),
(490,700,l),
(68,700,l)
);
},
{
closed = 1;
nodes = (
(506,-182,l),
(463.672,-168,o),
(443,-137,o),
(443,-103,cs),
(443,-66,o),
(466.619,-23,o),
(505,1,c),
(445.709,4,l),
(349.236,-13,o),
(301,-52,o),
(301,-104,cs),
(301,-157,o),
(352.25,-195,o),
(431.637,-205,c)
);
}
);
width = 550;
},
{
anchors = (
{
name = bottom;
pos = (270,-20);
},
{
name = top;
pos = (275,719);
},
{
name = topgr;
pos = (-18,500);
}
);
layerId = "C7381861-8087-459F-9A66-D6EC096294DF";
shapes = (
{
closed = 1;
nodes = (
(84,0,l),
(485,0,l,{
name = ab01;
}),
(485,80,l,{
name = sv01;
}),
(174,80,l),
(174,325,l,{
name = dv01;
}),
(445,325,l),
(445,405,l),
(174,405,l,{
name = dv02;
}),
(174,620,l,{
name = sv02;
}),
(471,620,l),
(471,700,l,{
name = at01;
}),
(84,700,l)
);
},
{
closed = 1;
nodes = (
(486,-182,l),
(442,-170,o),
(419,-142,o),
(419,-102,cs),
(419,-61,o),
(444,-21,o),
(485,1,c),
(464,4,l),
(391,-11,o),
(344,-58,o),
(344,-109,cs),
(344,-156,o),
(384,-195,o),
(444,-205,c)
);
}
);
width = 550;
},
{
anchors = (
{
name = bottom;
pos = (275,-20);
},
{
name = top;
pos = (275,719);
},
{
name = topgr;
pos = (-12,500);
}
);
layerId = "B3C53035-7890-4C98-85EB-10A7AE0A8F58";
shapes = (
{
closed = 1;
nodes = (
(94,0,l),
(475,0,l,{
name = ab01;
}),
(475,54,l,{
name = sv01;
}),
(154,54,l),
(154,338,l,{
name = dv01;
}),
(435,338,l),
(435,392,l),
(154,392,l,{
name = dv02;
}),
(154,646,l,{
name = sv02;
}),
(463,646,l),
(463,700,l,{
name = at01;
}),
(94,700,l)
);
},
{
closed = 1;
nodes = (
(476,-183,l),
(432,-171,o),
(409,-143,o),
(409,-103,cs),
(409,-62,o),
(434,-22,o),
(475,0,c),
(457,3,l),
(397,-12,o),
(354,-59,o),
(354,-108,cs),
(354,-154,o),
(393,-196,o),
(440,-206,c)
);
}
);
width = 550;
}
);
unicode = 280;
},
{
color = 6;
glyphname = Schwa;
kernLeft = C1;
kernRight = C;
lastChange = "2024-07-10 12:38:09 +0000";
layers = (
{
anchors = (
{
name = bottom;
pos = (380,-20);
},
{
name = top;
pos = (380,719);
}
);
layerId = "80F95D5A-7464-498F-9BB9-FC89FE1B12C4";
shapes = (
{
closed = 1;
nodes = (
(586,-20,o),
(736,119,o),
(736,354,cs),
(736,590,o),
(584,720,o),
(366,720,cs),
(225,720,o),
(129,665,o),
(75,599,c),
(181,493,l),
(235,553.698,o),
(286,580,o),
(355,580,cs),
(470,580,o),
(546,508.69,o),
(546,337.948,cs),
(546,195.328,o),
(493,120,o),
(380,120,cs),
(284,120,o),
(229,175,o),
(219,280,c),
(555,280,l),
(556,417,l),
(30,417,l),
(26,402,o),
(23,376,o),
(23,344,cs),
(23,125,o),
(160,-20,o),
(375,-20,cs)
);
}
);
width = 759;
},
{
anchors = (
{
name = bottom;
pos = (380,-20);
},
{
name = top;
pos = (380,719);
}
);
layerId = "C7381861-8087-459F-9A66-D6EC096294DF";
shapes = (
{
closed = 1;
nodes = (
(577,-20,o),
(706,129,o),
(706,355,cs,{
name = sh03;
}),
(706,581,o),
(577,720,o),
(381,720,cs,{
name = dv04;
}),
(260,720,o),
(169,677,o),
(107,599,c),
(165,541,l),
(231,613,o),
(288,640,o),
(378,640,cs,{
name = dv03;
}),
(531,640,o),
(617,538,o),
(617,354,cs),
(617,167,o),
(529,61,o),
(385,61,cs,{
name = dv02;
}),
(246,61,o),
(154,160,o),
(144,318,c,{
name = sh02;
}),
(629,318,l,{
name = dv05;
}),
(628,398,l,{
name = dv06;
}),
(57,398,l,{
name = sh04;
}),
(55,383,o),
(53,362,o),
(53,337,cs,{
name = sh01;
}),
(53,130,o),
(187,-20,o),
(382,-20,cs,{
name = dv01;
})
);
}
);
width = 759;
},
{
anchors = (
{
name = bottom;
pos = (380,-20);
},
{
name = top;
pos = (380,719);
}
);
layerId = "B3C53035-7890-4C98-85EB-10A7AE0A8F58";
shapes = (
{
closed = 1;
nodes = (
(571,-20,o),
(696,129,o),
(696,356,cs,{
name = sh03;
}),
(696,581,o),
(573,720,o),
(374,720,cs),
(268,720,o),
(181,680,o),
(113,599,c),
(156,556,l),
(210,628,o),
(284,665,o),
(379,665,cs),
(543,665,o),
(635,556,o),
(635,360,cs),
(635,156,o),
(535,35,o),
(380,35,cs,{
name = dv02;
}),
(225,35,o),
(124,155,o),
(124,338,c,{
name = sh02;
}),
(649,338,l,{
name = dv05;
}),
(648,392,l,{
name = dv06;
}),
(67,392,l,{
name = sh04;
}),
(65,377,o),
(63,356,o),
(63,331,cs,{
name = sh01;
}),
(63,129,o),
(193,-20,o),
(382,-20,cs,{
name = dv01;
})
);
}
);
width = 759;
}
);
unicode = 399;
},
{
color = 6;
glyphname = F;
kernLeft = B;
kernRight = F;
lastChange = "2024-07-10 12:37:15 +0000";
layers = (
{
anchors = (
{
name = bottom;
pos = (271,-20);
},
{
name = top;
pos = (260,719);
}
);
layerId = "80F95D5A-7464-498F-9BB9-FC89FE1B12C4";
shapes = (
{
closed = 1;
nodes = (
(58,0,l),
(248,0,l),
(248,270,l),
(463,270,l),
(463,410,l),
(248,410,l),
(248,560,l),
(488,560,l),
(488,700,l),
(58,700,l)
);
}
);
width = 510;
},
{
anchors = (
{
name = bottom;
pos = (271,-20);
},
{
name = top;
pos = (260,719);
}
);
layerId = "C7381861-8087-459F-9A66-D6EC096294DF";
shapes = (
{
closed = 1;
nodes = (
(74,0,l),
(164,0,l,{
name = ab01;
}),
(164,310,l,{
name = dv01;
}),
(435,310,l),
(435,390,l),
(164,390,l,{
name = dv02;
}),
(164,620,l,{
name = sv01;
}),
(475,620,l),
(475,700,l,{
name = at01;
}),
(74,700,l,{
name = dh01;
})
);
}
);
width = 510;
},
{
anchors = (
{
name = bottom;
pos = (271,-20);
},
{
name = top;
pos = (260,719);
}
);
layerId = "B3C53035-7890-4C98-85EB-10A7AE0A8F58";
shapes = (
{
closed = 1;
nodes = (
(84,0,l),
(144,0,l,{
name = ab01;
}),
(144,322,l,{
name = dv01;
}),
(433,322,l),
(433,376,l),
(144,376,l,{
name = dv02;
}),
(144,646,l,{
name = sv01;
}),
(473,646,l),
(473,700,l,{
name = at01;
}),
(84,700,l,{
name = dh01;
})
);
}
);
width = 510;
}
);
unicode = 70;
},
{
color = 6;
glyphname = G;
kernLeft = C1;
kernRight = G;
lastChange = "2024-07-10 12:37:15 +0000";
layers = (
{
anchors = (
{
name = bottom;
pos = (383,-20);
},
{
name = top;
pos = (383,719);
}
);
layerId = "80F95D5A-7464-498F-9BB9-FC89FE1B12C4";
shapes = (
{
closed = 1;
nodes = (
(577,0,l),
(719,0,l),
(719,391,l),
(331,391,l),
(331,251,l),
(577,251,l)
);
},
{
closed = 1;
nodes = (
(566,307,l),
(566,193.855,o),
(481.483,124,o),
(380.062,124,cs),
(291.568,124,o),
(216,177.293,o),
(216,357.895,cs),
(216,504.943,o),
(266.706,576,o),
(384.026,576,cs),
(454.617,576,o),
(506.317,550.907,o),
(561,493,c),
(667,599,l),
(613,665,o),
(507,720,o),
(370,720,cs),
(156,720,o),
(23,587,o),
(23,350,cs),
(23,133,o),
(143,-20,o),
(337,-20,cs),
(506,-20,o),
(614,96,o),
(614,219,c)
);
}
);
width = 776;
},
{
anchors = (
{
name = bottom;
pos = (383,-20);
},
{
name = top;
pos = (383,719);
}
);
layerId = "C7381861-8087-459F-9A66-D6EC096294DF";
shapes = (
{
closed = 1;
nodes = (
(607,0,l),
(697,0,l),
(697,366,l,{
name = dv06;
}),
(341,366,l,{
name = av02;
}),
(341,286,l,{
name = av03;
}),
(607,286,l,{
name = dv05;
})
);
},
{
closed = 1;
nodes = (
(608,307,l,{
name = dv07;
}),
(608,156.39,o),
(527.697,60,o),
(376.013,60,cs,{
name = dv02;
}),
(225.32,60,o),
(147,154.325,o),
(147,345.986,cs),
(147,540.657,o),
(228.278,640,o),
(382.903,640,cs,{
name = dv03;
}),
(467.154,640,o),
(531.581,609.694,o),
(597,541,c),
(655,599,l),
(588,681,o),
(490,720,o),
(377,720,cs,{
name = dv04;
}),
(177,720,o),
(53,597,o),
(53,350,cs),
(53,105,o),
(184,-20,o),
(363,-20,cs,{
name = dv01;
}),
(513,-20,o),
(623,92,o),
(622,233,c)
);
}
);
width = 776;
},
{
anchors = (
{
name = bottom;
pos = (383,-20);
},
{
name = top;
pos = (383,719);
}
);
layerId = "B3C53035-7890-4C98-85EB-10A7AE0A8F58";
shapes = (
{
closed = 1;
nodes = (
(628,0,l),
(688,0,l),
(688,357,l,{
name = dv06;
}),
(341,357,l,{
name = av02;
}),
(341,303,l,{
name = av03;
}),
(628,303,l,{
name = dv05;
})
);
},
{
closed = 1;
nodes = (
(628,303,l,{
name = dv07;
}),
(628,140,o),
(540,35,o),
(374,35,cs,{
name = dv02;
}),
(214,35,o),
(124,151,o),
(124,342,cs),
(124,565,o),
(233,665,o),
(387,665,cs),
(477,665,o),
(549,628,o),
(602,556,c),
(645,599,l),
(578,680,o),
(493,720,o),
(387,720,cs),
(203,720,o),
(63,597,o),
(63,348,cs),
(63,105,o),
(197,-20,o),
(372,-20,cs,{
name = dv01;
}),
(542,-20,o),
(641,113,o),
(640,254,c)
);
}
);
width = 776;
}
);
unicode = 71;
},
{
color = 6;
glyphname = H;
kernLeft = B;
kernRight = H;
lastChange = "2024-07-10 12:37:15 +0000";
layers = (
{
anchors = (
{
name = bottom;
pos = (358,-20);
},
{
name = top;
pos = (358,719);
},
{
name = topgr;
pos = (-60,500);
}
);
layerId = "80F95D5A-7464-498F-9BB9-FC89FE1B12C4";
shapes = (
{
closed = 1;
nodes = (
(58,0,l),
(248,0,l),
(248,300,l),
(468,300,l),
(468,0,l),
(658,0,l),
(658,700,l),
(468,700,l),
(468,440,l),
(248,440,l),
(248,700,l),
(58,700,l)
);
}
);
width = 716;
},
{
anchors = (
{
name = bottom;
pos = (358,-20);
},
{
name = top;
pos = (358,719);
},
{
name = topgr;
pos = (-28,500);
}
);
layerId = "C7381861-8087-459F-9A66-D6EC096294DF";
shapes = (
{
closed = 1;
nodes = (
(87,0,l,{
name = ab01;
}),
(177,0,l),
(177,330,l,{
name = dv01;
}),
(539,330,l),
(539,0,l,{
name = ab02;
}),
(629,0,l),
(629,700,l,{
name = at01;
}),
(539,700,l),
(539,410,l),
(177,410,l,{
name = dv02;
}),
(177,700,l,{
name = at02;
}),
(87,700,l)
);
}
);
width = 716;
},
{
anchors = (
{
name = bottom;
pos = (358,-20);
},
{
name = top;
pos = (358,719);
},
{
name = topgr;
pos = (-22,500);
}
);
layerId = "B3C53035-7890-4C98-85EB-10A7AE0A8F58";
shapes = (
{
closed = 1;
nodes = (
(97,0,l,{
name = ab01;
}),
(157,0,l),
(157,343,l,{
name = dv01;
}),
(559,343,l),
(559,0,l,{
name = ab02;
}),
(619,0,l),
(619,700,l,{
name = at01;
}),
(559,700,l),
(559,397,l),
(157,397,l,{
name = dv02;
}),
(157,700,l,{
name = at02;
}),
(97,700,l)
);
}
);
width = 716;
}
);
unicode = 72;
},
{
color = 6;
glyphname = Hbar;
kernLeft = Eth;
lastChange = "2024-07-10 12:37:15 +0000";
layers = (
{
layerId = "80F95D5A-7464-498F-9BB9-FC89FE1B12C4";
shapes = (
{
closed = 1;
nodes = (
(69,0,l),
(259,0,l),
(259,300,l),
(479,300,l),
(479,0,l),
(669,0,l),
(669,700,l),
(479,700,l),
(479,440,l),
(259,440,l),
(259,700,l),
(69,700,l)
);
},
{
closed = 1;
nodes = (
(0.27,514,l),
(737.266,514,l),
(737.266,598,l),
(0.27,598,l)
);
}
);
width = 737;
},
{
layerId = "C7381861-8087-459F-9A66-D6EC096294DF";
shapes = (
{
closed = 1;
nodes = (
(98,0,l,{
name = ab01;
}),
(188,0,l),
(188,330,l,{
name = dv01;
}),
(550,330,l),
(550,0,l,{
name = ab02;
}),
(640,0,l),
(640,700,l,{
name = at01;
}),
(550,700,l),
(550,410,l),
(188,410,l,{
name = dv02;
}),
(188,700,l,{
name = at02;
}),
(98,700,l)
);
},
{
closed = 1;
nodes = (
(0.27,514,l),
(737.266,514,l),
(737.266,588,l),
(0.27,588,l)
);
}
);
width = 737;
},
{
layerId = "B3C53035-7890-4C98-85EB-10A7AE0A8F58";
shapes = (
{
closed = 1;
nodes = (
(108,0,l,{
name = ab01;
}),
(168,0,l),
(168,343,l,{
name = dv01;
}),
(570,343,l),
(570,0,l,{
name = ab02;
}),
(630,0,l),
(630,700,l,{
name = at01;
}),
(570,700,l),
(570,397,l),
(168,397,l,{
name = dv02;
}),
(168,700,l,{
name = at02;
}),
(108,700,l)
);
},
{
closed = 1;
nodes = (
(0.27,515,l),
(737.266,515,l),
(737.266,567,l),
(0.27,567,l)
);
}
);
width = 737;
}
);
unicode = 294;
},
{
color = 6;
glyphname = I;
kernLeft = B;
kernRight = H;
lastChange = "2024-07-10 12:37:15 +0000";
layers = (
{
anchors = (
{
name = bottom;
pos = (163,-20);
},
{
name = ogonek;
pos = (251,-3);
},
{
name = top;
pos = (163,719);
},
{
name = topgr;
pos = (-50,500);
}
);
layerId = "80F95D5A-7464-498F-9BB9-FC89FE1B12C4";
shapes = (
{
closed = 1;
nodes = (
(68,0,l),
(258,0,l),
(258,700,l),
(68,700,l)
);
}
);
width = 326;
},
{
anchors = (
{
name = bottom;
pos = (163,-20);
},
{
name = ogonek;
pos = (205,-3);
},
{
name = top;
pos = (163,719);
},
{
name = topgr;
pos = (1,500);
}
);
layerId = "C7381861-8087-459F-9A66-D6EC096294DF";
shapes = (
{
closed = 1;
nodes = (
(118,0,l,{
name = ab01;
}),
(208,0,l),
(208,700,l,{
name = at01;
}),
(118,700,l)
);
}
);
width = 326;
},
{
anchors = (
{
name = bottom;
pos = (163,-20);
},
{
name = ogonek;
pos = (193,-3);
},
{
name = top;
pos = (168,719);
},
{
name = topgr;
pos = (13,500);
}
);
layerId = "B3C53035-7890-4C98-85EB-10A7AE0A8F58";
shapes = (
{
closed = 1;
nodes = (
(133,0,l),
(193,0,l),
(193,700,l),
(133,700,l)
);
}
);
width = 326;
}
);
unicode = 73;
},
{
color = 6;
glyphname = Iogonek;
kernLeft = B;
kernRight = H;
lastChange = "2024-07-10 12:37:15 +0000";
layers = (
{
anchors = (
{
name = bottom;
pos = (163,-20);
},
{
name = top;
pos = (163,719);
},
{
name = topgr;
pos = (-50,500);
}
);
layerId = "80F95D5A-7464-498F-9BB9-FC89FE1B12C4";
shapes = (
{
closed = 1;
nodes = (
(68,0,l),
(258,0,l),
(258,700,l),
(68,700,l)
);
},
{
closed = 1;
nodes = (
(259,-183,l),
(216.672,-169,o),
(196,-138,o),
(196,-104,cs),
(196,-67,o),
(219.619,-24,o),
(258,0,c),
(198.709,3,l),
(102.236,-14,o),
(54,-53,o),
(54,-105,cs),
(54,-158,o),
(105.25,-196,o),
(184.637,-206,c)
);
}
);
width = 326;
},
{
anchors = (
{
name = bottom;
pos = (163,-20);
},
{
name = top;
pos = (163,719);
},
{
name = topgr;
pos = (1,500);
}
);
layerId = "C7381861-8087-459F-9A66-D6EC096294DF";
shapes = (
{
closed = 1;
nodes = (
(118,0,l,{
name = ab01;
}),
(208,0,l),
(208,700,l,{
name = at01;
}),
(118,700,l)
);
},
{
closed = 1;
nodes = (
(209,-183,l),
(165,-171,o),
(142,-143,o),
(142,-103,cs),
(142,-62,o),
(167,-22,o),
(208,0,c),
(187,3,l),
(114,-12,o),
(67,-59,o),
(67,-110,cs),
(67,-157,o),
(107,-196,o),
(167,-206,c)
);
}
);
width = 326;
},
{
anchors = (
{
name = bottom;
pos = (163,-20);
},
{
name = top;
pos = (168,719);
},
{
name = topgr;
pos = (13,500);
}
);
layerId = "B3C53035-7890-4C98-85EB-10A7AE0A8F58";
shapes = (
{
closed = 1;
nodes = (
(133,0,l),
(193,0,l),
(193,700,l),
(133,700,l)
);
},
{
closed = 1;
nodes = (
(194,-183,l),
(150,-171,o),
(127,-143,o),
(127,-103,cs),
(127,-62,o),
(152,-22,o),
(193,0,c),
(175,3,l),
(115,-12,o),
(72,-59,o),
(72,-108,cs),
(72,-154,o),
(111,-196,o),
(158,-206,c)
);
}
);
width = 326;
}
);
unicode = 302;
},
{
color = 6;
glyphname = J;
kernLeft = J;
kernRight = J1;
lastChange = "2024-07-10 12:48:06 +0000";
layers = (
{
anchors = (
{
name = bottom;
pos = (248,-20);
},
{
name = top;
pos = (399,719);
}
);
layerId = "80F95D5A-7464-498F-9BB9-FC89FE1B12C4";
shapes = (
{
closed = 1;
nodes = (
(0,122,l),
(65,24,o),
(139,-20,o),
(248,-20,cs),
(412,-20,o),
(490,80,o),
(490,242,cs),
(490,700,l),
(300,700,l),
(300,249,ls),
(300,164,o),
(283.534,120,o),
(233.967,120,cs),
(187.576,120,o),
(146.102,159.569,o),
(106,228,c)
);
}
);
width = 540;
},
{
anchors = (
{
name = bottom;
pos = (248,-20);
},
{
name = top;
pos = (418,719);
}
);
layerId = "C7381861-8087-459F-9A66-D6EC096294DF";
shapes = (
{
closed = 1;
nodes = (
(16,122,l),
(80,25,o),
(150,-20,o),
(249,-20,cs,{
name = dv01;
}),
(384,-20,o),
(461,64,o),
(461,222,cs),
(461,700,l,{
name = at01;
}),
(371,700,l),
(371,215,ls),
(371,117,o),
(326,60,o),
(244,60,cs,{
name = dv02;
}),
(178,60,o),
(124,97,o),
(74,180,c)
);
}
);
width = 540;
},
{
anchors = (
{
name = bottom;
pos = (248,-20);
},
{
name = top;
pos = (422,700);
}
);
layerId = "B3C53035-7890-4C98-85EB-10A7AE0A8F58";
shapes = (
{
closed = 1;
nodes = (
(26,122,l),
(89,25,o),
(155,-20,o),
(249,-20,cs,{
name = dv01;
}),
(378,-20,o),
(451,64,o),
(451,222,cs),
(451,700,l,{
name = at01;
}),
(391,700,l),
(391,196,ls),
(391,92,o),
(339,35,o),
(248,35,cs,{
name = dv02;
}),
(170.403,35,o),
(117.207,79.516,o),
(69,165,c)
);
}
);
width = 540;
}
);
unicode = 74;
},
{
color = 6;
glyphname = K;
kernLeft = B;
kernRight = K;
lastChange = "2024-07-10 12:38:28 +0000";
layers = (
{
anchors = (
{
name = bottom;
pos = (335,-20);
},
{
name = top;
pos = (335,719);
}
);
layerId = "80F95D5A-7464-498F-9BB9-FC89FE1B12C4";
shapes = (
{
closed = 1;
nodes = (
(679,0,l),
(467,367,l),
(675,700,l),
(474,700,l),
(316,426,l),
(140,426,l),
(129,282,l),
(304,282,l),
(460,0,l)
);
},
{
closed = 1;
nodes = (
(248,0,l),
(248,700,l),
(58,700,l),
(58,0,l)
);
}
);
width = 670;
},
{
anchors = (
{
name = bottom;
pos = (335,-20);
},
{
name = top;
pos = (335,719);
}
);
layerId = "C7381861-8087-459F-9A66-D6EC096294DF";
shapes = (
{
closed = 1;
nodes = (
(623,0,l),
(411,367,l),
(619,700,l),
(512,700,l),
(338,399,l),
(101,399,l),
(110,318,l),
(350,318,l),
(519,0,l)
);
},
{
closed = 1;
nodes = (
(178,0,l),
(178,700,l),
(88,700,l,{
name = at01;
}),
(88,0,l,{
name = ab01;
})
);
}
);
width = 670;
},
{
anchors = (
{
name = bottom;
pos = (335,-20);
},
{
name = top;
pos = (335,719);
}
);
layerId = "B3C53035-7890-4C98-85EB-10A7AE0A8F58";
shapes = (
{
closed = 1;
nodes = (
(613,0,l),
(401,367,l),
(609,700,l),
(538,700,l),
(351,389,l),
(121,389,l),
(130,335,l),
(357,335,l),
(543,0,l)
);
},
{
closed = 1;
nodes = (
(158,0,l),
(158,700,l,{
name = av02;
}),
(98,700,l),
(98,0,l,{
name = av01;
})
);
}
);
width = 670;
}
);
unicode = 75;
},
{
color = 6;
glyphname = L;
kernLeft = B;
kernRight = L;
lastChange = "2024-07-10 12:37:15 +0000";
layers = (
{
anchors = (
{
name = bottom;
pos = (277,-20);
},
{
name = top;
pos = (162,719);
},
{
name = topright;
pos = (332,700);
}
);
layerId = "80F95D5A-7464-498F-9BB9-FC89FE1B12C4";
shapes = (
{
closed = 1;
nodes = (
(58,0,l),
(514,0,l),
(514,140,l),
(248,140,l),
(248,700,l),
(58,700,l)
);
}
);
width = 524;
},
{
anchors = (
{
name = bottom;
pos = (277,-20);
},
{
name = top;
pos = (133,719);
},
{
name = topright;
pos = (296,700);
}
);
layerId = "C7381861-8087-459F-9A66-D6EC096294DF";
shapes = (
{
closed = 1;
nodes = (
(88,0,l,{
name = ab01;
}),
(504,0,l),
(504,80,l,{
name = sv01;
}),
(178,80,l),
(178,700,l,{
name = at01;
}),
(88,700,l)
);
}
);
width = 524;
},
{
anchors = (
{
name = bottom;
pos = (277,-20);
},
{
name = top;
pos = (132,719);
},
{
name = topright;
pos = (288,700);
}
);
layerId = "B3C53035-7890-4C98-85EB-10A7AE0A8F58";
shapes = (
{
closed = 1;
nodes = (
(98,0,l,{
name = ab01;
}),
(502,0,l),
(502,54,l,{
name = sv01;
}),
(158,54,l),
(158,700,l,{
name = at01;
}),
(98,700,l)
);
}
);
width = 524;
}
);
unicode = 76;
},
{
color = 6;
glyphname = Lslash;
kernLeft = Eth;
kernRight = L;
lastChange = "2024-07-10 12:37:15 +0000";
layers = (
{
layerId = "80F95D5A-7464-498F-9BB9-FC89FE1B12C4";
shapes = (
{
closed = 1;
nodes = (
(68,0,l),
(514,0,l),
(514,140,l),
(258,140,l),
(258,700,l),
(68,700,l)
);
},
{
closed = 1;
nodes = (
(0,231,l),
(413,510,l),
(413,559,l),
(0,280,l)
);
}
);
width = 554;
},
{
layerId = "C7381861-8087-459F-9A66-D6EC096294DF";
shapes = (
{
closed = 1;
nodes = (
(88,0,l,{
name = ab01;
}),
(494,0,l),
(494,80,l,{
name = sv01;
}),
(178,80,l),
(178,700,l,{
name = at01;
}),
(88,700,l)
);
},
{
closed = 1;
nodes = (
(0,231,l),
(350,469,l),
(350,518,l),
(0,280,l)
);
}
);
width = 554;
},
{
layerId = "B3C53035-7890-4C98-85EB-10A7AE0A8F58";
shapes = (
{
closed = 1;
nodes = (
(98,0,l,{
name = ab01;
}),
(484,0,l),
(484,54,l,{
name = sv01;
}),
(158,54,l),
(158,700,l,{
name = at01;
}),
(98,700,l)
);
},
{
closed = 1;
nodes = (
(0,231,l),
(350,469,l),
(350,518,l),
(0,280,l)
);
}
);
width = 554;
}
);
unicode = 321;
},
{
color = 6;
glyphname = M;
kernLeft = B;
kernRight = H;
lastChange = "2024-07-10 12:37:15 +0000";
layers = (
{
anchors = (
{
name = bottom;
pos = (444,0);
},
{
name = top;
pos = (444,719);
}
);
layerId = "80F95D5A-7464-498F-9BB9-FC89FE1B12C4";
shapes = (
{
closed = 1;
nodes = (
(58,0,l),
(238,0,l),
(238,321,l),
(384,50,l),
(504,50,l),
(650,321,l),
(650,0,l),
(830,0,l),
(830,700,l),
(650,700,l),
(444,299,l),
(238,700,l),
(58,700,l)
);
}
);
width = 888;
},
{
anchors = (
{
name = bottom;
pos = (444,0);
},
{
name = top;
pos = (444,719);
}
);
layerId = "C7381861-8087-459F-9A66-D6EC096294DF";
shapes = (
{
closed = 1;
nodes = (
(87,0,l,{
name = ab03;
}),
(177,0,l),
(177,525,l,{
name = iv01;
}),
(422,50,l,{
name = ab01;
}),
(466,50,l),
(711,525,l,{
name = iv02;
}),
(711,0,l,{
name = ab02;
}),
(801,0,l),
(801,700,l,{
name = at01;
}),
(711,700,l),
(444,177,l,{
name = iv03;
}),
(177,700,l,{
name = at02;
}),
(87,700,l)
);
}
);
width = 888;
},
{
anchors = (
{
name = bottom;
pos = (444,0);
},
{
name = top;
pos = (444,719);
}
);
layerId = "B3C53035-7890-4C98-85EB-10A7AE0A8F58";
shapes = (
{
closed = 1;
nodes = (
(97,0,l,{
name = ab03;
}),
(157,0,l),
(157,570,l,{
name = iv01;
}),
(423,50,l,{
name = ab01;
}),
(465,50,l),
(731,570,l,{
name = iv02;
}),
(731,0,l,{
name = ab02;
}),
(791,0,l),
(791,700,l,{
name = at01;
}),
(731,700,l),
(444,135,l,{
name = iv03;
}),
(157,700,l,{
name = at02;
}),
(97,700,l)
);
}
);
width = 888;
}
);
unicode = 77;
},
{
color = 6;
glyphname = N;
kernLeft = B;
kernRight = H;
lastChange = "2024-07-10 12:37:15 +0000";
layers = (
{
anchors = (
{
name = bottom;
pos = (366,-20);
},
{
name = top;
pos = (366,719);
}
);
layerId = "80F95D5A-7464-498F-9BB9-FC89FE1B12C4";
shapes = (
{
closed = 1;
nodes = (
(58,0,l),
(248,0,l),
(248,389,l),
(494,0,l),
(674,0,l),
(674,700,l),
(484,700,l),
(484,311,l),
(238,700,l),
(58,700,l)
);
}
);
width = 732;
},
{
anchors = (
{
name = bottom;
pos = (366,-20);
},
{
name = top;
pos = (366,719);
}
);
layerId = "C7381861-8087-459F-9A66-D6EC096294DF";
shapes = (
{
closed = 1;
nodes = (
(87,0,l),
(177,0,l,{
name = ab01;
}),
(177,554,l,{
name = iv01;
}),
(565,0,l,{
name = ab02;
}),
(645,0,l),
(645,700,l,{
name = at01;
}),
(555,700,l),
(555,146,l,{
name = iv02;
}),
(167,700,l,{
name = at02;
}),
(87,700,l)
);
}
);
width = 732;
},
{
anchors = (
{
name = bottom;
pos = (366,-20);
},
{
name = top;
pos = (366,719);
}
);
layerId = "B3C53035-7890-4C98-85EB-10A7AE0A8F58";
shapes = (
{
closed = 1;
nodes = (
(97,0,l),
(157,0,l,{
name = ab01;
}),
(157,593,l,{
name = iv01;
}),
(585,0,l,{
name = ab02;
}),
(635,0,l),
(635,700,l,{
name = at01;
}),
(575,700,l),
(575,107,l,{
name = iv02;
}),
(147,700,l,{
name = at02;
}),
(97,700,l)
);
}
);
width = 732;
}
);
unicode = 78;
},
{
color = 6;
glyphname = Eng;
kernLeft = B;
kernRight = H;
lastChange = "2024-07-10 12:37:15 +0000";
layers = (
{
anchors = (
{
name = bottom;
pos = (411,-229);
},
{
name = top;
pos = (376,719);
}
);
layerId = "80F95D5A-7464-498F-9BB9-FC89FE1B12C4";
shapes = (
{
closed = 1;
nodes = (
(68,0,l),
(258,0,l),
(258,379,l),
(504,0,l),
(684,107.569,l),
(684,700,l),
(494,700,l),
(494,321,l),
(248,700,l),
(68,700,l)
);
},
{
closed = 1;
nodes = (
(194,-98,l),
(259,-196,o),
(333,-240,o),
(442,-240,cs),
(606,-240,o),
(684,-140,o),
(684,22,cs),
(684,480,l),
(494,480,l),
(494,29,ls),
(494,-56,o),
(477.534,-100,o),
(427.967,-100,cs),
(381.576,-100,o),
(340.102,-60.431,o),
(300,8,c)
);
}
);
width = 752;
},
{
anchors = (
{
name = bottom;
pos = (378,-202);
},
{
name = top;
pos = (376,719);
}
);
layerId = "C7381861-8087-459F-9A66-D6EC096294DF";
shapes = (
{
closed = 1;
nodes = (
(97,0,l),
(187,0,l,{
name = ab01;
}),
(187,554,l,{
name = iv01;
}),
(575,0,l,{
name = ab02;
}),
(655,24.601,l),
(655,700,l,{
name = at01;
}),
(565,700,l),
(565,146,l,{
name = iv02;
}),
(177,700,l,{
name = at02;
}),
(97,700,l)
);
},
{
closed = 1;
nodes = (
(210,-79,l),
(274,-176,o),
(344,-221,o),
(443,-221,cs,{
name = dv01;
}),
(578,-221,o),
(655,-137,o),
(655,21,cs),
(655,499,l,{
name = at01;
}),
(565,499,l),
(565,14,ls),
(565,-84,o),
(520,-141,o),
(438,-141,cs,{
name = dv02;
}),
(372,-141,o),
(318,-104,o),
(268,-21,c)
);
}
);
width = 752;
},
{
anchors = (
{
name = bottom;
pos = (376,-205);
},
{
name = top;
pos = (376,719);
}
);
layerId = "B3C53035-7890-4C98-85EB-10A7AE0A8F58";
shapes = (
{
closed = 1;
nodes = (
(107,0,l),
(167,0,l,{
name = ab01;
}),
(167,589,l,{
name = iv01;
}),
(595,0,l,{
name = ab02;
}),
(645,23.392,l),
(645,700,l,{
name = at01;
}),
(585,700,l),
(585,111,l,{
name = iv02;
}),
(157,700,l,{
name = at02;
}),
(107,700,l)
);
},
{
closed = 1;
nodes = (
(220,-79,l),
(283,-176,o),
(349,-221,o),
(443,-221,cs,{
name = dv01;
}),
(572,-221,o),
(645,-137,o),
(645,21,cs),
(645,499,l,{
name = at01;
}),
(585,499,l),
(585,-5,ls),
(585,-109,o),
(533,-166,o),
(442,-166,cs,{
name = dv02;
}),
(364.403,-166,o),
(311.207,-121.484,o),
(263,-36,c)
);
}
);
width = 752;
}
);
unicode = 330;
},
{
color = 6;
glyphname = O;
kernLeft = C1;
kernRight = C;
lastChange = "2024-07-10 12:38:28 +0000";
layers = (
{
anchors = (
{
name = bottom;
pos = (388,-20);
},
{
name = ogonek;
pos = (512,-2);
},
{
name = top;
pos = (388,719);
},
{
name = topgr;
pos = (-24,500);
}
);
layerId = "80F95D5A-7464-498F-9BB9-FC89FE1B12C4";
shapes = (
{
closed = 1;
nodes = (
(604,-20,o),
(752,125,o),
(752,350,cs),
(752,568,o),
(608,720,o),
(388,720,cs),
(168,720,o),
(23,569,o),
(23,350,cs),
(23,127,o),
(171,-20,o),
(387,-20,cs)
);
},
{
closed = 1;
nodes = (
(280.251,124,o),
(216,210.847,o),
(216,352.961,cs),
(216,496.061,o),
(276.297,576,o),
(385.029,576,cs),
(495.738,576,o),
(559,491.127,o),
(559,346.052,cs),
(559,202.952,o),
(498.703,124,o),
(388.983,124,cs)
);
}
);
width = 775;
},
{
anchors = (
{
name = bottom;
pos = (388,-20);
},
{
name = ogonek;
pos = (514,-1);
},
{
name = top;
pos = (388,719);
},
{
name = topgr;
pos = (6,500);
}
);
layerId = "C7381861-8087-459F-9A66-D6EC096294DF";
shapes = (
{
closed = 1;
nodes = (
(583,-20,o),
(722,107,o),
(722,350,cs,{
name = dv06;
}),
(722,575,o),
(596,720,o),
(388,720,cs,{
name = dv04;
}),
(188,720,o),
(53,586,o),
(53,350,cs),
(53,109,o),
(192,-20,o),
(387,-20,cs,{
name = dv01;
})
);
},
{
closed = 1;
nodes = (
(233.916,60,o),
(147,158.541,o),
(147,349.512,cs),
(147,531.827,o),
(233.916,640,o),
(384.043,640,cs,{
name = dv03;
}),
(546.023,640,o),
(628,543.671,o),
(628,350.003,cs,{
name = dv05;
}),
(628,170.384,o),
(539.109,60,o),
(389.969,60,cs,{
name = dv02;
})
);
}
);
width = 775;
},
{
anchors = (
{
name = bottom;
pos = (388,-20);
},
{
name = ogonek;
pos = (513,-1);
},
{
name = top;
pos = (388,719);
},
{
name = topgr;
pos = (6,500);
}
);
layerId = "B3C53035-7890-4C98-85EB-10A7AE0A8F58";
shapes = (
{
closed = 1;
nodes = (
(577,-20,o),
(712,110,o),
(712,350,cs,{
name = dv06;
}),
(712,578,o),
(590,720,o),
(389,720,cs,{
name = dv04;
}),
(194,720,o),
(63,587,o),
(63,350,cs),
(63,110,o),
(198,-20,o),
(388,-20,cs,{
name = dv01;
})
);
},
{
closed = 1;
nodes = (
(221,35,o),
(124,146,o),
(124,350,cs),
(124,548,o),
(220,665,o),
(386,665,cs,{
name = dv03;
}),
(558,665,o),
(651,554,o),
(651,350,cs,{
name = dv05;
}),
(651,153,o),
(550,35,o),
(390,35,cs,{
name = dv02;
})
);
}
);
width = 775;
}
);
unicode = 79;
},
{
color = 6;
glyphname = Oslash;
kernLeft = C1;
kernRight = C;
lastChange = "2024-07-10 12:38:28 +0000";
layers = (
{
anchors = (
{
name = bottom;
pos = (398,-20);
},
{
name = ogonek;
pos = (522,-2);
},
{
name = top;
pos = (398,719);
}
);
layerId = "80F95D5A-7464-498F-9BB9-FC89FE1B12C4";
shapes = (
{
closed = 1;
nodes = (
(614,-20,o),
(762,125,o),
(762,350,cs),
(762,568,o),
(618,720,o),
(398,720,cs),
(178,720,o),
(33,569,o),
(33,350,cs),
(33,127,o),
(181,-20,o),
(397,-20,cs)
);
},
{
closed = 1;
nodes = (
(240.209,-67,l),
(661.239,767.75,l),
(558.23,767.75,l),
(137.201,-67,l)
);
},
{
closed = 1;
nodes = (
(290.251,124,o),
(226,210.847,o),
(226,352.961,cs),
(226,496.061,o),
(286.297,576,o),
(395.029,576,cs),
(505.738,576,o),
(569,491.127,o),
(569,346.052,cs),
(569,202.952,o),
(508.703,124,o),
(398.983,124,cs)
);
}
);
width = 795;
},
{
anchors = (
{
name = bottom;
pos = (398,-20);
},
{
name = ogonek;
pos = (524,-1);
},
{
name = top;
pos = (398,719);
}
);
layerId = "C7381861-8087-459F-9A66-D6EC096294DF";
shapes = (
{
closed = 1;
nodes = (
(593,-20,o),
(732,107,o),
(732,350,cs,{
name = dv06;
}),
(732,575,o),
(606,720,o),
(398,720,cs,{
name = dv04;
}),
(198,720,o),
(63,586,o),
(63,350,cs),
(63,109,o),
(202,-20,o),
(397,-20,cs,{
name = dv01;
})
);
},
{
closed = 1;
nodes = (
(221.155,-67,l),
(642.184,767.75,l),
(572.758,767.75,l),
(151.728,-67,l)
);
},
{
closed = 1;
nodes = (
(243.916,60,o),
(157,158.541,o),
(157,349.512,cs),
(157,531.827,o),
(243.916,640,o),
(394.043,640,cs,{
name = dv03;
}),
(556.023,640,o),
(638,543.671,o),
(638,350.003,cs,{
name = dv05;
}),
(638,170.384,o),
(549.109,60,o),
(399.969,60,cs,{
name = dv02;
})
);
}
);
width = 795;
},
{
anchors = (
{
name = bottom;
pos = (398,-20);
},
{
name = ogonek;
pos = (523,-1);
},
{
name = top;
pos = (398,719);
}
);
layerId = "B3C53035-7890-4C98-85EB-10A7AE0A8F58";
shapes = (
{
closed = 1;
nodes = (
(587,-20,o),
(722,110,o),
(722,350,cs,{
name = dv06;
}),
(722,578,o),
(600,720,o),
(399,720,cs,{
name = dv04;
}),
(204,720,o),
(73,587,o),
(73,350,cs),
(73,110,o),
(208,-20,o),
(398,-20,cs,{
name = dv01;
})
);
},
{
closed = 1;
nodes = (
(211.155,-67,l),
(632.184,767.75,l),
(582.758,767.75,l),
(161.728,-67,l)
);
},
{
closed = 1;
nodes = (
(231,35,o),
(134,146,o),
(134,350,cs),
(134,548,o),
(230,665,o),
(396,665,cs,{
name = dv03;
}),
(568,665,o),
(661,554,o),
(661,350,cs,{
name = dv05;
}),
(661,153,o),
(560,35,o),
(400,35,cs,{
name = dv02;
})
);
}
);
width = 795;
}
);
unicode = 216;
},
{
color = 6;
glyphname = OE;
kernLeft = C1;
kernRight = E;
lastChange = "2024-07-10 12:37:15 +0000";
layers = (
{
anchors = (
{
name = bottom;
pos = (484,-20);
},
{
name = top;
pos = (484,719);
}
);
layerId = "80F95D5A-7464-498F-9BB9-FC89FE1B12C4";
shapes = (
{
closed = 1;
nodes = (
(676,140,l),
(676,297,l),
(883,297,l),
(883,437,l),
(676,437,l),
(676,560,l),
(908,560,l),
(908,700,l),
(390.55,700,ls),
(178.22,700,o),
(33,558,o),
(33,350,cs),
(33,141,o),
(177.22,0,o),
(390.55,0,cs),
(923,0,l),
(923,140,l)
);
},
{
closed = 1;
nodes = (
(485,140,l),
(411.28,140,ls),
(296.72,140,o),
(226,224,o),
(226,359,cs),
(226,489,o),
(291.74,560,o),
(411.28,560,cs),
(485,560,l)
);
}
);
width = 968;
},
{
anchors = (
{
name = bottom;
pos = (484,-20);
},
{
name = top;
pos = (484,719);
}
);
layerId = "C7381861-8087-459F-9A66-D6EC096294DF";
shapes = (
{
closed = 1;
nodes = (
(591.3,80,l),
(591.3,325,l,{
name = dv01;
}),
(862.31,325,l),
(862.31,405,l),
(591.3,405,l,{
name = dv02;
}),
(591.3,620,l,{
name = sv02;
}),
(888.31,620,l),
(888.31,700,l,{
name = at01;
}),
(399,700,ls,{
name = at01;
}),
(200,700,o),
(63,557,o),
(63,350,cs),
(63,142,o),
(199,0,o),
(399,0,cs),
(902.31,0,l,{
name = ab01;
}),
(902.31,80,l,{
name = sv01;
})
);
},
{
closed = 1;
nodes = (
(500.31,80,l,{
name = sv01;
}),
(407.56,80,ls),
(251.08,80,o),
(157,181,o),
(157,349,cs),
(157,518,o),
(251.08,620,o),
(407.56,620,cs),
(500.31,620,l,{
name = sv02;
})
);
}
);
width = 968;
},
{
anchors = (
{
name = bottom;
pos = (484,-20);
},
{
name = top;
pos = (484,719);
}
);
layerId = "B3C53035-7890-4C98-85EB-10A7AE0A8F58";
shapes = (
{
closed = 1;
nodes = (
(571.41,54,l),
(571.41,338,l,{
name = dv01;
}),
(852.41,338,l),
(852.41,392,l),
(571.41,392,l,{
name = dv02;
}),
(571.41,646,l,{
name = sv02;
}),
(880.41,646,l),
(880.41,700,l,{
name = at01;
}),
(397,700,ls,{
name = at01;
}),
(206,700,o),
(73,557,o),
(73,350,cs),
(73,142,o),
(205,0,o),
(397,0,cs),
(892.41,0,l,{
name = ab01;
}),
(892.41,54,l,{
name = sv01;
})
);
},
{
closed = 1;
nodes = (
(510.41,54,l,{
name = sv01;
}),
(410,54,ls),
(239,54,o),
(134,165,o),
(134,346,cs),
(134,534,o),
(239,646,o),
(410,646,cs),
(510.41,646,l,{
name = sv02;
})
);
}
);
width = 968;
}
);
unicode = 338;
},
{
color = 6;
glyphname = P;
kernLeft = B;
kernRight = P;
lastChange = "2024-07-10 12:37:15 +0000";
layers = (
{
anchors = (
{
name = bottom;
pos = (322,-20);
},
{
name = top;
pos = (322,719);
}
);
layerId = "80F95D5A-7464-498F-9BB9-FC89FE1B12C4";
shapes = (
{
closed = 1;
nodes = (
(58,0,l),
(248,0,l),
(248,216,l),
(334,216,ls),
(524,216,o),
(605,334,o),
(605,460,cs),
(605,585,o),
(524,700,o),
(334,700,cs),
(58,700,l)
);
},
{
closed = 1;
nodes = (
(248,356,l),
(248,560,l),
(299,560,ls),
(357,560,o),
(414,543.842,o),
(414,458,cs),
(414,372.158,o),
(358,356,o),
(299,356,cs)
);
}
);
width = 628;
},
{
anchors = (
{
name = bottom;
pos = (322,-20);
},
{
name = top;
pos = (322,719);
}
);
layerId = "C7381861-8087-459F-9A66-D6EC096294DF";
shapes = (
{
closed = 1;
nodes = (
(88,0,l),
(178,0,l,{
name = ab01;
}),
(178,237,l,{
name = dv01;
}),
(310,237,ls),
(483,237,o),
(585,328,o),
(585,472,cs),
(585,612,o),
(488,700,o),
(314,700,cs,{
name = at01;
}),
(88,700,l)
);
},
{
closed = 1;
nodes = (
(178,317,l,{
name = dv02;
}),
(178,620,l,{
name = sv01;
}),
(311,620,ls),
(439,620,o),
(495,576,o),
(495,474,cs),
(495,368,o),
(435,317,o),
(308,317,cs)
);
}
);
width = 628;
},
{
anchors = (
{
name = bottom;
pos = (322,-20);
},
{
name = top;
pos = (322,719);
}
);
layerId = "B3C53035-7890-4C98-85EB-10A7AE0A8F58";
shapes = (
{
closed = 1;
nodes = (
(98,0,l),
(158,0,l,{
name = ab01;
}),
(158,249,l,{
name = dv01;
}),
(305,249,ls),
(483,249,o),
(575,338,o),
(575,483,cs),
(575,612,o),
(502,700,o),
(304,700,cs,{
name = at01;
}),
(98,700,l)
);
},
{
closed = 1;
nodes = (
(158,303,l,{
name = dv02;
}),
(158,646,l,{
name = sv01;
}),
(305,646,ls),
(453,646,o),
(514,597,o),
(514,482,cs),
(514,362,o),
(447,303,o),
(304,303,cs)
);
}
);
width = 628;
}
);
unicode = 80;
},
{
color = 6;
glyphname = Thorn;
kernLeft = B;
kernRight = P;
lastChange = "2024-07-10 12:37:15 +0000";
layers = (
{
layerId = "80F95D5A-7464-498F-9BB9-FC89FE1B12C4";
shapes = (
{
closed = 1;
nodes = (
(140,137,l),
(306,137,ls),
(469,137,o),
(578,207,o),
(578,362,cs),
(578,516,o),
(471,584,o),
(306,584,cs),
(128,584,l),
(128,444,l),
(252,444,ls),
(353,444,o),
(387,423,o),
(387,365,cs),
(387,302,o),
(347,277,o),
(252,277,cs),
(140,277,l)
);
},
{
closed = 1;
nodes = (
(68,0,l),
(258,0,l),
(258,700,l),
(68,700,l)
);
}
);
width = 617;
},
{
layerId = "C7381861-8087-459F-9A66-D6EC096294DF";
shapes = (
{
closed = 1;
nodes = (
(140,173,l),
(315,173,ls),
(475,173,o),
(558,227,o),
(558,363,cs),
(558,497,o),
(477,548,o),
(315,548,cs),
(128,548,l),
(128,468,l),
(305,468,ls),
(427,468,o),
(468,442,o),
(468,365,cs),
(468,283,o),
(421,253,o),
(305,253,cs),
(140,253,l)
);
},
{
closed = 1;
nodes = (
(88,0,l),
(178,0,l),
(178,700,l),
(88,700,l)
);
}
);
width = 617;
},
{
layerId = "B3C53035-7890-4C98-85EB-10A7AE0A8F58";
shapes = (
{
closed = 1;
nodes = (
(140,183,l),
(305,183,ls),
(477,183,o),
(548,236,o),
(548,363,cs),
(548,497,o),
(467,538,o),
(305,538,cs),
(128,538,l),
(128,484,l),
(305,484,ls),
(444,484,o),
(488,454,o),
(488,364,cs),
(488,275,o),
(449,237,o),
(305,237,cs),
(140,237,l)
);
},
{
closed = 1;
nodes = (
(98,0,l,{
name = av01;
}),
(158,0,l),
(158,700,l,{
name = av02;
}),
(98,700,l)
);
}
);
width = 617;
}
);
unicode = 222;
},
{
color = 6;
glyphname = Q;
kernLeft = C1;
kernRight = C;
lastChange = "2024-07-10 12:38:28 +0000";
layers = (
{
anchors = (
{
name = bottom;
pos = (388,-20);
},
{
name = ogonek;
pos = (512,-2);
},
{
name = top;
pos = (388,719);
}
);
layerId = "80F95D5A-7464-498F-9BB9-FC89FE1B12C4";
shapes = (
{
closed = 1;
nodes = (
(604,-20,o),
(752,125,o),
(752,350,cs),
(752,568,o),
(608,720,o),
(388,720,cs),
(168,720,o),
(23,569,o),
(23,350,cs),
(23,127,o),
(171,-20,o),
(387,-20,cs)
);
},
{
closed = 1;
nodes = (
(634,-90,l),
(513,-90,o),
(483,-87,o),
(483,-3,c),
(323,-3,l),
(323,-194,o),
(386,-230,o),
(634,-230,c)
);
},
{
closed = 1;
nodes = (
(280.251,124,o),
(216,210.847,o),
(216,352.961,cs),
(216,496.061,o),
(276.297,576,o),
(385.029,576,cs),
(495.738,576,o),
(559,491.127,o),
(559,346.052,cs),
(559,202.952,o),
(498.703,124,o),
(388.983,124,cs)
);
}
);
width = 775;
},
{
anchors = (
{
name = bottom;
pos = (388,-20);
},
{
name = ogonek;
pos = (514,-1);
},
{
name = top;
pos = (388,719);
}
);
layerId = "C7381861-8087-459F-9A66-D6EC096294DF";
shapes = (
{
closed = 1;
nodes = (
(583,-20,o),
(722,107,o),
(722,350,cs,{
name = dv06;
}),
(722,575,o),
(596,720,o),
(388,720,cs,{
name = dv04;
}),
(188,720,o),
(53,586,o),
(53,350,cs),
(53,109,o),
(192,-20,o),
(387,-20,cs,{
name = dv01;
})
);
},
{
closed = 1;
nodes = (
(634,-121,l),
(468,-121,o),
(443,-111,o),
(443,-3,c,{
name = ab01;
}),
(360,-3,l,{
name = ab02;
}),
(360,-166,o),
(412,-194,o),
(634,-194,c)
);
},
{
closed = 1;
nodes = (
(233.916,60,o),
(147,158.541,o),
(147,349.512,cs),
(147,531.827,o),
(233.916,640,o),
(384.043,640,cs,{
name = dv03;
}),
(546.023,640,o),
(628,543.671,o),
(628,350.003,cs,{
name = dv05;
}),
(628,170.384,o),
(539.109,60,o),
(389.969,60,cs,{
name = dv02;
})
);
}
);
width = 775;
},
{
anchors = (
{
name = bottom;
pos = (388,-20);
},
{
name = ogonek;
pos = (513,-1);
},
{
name = top;
pos = (388,719);
}
);
layerId = "B3C53035-7890-4C98-85EB-10A7AE0A8F58";
shapes = (
{
closed = 1;
nodes = (
(577,-20,o),
(712,110,o),
(712,350,cs,{
name = dv06;
}),
(712,578,o),
(590,720,o),
(389,720,cs,{
name = dv04;
}),
(194,720,o),
(63,587,o),
(63,350,cs),
(63,110,o),
(198,-20,o),
(388,-20,cs,{
name = dv01;
})
);
},
{
closed = 1;
nodes = (
(634,-129,l),
(456,-129,o),
(430,-118,o),
(430,-3,c,{
name = ab01;
}),
(370,-3,l,{
name = ab02;
}),
(370,-154,o),
(423,-184,o),
(634,-184,c)
);
},
{
closed = 1;
nodes = (
(221,35,o),
(124,146,o),
(124,350,cs),
(124,548,o),
(220,665,o),
(386,665,cs,{
name = dv03;
}),
(558,665,o),
(651,554,o),
(651,350,cs,{
name = dv05;
}),
(651,153,o),
(550,35,o),
(390,35,cs,{
name = dv02;
})
);
}
);
width = 775;
}
);
unicode = 81;
},
{
color = 6;
glyphname = R;
kernLeft = B;
kernRight = R;
lastChange = "2024-07-10 12:37:15 +0000";
layers = (
{
anchors = (
{
name = bottom;
pos = (324,-20);
},
{
name = top;
pos = (324,719);
}
);
layerId = "80F95D5A-7464-498F-9BB9-FC89FE1B12C4";
shapes = (
{
closed = 1;
nodes = (
(58,0,l),
(248,0,l),
(248,560,l),
(309,560,ls),
(393,560,o),
(418,534,o),
(418,472,cs),
(418,410,o),
(393,384,o),
(309,384,cs),
(100,384,l),
(100,244,l),
(348,244,ls),
(507,244,o),
(609,334,o),
(609,476,cs),
(609,615,o),
(511,700,o),
(348,700,cs),
(58,700,l)
);
},
{
closed = 1;
nodes = (
(423,0,l),
(627,0,l),
(457,333,l),
(280,281,l)
);
}
);
width = 648;
},
{
anchors = (
{
name = bottom;
pos = (324,-20);
},
{
name = top;
pos = (324,719);
}
);
layerId = "C7381861-8087-459F-9A66-D6EC096294DF";
shapes = (
{
closed = 1;
nodes = (
(88,0,l),
(178,0,l,{
name = ab01;
}),
(178,620,l,{
name = sv01;
}),
(340,620,ls),
(456,620,o),
(499,583,o),
(499,482,cs),
(499,381,o),
(456,344,o),
(339,344,cs),
(100,344,l,{
name = dv02;
}),
(100,264,l,{
name = dv01;
}),
(344,264,ls),
(495,264,o),
(589,348,o),
(589,484,cs),
(589,619,o),
(498,700,o),
(348,700,cs,{
name = at01;
}),
(88,700,l)
);
},
{
closed = 1;
nodes = (
(506,0,l,{
name = ab02;
}),
(607,0,l),
(437,333,l),
(363,281,l)
);
}
);
width = 648;
},
{
anchors = (
{
name = bottom;
pos = (324,-20);
},
{
name = top;
pos = (324,719);
}
);
layerId = "B3C53035-7890-4C98-85EB-10A7AE0A8F58";
shapes = (
{
closed = 1;
nodes = (
(98,0,l),
(158,0,l,{
name = ab01;
}),
(158,646,l,{
name = sv01;
}),
(344,646,ls),
(464,646,o),
(518,583,o),
(518,482,cs),
(518,381,o),
(465,328,o),
(348,328,cs),
(110,328,l,{
name = dv02;
}),
(110,274,l,{
name = dv01;
}),
(344,274,ls),
(489,274,o),
(579,348,o),
(579,484,cs),
(579,619,o),
(492,700,o),
(348,700,cs,{
name = at01;
}),
(98,700,l)
);
},
{
closed = 1;
nodes = (
(529,0,l,{
name = ab02;
}),
(597,0,l),
(427,333,l),
(386,281,l)
);
}
);
width = 648;
}
);
unicode = 82;
},
{
color = 6;
glyphname = S;
kernLeft = S1;
kernRight = S;
lastChange = "2024-07-10 12:37:15 +0000";
layers = (
{
anchors = (
{
name = bottom;
pos = (310,-20);
},
{
name = top;
pos = (286,719);
}
);
layerId = "80F95D5A-7464-498F-9BB9-FC89FE1B12C4";
shapes = (
{
closed = 1;
nodes = (
(26,101,l),
(78,37,o),
(169,-20,o),
(304,-20,cs),
(466,-20,o),
(563,61.135,o),
(563,209.382,cs),
(563,308.548,o),
(499.006,369.673,o),
(356,407.713,cs),
(258.006,433.78,o),
(230,453.79,o),
(230,500.868,cs),
(230,546.945,o),
(257,580,o),
(309,580,cs),
(358,580,o),
(405,549.651,o),
(455,493,c),
(561,599,l),
(509,663,o),
(417,720,o),
(291,720,cs),
(135,720,o),
(40,632.855,o),
(40,492.621,cs),
(40,379.432,o),
(117.746,305.222,o),
(279.281,266.244,cs),
(346.06,250.13,o),
(373,236.194,o),
(373,193.122,cs),
(373,147.045,o),
(343.124,120,o),
(287.355,120,cs),
(228.599,120,o),
(181.793,150.349,o),
(132,207,c)
);
}
);
width = 600;
},
{
anchors = (
{
name = bottom;
pos = (300,-20);
},
{
name = top;
pos = (286,719);
}
);
layerId = "C7381861-8087-459F-9A66-D6EC096294DF";
shapes = (
{
closed = 1;
nodes = (
(48,101,l),
(111,21,o),
(194,-20,o),
(301,-20,cs),
(435,-20,o),
(541,45.099,o),
(541,174.294,cs),
(541,280.455,o),
(469.009,353.606,o),
(313,389.621,cs),
(187.009,418.705,o),
(148,464.734,o),
(148,526.829,cs),
(148,600.941,o),
(203,640,o),
(281,640,cs),
(353,640,o),
(415,605.653,o),
(474,541,c),
(532,599,l),
(469,679,o),
(386,720,o),
(284,720,cs),
(147,720,o),
(58,646.889,o),
(58,529.712,cs),
(58,418.543,o),
(137.988,344.373,o),
(288,312.382,cs),
(400.988,288.288,o),
(451,245.281,o),
(451,176.176,cs),
(451,99.059,o),
(390,60,o),
(306,60,cs),
(227,60,o),
(165,94.347,o),
(106,159,c)
);
}
);
width = 600;
},
{
anchors = (
{
name = bottom;
pos = (300,-20);
},
{
name = top;
pos = (286,719);
}
);
layerId = "B3C53035-7890-4C98-85EB-10A7AE0A8F58";
shapes = (
{
closed = 1;
nodes = (
(59,101,l),
(125,23,o),
(208,-20,o),
(310,-20,cs),
(433,-20,o),
(531,45,o),
(531,163,cs),
(531,312,o),
(406,341,o),
(295,375,cs),
(207,402,o),
(129,433,o),
(129,531,cs),
(129,626,o),
(203,665,o),
(278,665,cs),
(356,665,o),
(429,628,o),
(479,556,c),
(522,599,l),
(456,677,o),
(373,720,o),
(277,720,cs),
(151,720,o),
(68,643,o),
(68,537,cs),
(68,390,o),
(183,354,o),
(290,321,cs),
(383,292,o),
(470,265,o),
(470,168,cs),
(470,70,o),
(390,35,o),
(309,35,cs),
(225,35,o),
(152,72,o),
(102,144,c)
);
}
);
width = 600;
}
);
unicode = 83;
},
{
color = 6;
glyphname = Scedilla;
kernLeft = S1;
kernRight = S;
lastChange = "2024-07-10 12:37:15 +0000";
layers = (
{
anchors = (
{
name = bottom;
pos = (290,-218);
},
{
name = top;
pos = (286,719);
}
);
layerId = "80F95D5A-7464-498F-9BB9-FC89FE1B12C4";
shapes = (
{
closed = 1;
nodes = (
(26,101,l),
(78,37,o),
(169,-20,o),
(304,-20,cs),
(466,-20,o),
(563,61.135,o),
(563,209.382,cs),
(563,308.548,o),
(499.006,369.673,o),
(356,407.713,cs),
(258.006,433.78,o),
(230,453.79,o),
(230,500.868,cs),
(230,546.945,o),
(257,580,o),
(309,580,cs),
(358,580,o),
(405,549.651,o),
(455,493,c),
(561,599,l),
(509,663,o),
(417,720,o),
(291,720,cs),
(135,720,o),
(40,632.855,o),
(40,492.621,cs),
(40,379.432,o),
(117.746,305.222,o),
(279.281,266.244,cs),
(346.06,250.13,o),
(373,236.194,o),
(373,193.122,cs),
(373,147.045,o),
(343.124,120,o),
(287.355,120,cs),
(228.599,120,o),
(181.793,150.349,o),
(132,207,c)
);
},
{
closed = 1;
nodes = (
(158,-205,l),
(180,-211,o),
(213,-218,o),
(266,-218,cs),
(369,-218,o),
(418,-191,o),
(418,-134,cs),
(418,-87,o),
(385,-64,o),
(317,-64,c),
(364.423,20.41,l),
(262.423,20.41,l),
(194,-109,l),
(210,-107,o),
(235,-105,o),
(252,-105,cs),
(282,-105,o),
(298,-111,o),
(298,-133,cs),
(298,-151,o),
(287,-164,o),
(250,-164,cs),
(229,-164,o),
(200,-160,o),
(184,-154,c)
);
}
);
width = 600;
},
{
anchors = (
{
name = bottom;
pos = (280,-218);
},
{
name = top;
pos = (286,719);
}
);
layerId = "C7381861-8087-459F-9A66-D6EC096294DF";
shapes = (
{
closed = 1;
nodes = (
(48,101,l),
(111,21,o),
(194,-20,o),
(301,-20,cs),
(435,-20,o),
(541,45.099,o),
(541,174.294,cs),
(541,280.455,o),
(469.009,353.606,o),
(313,389.621,cs),
(187.009,418.705,o),
(148,464.734,o),
(148,526.829,cs),
(148,600.941,o),
(203,640,o),
(281,640,cs),
(353,640,o),
(415,605.653,o),
(474,541,c),
(532,599,l),
(469,679,o),
(386,720,o),
(284,720,cs),
(147,720,o),
(58,646.889,o),
(58,529.712,cs),
(58,418.543,o),
(137.988,344.373,o),
(288,312.382,cs),
(400.988,288.288,o),
(451,245.281,o),
(451,176.176,cs),
(451,99.059,o),
(390,60,o),
(306,60,cs),
(227,60,o),
(165,94.347,o),
(106,159,c)
);
},
{
closed = 1;
nodes = (
(184,-205,l),
(205,-211,o),
(229,-218,o),
(268,-218,cs),
(348,-218,o),
(394,-189,o),
(394,-137,cs),
(394,-90,o),
(357,-64,o),
(298,-64,c),
(342.74,14.895,l),
(285.74,14.895,l),
(231,-86,l),
(246,-84,o),
(257,-82,o),
(270,-82,cs),
(305,-82,o),
(326,-97,o),
(326,-132,cs),
(326,-166,o),
(307,-182,o),
(265,-182,cs),
(242,-182,o),
(220,-177,o),
(203,-171,c)
);
}
);
width = 600;
},
{
anchors = (
{
name = bottom;
pos = (280,-218);
},
{
name = top;
pos = (286,719);
}
);
layerId = "B3C53035-7890-4C98-85EB-10A7AE0A8F58";
shapes = (
{
closed = 1;
nodes = (
(59,101,l),
(125,23,o),
(208,-20,o),
(310,-20,cs),
(433,-20,o),
(531,45,o),
(531,163,cs),
(531,312,o),
(406,341,o),
(295,375,cs),
(207,402,o),
(129,433,o),
(129,531,cs),
(129,626,o),
(203,665,o),
(278,665,cs),
(356,665,o),
(429,628,o),
(479,556,c),
(522,599,l),
(456,677,o),
(373,720,o),
(277,720,cs),
(151,720,o),
(68,643,o),
(68,537,cs),
(68,390,o),
(183,354,o),
(290,321,cs),
(383,292,o),
(470,265,o),
(470,168,cs),
(470,70,o),
(390,35,o),
(309,35,cs),
(225,35,o),
(152,72,o),
(102,144,c)
);
},
{
closed = 1;
nodes = (
(189,-205,l),
(209,-211,o),
(232,-218,o),
(270,-218,cs),
(348,-218,o),
(389,-188,o),
(389,-140,cs),
(389,-92,o),
(349,-64,o),
(291,-64,c),
(331.194,12.137,l),
(286.194,12.137,l),
(236,-82,l),
(248,-79,o),
(258,-78,o),
(268,-78,cs),
(313,-78,o),
(337,-98,o),
(337,-132,cs),
(337,-166,o),
(312,-188,o),
(267,-188,cs),
(246,-188,o),
(222,-183,o),
(204,-177,c)
);
}
);
width = 600;
}
);
unicode = 350;
},
{
color = 6;
glyphname = Germandbls;
lastChange = "2024-07-10 12:37:15 +0000";
layers = (
{
layerId = "80F95D5A-7464-498F-9BB9-FC89FE1B12C4";
shapes = (
{
closed = 1;
nodes = (
(46,0,l),
(236,0,l),
(236,452.597,ls),
(236,542.758,o),
(268.079,576,o),
(365.212,576,cs),
(409.232,576,o),
(423.59,571.254,o),
(449.934,559.772,c),
(421.302,584.775,l),
(380.067,531.837,ls),
(351.166,494.733,o),
(339,445.68,o),
(339,402.315,cs),
(339,233.21,o),
(514,241.023,o),
(514,161.629,cs),
(514,136.864,o),
(496,120,o),
(463,120,cs),
(433,120,o),
(404,134,o),
(373,174,c),
(272.144,73.144,l),
(317.04,9.828,o),
(382.643,-20,o),
(477,-20,cs),
(642,-20,o),
(698,84,o),
(698,171,cs),
(698,347,o),
(529,334,o),
(529,422,cs),
(529,455,o),
(544.919,483.609,o),
(560,505,cs),
(666.853,656.554,l),
(661.642,635.659,l),
(595.176,679.179,o),
(532.38,720,o),
(349,720,cs),
(154.373,720,o),
(46,637.379,o),
(46,489,c)
);
}
);
width = 715;
},
{
layerId = "C7381861-8087-459F-9A66-D6EC096294DF";
shapes = (
{
closed = 1;
nodes = (
(76,0,l),
(166,0,l),
(166,485.415,ls),
(166,599.858,o),
(216.881,640,o),
(361.39,640,cs),
(422.731,640,o),
(475.576,630.018,o),
(506.053,619.811,c),
(511.853,633.354,l),
(438.534,541,ls),
(394.703,485.79,o),
(361,449.261,o),
(361,402.267,cs),
(361,257.369,o),
(587,265.411,o),
(587,145.967,cs),
(587,88.204,o),
(531.348,51,o),
(460.344,51,cs),
(400.854,51,o),
(350,78,o),
(323,125,c),
(273,75,l),
(310,18,o),
(370.351,-20,o),
(462.824,-20,cs),
(592.287,-20,o),
(676,54,o),
(676,151,cs),
(676,313,o),
(451,312,o),
(451,414,cs),
(451,443,o),
(473.004,466.205,o),
(497,495,cs),
(631.603,656.523,l),
(627.112,636.257,l),
(564.369,693.262,o),
(475.94,720,o),
(363,720,cs),
(165.804,720,o),
(76,648.905,o),
(76,489,c)
);
}
);
width = 715;
},
{
layerId = "B3C53035-7890-4C98-85EB-10A7AE0A8F58";
shapes = (
{
closed = 1;
nodes = (
(86,0,l),
(146,0,l),
(146,507,ls),
(146,607,o),
(208,665,o),
(357,665,cs),
(425.769,665,o),
(492.154,648.319,o),
(524.942,626.662,c),
(526.818,642.391,l),
(450,549,ls),
(405.97,495.471,o),
(372,458,o),
(372,408,cs),
(372,262,o),
(605,270,o),
(605,144,cs),
(605,82,o),
(550.338,35,o),
(463.25,35,cs),
(398.397,35,o),
(353,61,o),
(319,111,c),
(283,75,l),
(319,18,o),
(376.676,-20,o),
(464.608,-20,cs),
(586.578,-20,o),
(666,54,o),
(666,150,cs),
(666,313,o),
(433,312,o),
(433,414,cs),
(433,443,o),
(454.669,466.487,o),
(479,495,cs),
(616.737,656.41,l),
(616.011,636.923,l),
(563.8,686.374,o),
(475.988,720,o),
(368,720,cs),
(174,720,o),
(86,651,o),
(86,499,c)
);
}
);
width = 715;
}
);
unicode = 7838;
},
{
color = 6;
glyphname = T;
kernLeft = T;
kernRight = T1;
lastChange = "2024-07-10 12:37:15 +0000";
layers = (
{
anchors = (
{
name = bottom;
pos = (313,0);
},
{
name = top;
pos = (313,719);
}
);
layerId = "80F95D5A-7464-498F-9BB9-FC89FE1B12C4";
shapes = (
{
closed = 1;
nodes = (
(218,0,l),
(408,0,l),
(408,560,l),
(616,560,l),
(616,700,l),
(10,700,l),
(10,560,l),
(218,560,l)
);
}
);
width = 626;
},
{
anchors = (
{
name = bottom;
pos = (313,0);
},
{
name = top;
pos = (313,719);
}
);
layerId = "C7381861-8087-459F-9A66-D6EC096294DF";
shapes = (
{
closed = 1;
nodes = (
(268,0,l,{
name = ab01;
}),
(358,0,l),
(358,620,l,{
name = sv02;
}),
(596,620,l,{
name = sv03;
}),
(596,700,l),
(30,700,l,{
name = at01;
}),
(30,620,l,{
name = sv01;
}),
(268,620,l)
);
}
);
width = 626;
},
{
anchors = (
{
name = bottom;
pos = (313,0);
},
{
name = top;
pos = (313,719);
}
);
layerId = "B3C53035-7890-4C98-85EB-10A7AE0A8F58";
shapes = (
{
closed = 1;
nodes = (
(283,0,l,{
name = ab01;
}),
(343,0,l),
(343,646,l,{
name = sv02;
}),
(591,646,l,{
name = sv03;
}),
(591,700,l),
(35,700,l,{
name = at01;
}),
(35,646,l,{
name = sv01;
}),
(283,646,l)
);
}
);
width = 626;
}
);
unicode = 84;
},
{
color = 6;
glyphname = Tbar;
kernLeft = T;
kernRight = T1;
lastChange = "2024-07-10 12:37:15 +0000";
layers = (
{
anchors = (
{
name = bottom;
pos = (324,-20);
},
{
name = top;
pos = (324,719);
}
);
layerId = "80F95D5A-7464-498F-9BB9-FC89FE1B12C4";
shapes = (
{
closed = 1;
nodes = (
(229,0,l),
(419,0,l),
(419,560,l),
(627,560,l),
(627,700,l),
(21,700,l),
(21,560,l),
(229,560,l)
);
},
{
closed = 1;
nodes = (
(64,278,l),
(584,278,l),
(584,374,l),
(64,374,l)
);
}
);
width = 648;
},
{
anchors = (
{
name = bottom;
pos = (324,-20);
},
{
name = top;
pos = (324,719);
}
);
layerId = "C7381861-8087-459F-9A66-D6EC096294DF";
shapes = (
{
closed = 1;
nodes = (
(279,0,l,{
name = ab01;
}),
(369,0,l),
(369,620,l,{
name = sv02;
}),
(607,620,l,{
name = sv03;
}),
(607,700,l),
(41,700,l,{
name = at01;
}),
(41,620,l,{
name = sv01;
}),
(279,620,l)
);
},
{
closed = 1;
nodes = (
(74,318,l),
(574,318,l),
(574,384,l),
(74,384,l)
);
}
);
width = 648;
},
{
anchors = (
{
name = bottom;
pos = (324,-20);
},
{
name = top;
pos = (324,719);
}
);
layerId = "B3C53035-7890-4C98-85EB-10A7AE0A8F58";
shapes = (
{
closed = 1;
nodes = (
(294,0,l,{
name = ab01;
}),
(354,0,l),
(354,646,l,{
name = sv02;
}),
(597,646,l,{
name = sv03;
}),
(597,700,l),
(51,700,l,{
name = at01;
}),
(51,646,l,{
name = sv01;
}),
(294,646,l)
);
},
{
closed = 1;
nodes = (
(84,328,l),
(564,328,l),
(564,374,l),
(84,374,l)
);
}
);
width = 648;
}
);
unicode = 358;
},
{
color = 6;
glyphname = Tcedilla;
kernLeft = T;
kernRight = T1;
lastChange = "2024-07-10 12:37:15 +0000";
layers = (
{
anchors = (
{
name = bottom;
pos = (304,-218);
},
{
name = top;
pos = (324,719);
}
);
layerId = "80F95D5A-7464-498F-9BB9-FC89FE1B12C4";
shapes = (
{
closed = 1;
nodes = (
(229,0,l),
(419,0,l),
(419,560,l),
(627,560,l),
(627,700,l),
(21,700,l),
(21,560,l),
(229,560,l)
);
},
{
closed = 1;
nodes = (
(172,-205,l),
(194,-211,o),
(227,-218,o),
(280,-218,cs),
(383,-218,o),
(432,-191,o),
(432,-134,cs),
(432,-87,o),
(399,-64,o),
(331,-64,c),
(378.423,20.41,l),
(276.423,20.41,l),
(208,-109,l),
(224,-107,o),
(249,-105,o),
(266,-105,cs),
(296,-105,o),
(312,-111,o),
(312,-133,cs),
(312,-151,o),
(301,-164,o),
(264,-164,cs),
(243,-164,o),
(214,-160,o),
(198,-154,c)
);
}
);
width = 648;
},
{
anchors = (
{
name = bottom;
pos = (304,-218);
},
{
name = top;
pos = (324,719);
}
);
layerId = "C7381861-8087-459F-9A66-D6EC096294DF";
shapes = (
{
closed = 1;
nodes = (
(279,0,l,{
name = ab01;
}),
(369,0,l),
(369,620,l,{
name = sv02;
}),
(607,620,l,{
name = sv03;
}),
(607,700,l),
(41,700,l,{
name = at01;
}),
(41,620,l,{
name = sv01;
}),
(279,620,l)
);
},
{
closed = 1;
nodes = (
(208,-205,l),
(229,-211,o),
(253,-218,o),
(292,-218,cs),
(372,-218,o),
(418,-189,o),
(418,-137,cs),
(418,-90,o),
(381,-64,o),
(322,-64,c),
(366.74,14.895,l),
(309.74,14.895,l),
(255,-86,l),
(270,-84,o),
(281,-82,o),
(294,-82,cs),
(329,-82,o),
(350,-97,o),
(350,-132,cs),
(350,-166,o),
(331,-182,o),
(289,-182,cs),
(266,-182,o),
(244,-177,o),
(227,-171,c)
);
}
);
width = 648;
},
{
anchors = (
{
name = bottom;
pos = (304,-218);
},
{
name = top;
pos = (324,719);
}
);
layerId = "B3C53035-7890-4C98-85EB-10A7AE0A8F58";
shapes = (
{
closed = 1;
nodes = (
(294,0,l,{
name = ab01;
}),
(354,0,l),
(354,646,l,{
name = sv02;
}),
(597,646,l,{
name = sv03;
}),
(597,700,l),
(51,700,l,{
name = at01;
}),
(51,646,l,{
name = sv01;
}),
(294,646,l)
);
},
{
closed = 1;
nodes = (
(213,-205,l),
(233,-211,o),
(256,-218,o),
(294,-218,cs),
(372,-218,o),
(413,-188,o),
(413,-140,cs),
(413,-92,o),
(373,-64,o),
(315,-64,c),
(355.194,12.137,l),
(310.194,12.137,l),
(260,-82,l),
(272,-79,o),
(282,-78,o),
(292,-78,cs),
(337,-78,o),
(361,-98,o),
(361,-132,cs),
(361,-166,o),
(336,-188,o),
(291,-188,cs),
(270,-188,o),
(246,-183,o),
(228,-177,c)
);
}
);
width = 648;
}
);
unicode = 354;
},
{
color = 6;
glyphname = U;
kernLeft = U;
kernRight = J1;
lastChange = "2024-07-10 12:37:15 +0000";
layers = (
{
anchors = (
{
name = bottom;
pos = (338,-20);
},
{
name = ogonek;
pos = (461,-1);
},
{
name = top;
pos = (338,719);
}
);
layerId = "80F95D5A-7464-498F-9BB9-FC89FE1B12C4";
shapes = (
{
closed = 1;
nodes = (
(50,700,l),
(50,262,ls),
(50,88,o),
(158.784,-20,o),
(335.946,-20,cs),
(513.108,-20,o),
(625,89,o),
(625,262,cs),
(625,700,l),
(435,700,l),
(435,278,ls),
(435,170,o),
(403.8,120,o),
(336.943,120,cs),
(270.086,120,o),
(240,169,o),
(240,278,cs),
(240,700,l)
);
}
);
width = 675;
},
{
anchors = (
{
name = bottom;
pos = (338,-20);
},
{
name = ogonek;
pos = (451,-1);
},
{
name = top;
pos = (338,719);
}
);
layerId = "C7381861-8087-459F-9A66-D6EC096294DF";
shapes = (
{
closed = 1;
nodes = (
(80,700,l,{
name = at01;
}),
(80,262,ls),
(80,88,o),
(171,-20,o),
(336,-20,cs,{
name = dv01;
}),
(501,-20,o),
(595,89,o),
(595,262,cs),
(595,700,l,{
name = at02;
}),
(505,700,l),
(505,264,ls),
(505,121,o),
(442,60,o),
(337,60,cs,{
name = dv02;
}),
(233,60,o),
(170,120,o),
(170,264,cs),
(170,700,l)
);
}
);
width = 675;
},
{
anchors = (
{
name = bottom;
pos = (338,-20);
},
{
name = ogonek;
pos = (447,-1);
},
{
name = top;
pos = (338,719);
}
);
layerId = "B3C53035-7890-4C98-85EB-10A7AE0A8F58";
shapes = (
{
closed = 1;
nodes = (
(90,700,l,{
name = at01;
}),
(90,262,ls),
(90,88,o),
(177,-20,o),
(336,-20,cs,{
name = dv01;
}),
(496,-20,o),
(585,89,o),
(585,262,cs),
(585,700,l,{
name = at02;
}),
(525,700,l),
(525,259,ls),
(525,110,o),
(454,35,o),
(337,35,cs,{
name = dv02;
}),
(221,35,o),
(150,109,o),
(150,259,cs),
(150,700,l)
);
}
);
width = 675;
}
);
unicode = 85;
},
{
color = 6;
glyphname = Uogonek;
kernLeft = U;
kernRight = J1;
lastChange = "2024-07-10 12:37:15 +0000";
layers = (
{
anchors = (
{
name = bottom;
pos = (338,-20);
},
{
name = top;
pos = (338,719);
}
);
layerId = "80F95D5A-7464-498F-9BB9-FC89FE1B12C4";
shapes = (
{
closed = 1;
nodes = (
(50,700,l),
(50,262,ls),
(50,88,o),
(158.784,-20,o),
(335.946,-20,cs),
(513.108,-20,o),
(625,89,o),
(625,262,cs),
(625,700,l),
(435,700,l),
(435,278,ls),
(435,170,o),
(403.8,120,o),
(336.943,120,cs),
(270.086,120,o),
(240,169,o),
(240,278,cs),
(240,700,l)
);
},
{
closed = 1;
nodes = (
(462,-181,l),
(419.672,-167,o),
(399,-136,o),
(399,-102,cs),
(399,-65,o),
(422.619,-22,o),
(461,2,c),
(401.709,5,l),
(305.236,-12,o),
(257,-51,o),
(257,-103,cs),
(257,-156,o),
(308.25,-194,o),
(387.637,-204,c)
);
}
);
width = 675;
},
{
anchors = (
{
name = bottom;
pos = (338,-20);
},
{
name = top;
pos = (338,719);
}
);
layerId = "C7381861-8087-459F-9A66-D6EC096294DF";
shapes = (
{
closed = 1;
nodes = (
(80,700,l,{
name = at01;
}),
(80,262,ls),
(80,88,o),
(171,-20,o),
(336,-20,cs,{
name = dv01;
}),
(501,-20,o),
(595,89,o),
(595,262,cs),
(595,700,l,{
name = at02;
}),
(505,700,l),
(505,264,ls),
(505,121,o),
(442,60,o),
(337,60,cs,{
name = dv02;
}),
(233,60,o),
(170,120,o),
(170,264,cs),
(170,700,l)
);
},
{
closed = 1;
nodes = (
(452,-181,l),
(408,-169,o),
(385,-141,o),
(385,-101,cs),
(385,-60,o),
(410,-20,o),
(451,2,c),
(430,5,l),
(357,-10,o),
(310,-57,o),
(310,-108,cs),
(310,-155,o),
(350,-194,o),
(410,-204,c)
);
}
);
width = 675;
},
{
anchors = (
{
name = bottom;
pos = (338,-20);
},
{
name = top;
pos = (338,719);
}
);
layerId = "B3C53035-7890-4C98-85EB-10A7AE0A8F58";
shapes = (
{
closed = 1;
nodes = (
(90,700,l,{
name = at01;
}),
(90,262,ls),
(90,88,o),
(177,-20,o),
(336,-20,cs,{
name = dv01;
}),
(496,-20,o),
(585,89,o),
(585,262,cs),
(585,700,l,{
name = at02;
}),
(525,700,l),
(525,259,ls),
(525,110,o),
(454,35,o),
(337,35,cs,{
name = dv02;
}),
(221,35,o),
(150,109,o),
(150,259,cs),
(150,700,l)
);
},
{
closed = 1;
nodes = (
(448,-181,l),
(404,-169,o),
(381,-141,o),
(381,-101,cs),
(381,-60,o),
(406,-20,o),
(447,2,c),
(429,5,l),
(369,-10,o),
(326,-57,o),
(326,-106,cs),
(326,-152,o),
(365,-194,o),
(412,-204,c)
);
}
);
width = 675;
}
);
unicode = 370;
},
{
color = 6;
glyphname = V;
kernLeft = V1;
kernRight = V;
lastChange = "2024-07-10 12:37:15 +0000";
layers = (
{
anchors = (
{
name = bottom;
pos = (328,-20);
},
{
name = top;
pos = (328,719);
}
);
layerId = "80F95D5A-7464-498F-9BB9-FC89FE1B12C4";
shapes = (
{
closed = 1;
nodes = (
(276,0,l),
(431,0,l),
(658,700,l),
(459,700,l)
);
},
{
closed = 1;
nodes = (
(224,0,l),
(379,0,l),
(196,700,l),
(-3,700,l)
);
}
);
width = 655;
},
{
anchors = (
{
name = bottom;
pos = (328,-20);
},
{
name = top;
pos = (328,719);
}
);
layerId = "C7381861-8087-459F-9A66-D6EC096294DF";
shapes = (
{
closed = 1;
nodes = (
(313,0,l),
(396,0,l),
(623,700,l),
(527,700,l)
);
},
{
closed = 1;
nodes = (
(259,0,l),
(342,0,l),
(128,700,l),
(32,700,l)
);
}
);
width = 655;
},
{
anchors = (
{
name = bottom;
pos = (328,-20);
},
{
name = top;
pos = (328,719);
}
);
layerId = "B3C53035-7890-4C98-85EB-10A7AE0A8F58";
shapes = (
{
closed = 1;
nodes = (
(319,0,l),
(378,0,l),
(613,700,l),
(550,700,l)
);
},
{
closed = 1;
nodes = (
(277,0,l),
(336,0,l),
(105,700,l),
(42,700,l)
);
}
);
width = 655;
}
);
unicode = 86;
},
{
color = 6;
glyphname = W;
kernLeft = V1;
kernRight = V;
lastChange = "2024-07-10 12:37:15 +0000";
layers = (
{
anchors = (
{
name = bottom;
pos = (480,-20);
},
{
name = top;
pos = (480,719);
}
);
layerId = "80F95D5A-7464-498F-9BB9-FC89FE1B12C4";
shapes = (
{
closed = 1;
nodes = (
(189,0,l),
(346,0,l),
(186,700,l),
(-12,700,l)
);
},
{
closed = 1;
nodes = (
(232,0,l),
(381,0,l),
(546,700,l),
(392,700,l)
);
},
{
closed = 1;
nodes = (
(580,0,l),
(729,0,l),
(569,700,l),
(415,700,l)
);
},
{
closed = 1;
nodes = (
(615,0,l),
(772,0,l),
(973,700,l),
(775,700,l)
);
}
);
width = 960;
},
{
anchors = (
{
name = bottom;
pos = (480,-20);
},
{
name = top;
pos = (480,719);
}
);
layerId = "C7381861-8087-459F-9A66-D6EC096294DF";
shapes = (
{
closed = 1;
nodes = (
(228,0,l),
(304,0,l),
(122,700,l),
(27,700,l)
);
},
{
closed = 1;
nodes = (
(272,0,l),
(341,0,l),
(501,700,l),
(442,700,l)
);
},
{
closed = 1;
nodes = (
(620,0,l),
(689,0,l),
(519,700,l),
(460,700,l)
);
},
{
closed = 1;
nodes = (
(657,0,l),
(733,0,l),
(934,700,l),
(839,700,l)
);
}
);
width = 960;
},
{
anchors = (
{
name = bottom;
pos = (480,-20);
},
{
name = top;
pos = (480,719);
}
);
layerId = "B3C53035-7890-4C98-85EB-10A7AE0A8F58";
shapes = (
{
closed = 1;
nodes = (
(238,0,l),
(295,0,l),
(99,700,l),
(37,700,l)
);
},
{
closed = 1;
nodes = (
(272,0,l),
(326,0,l),
(489,700,l),
(444,700,l)
);
},
{
closed = 1;
nodes = (
(635,0,l),
(689,0,l),
(516,700,l),
(471,700,l)
);
},
{
closed = 1;
nodes = (
(666,0,l),
(723,0,l),
(924,700,l),
(862,700,l)
);
}
);
width = 960;
}
);
unicode = 87;
},
{
color = 6;
glyphname = X;
kernLeft = X;
kernRight = K;
lastChange = "2024-07-10 12:37:15 +0000";
layers = (
{
anchors = (
{
name = bottom;
pos = (324,-20);
},
{
name = top;
pos = (324,719);
}
);
layerId = "80F95D5A-7464-498F-9BB9-FC89FE1B12C4";
shapes = (
{
closed = 1;
nodes = (
(-2,0,l),
(221,0,l),
(325,188,l),
(429,0,l),
(649,0,l),
(436,354,l),
(644,700,l),
(425,700,l),
(324,518,l),
(223,700,l),
(3,700,l),
(211,354,l)
);
}
);
width = 648;
},
{
anchors = (
{
name = bottom;
pos = (324,-20);
},
{
name = top;
pos = (324,719);
}
);
layerId = "C7381861-8087-459F-9A66-D6EC096294DF";
shapes = (
{
closed = 1;
nodes = (
(35,0,l),
(139,0,l),
(324,321,l),
(509,0,l),
(614,0,l),
(401,354,l),
(609,700,l),
(504,700,l),
(325,390,l),
(146,700,l),
(40,700,l),
(248,354,l)
);
}
);
width = 648;
},
{
anchors = (
{
name = bottom;
pos = (324,-20);
},
{
name = top;
pos = (324,719);
}
);
layerId = "B3C53035-7890-4C98-85EB-10A7AE0A8F58";
shapes = (
{
closed = 1;
nodes = (
(48,0,l),
(119,0,l),
(324,341,l),
(529,0,l),
(600,0,l),
(387,354,l),
(595,700,l),
(522,700,l),
(324,370,l),
(126,700,l),
(53,700,l),
(261,354,l)
);
}
);
width = 648;
}
);
unicode = 88;
},
{
color = 6;
glyphname = Y;
kernLeft = Y1;
kernRight = Y;
lastChange = "2024-07-10 12:37:15 +0000";
layers = (
{
anchors = (
{
name = bottom;
pos = (321,-20);
},
{
name = top;
pos = (321,719);
},
{
name = topgr;
pos = (-125,500);
}
);
layerId = "80F95D5A-7464-498F-9BB9-FC89FE1B12C4";
shapes = (
{
closed = 1;
nodes = (
(226,0,l),
(416,0,l),
(416,279,l),
(649,700,l),
(437,700,l),
(326,472,l),
(210,700,l),
(-7,700,l),
(226,279,l)
);
}
);
width = 642;
},
{
anchors = (
{
name = bottom;
pos = (321,-20);
},
{
name = top;
pos = (321,719);
},
{
name = topgr;
pos = (-70,500);
}
);
layerId = "C7381861-8087-459F-9A66-D6EC096294DF";
shapes = (
{
closed = 1;
nodes = (
(271,0,l,{
name = ab01;
}),
(371,0,l),
(371,296,l,{
name = iv04;
}),
(614,700,l,{
name = at01;
}),
(497,700,l),
(321,395,l,{
name = iv05;
}),
(145,700,l,{
name = at02;
}),
(28,700,l),
(271,296,l,{
name = iv01;
})
);
}
);
width = 642;
},
{
anchors = (
{
name = bottom;
pos = (319,-20);
},
{
name = top;
pos = (321,719);
},
{
name = topgr;
pos = (-60,500);
}
);
layerId = "B3C53035-7890-4C98-85EB-10A7AE0A8F58";
shapes = (
{
closed = 1;
nodes = (
(291,0,l,{
name = ab01;
}),
(351,0,l),
(351,295,l,{
name = iv04;
}),
(604,700,l,{
name = at01;
}),
(532,700,l),
(321,349,l,{
name = iv05;
}),
(110,700,l,{
name = at02;
}),
(38,700,l),
(291,295,l,{
name = iv01;
})
);
}
);
width = 642;
}
);
unicode = 89;
},
{
color = 6;
glyphname = Z;
kernLeft = Z1;
kernRight = Z;
lastChange = "2024-07-10 12:37:15 +0000";
layers = (
{
anchors = (
{
name = bottom;
pos = (290,-20);
},
{
name = top;
pos = (300,719);
}
);
layerId = "80F95D5A-7464-498F-9BB9-FC89FE1B12C4";
shapes = (
{
closed = 1;
nodes = (
(20,0,l),
(560,0,l),
(560,140,l),
(227,140,l),
(558,570,l),
(558,700,l),
(48,700,l),
(48,560,l),
(351,560,l),
(20,130,l)
);
}
);
width = 577;
},
{
anchors = (
{
name = bottom;
pos = (287,-20);
},
{
name = top;
pos = (297,719);
}
);
layerId = "C7381861-8087-459F-9A66-D6EC096294DF";
shapes = (
{
closed = 1;
nodes = (
(38,0,l,{
name = ab01;
}),
(536,0,l),
(536,80,l,{
name = sv01;
}),
(143,80,l),
(534,625,l),
(534,700,l,{
name = at01;
}),
(66,700,l),
(66,620,l,{
name = sv02;
}),
(429,620,l),
(38,75,l)
);
}
);
width = 577;
},
{
anchors = (
{
name = bottom;
pos = (290,-20);
},
{
name = top;
pos = (300,719);
}
);
layerId = "B3C53035-7890-4C98-85EB-10A7AE0A8F58";
shapes = (
{
closed = 1;
nodes = (
(51,0,l,{
name = ab01;
}),
(529,0,l),
(529,54,l,{
name = sv01;
}),
(122,54,l),
(527,651,l),
(527,700,l,{
name = at01;
}),
(79,700,l),
(79,646,l,{
name = sv02;
}),
(456,646,l),
(51,49,l)
);
}
);
width = 577;
}
);
unicode = 90;
},
{
color = 6;
glyphname = M.ss01;
kernLeft = B;
kernRight = H;
lastChange = "2024-07-10 12:37:15 +0000";
layers = (
{
anchors = (
{
name = bottom;
pos = (425,-20);
},
{
name = top;
pos = (425,719);
}
);
layerId = "80F95D5A-7464-498F-9BB9-FC89FE1B12C4";
shapes = (
{
closed = 1;
nodes = (
(58,0,l),
(248,0,l),
(248,398,l),
(406,124,l),
(444,124,l),
(602,398,l),
(602,0,l),
(792,0,l),
(792,700,l),
(612,700,l),
(425,376,l),
(238,700,l),
(58,700,l)
);
}
);
width = 850;
},
{
anchors = (
{
name = bottom;
pos = (425,-20);
},
{
name = top;
pos = (425,719);
}
);
layerId = "C7381861-8087-459F-9A66-D6EC096294DF";
shapes = (
{
closed = 1;
nodes = (
(87,0,l,{
name = ab01;
}),
(177,0,l),
(177,533,l,{
name = iv02;
}),
(382,178,l),
(468,178,l),
(673,533,l,{
name = iv03;
}),
(673,0,l,{
name = ab02;
}),
(763,0,l),
(763,700,l,{
name = at02;
}),
(676,700,l),
(425,266,l,{
name = iv01;
}),
(174,700,l,{
name = at01;
}),
(87,700,l)
);
}
);
width = 850;
},
{
anchors = (
{
name = bottom;
pos = (425,-20);
},
{
name = top;
pos = (425,719);
}
);
layerId = "B3C53035-7890-4C98-85EB-10A7AE0A8F58";
shapes = (
{
closed = 1;
nodes = (
(97,0,l,{
name = ab01;
}),
(157,0,l),
(157,587,l,{
name = iv02;
}),
(391,182,l),
(459,182,l),
(693,587,l,{
name = iv03;
}),
(693,0,l,{
name = ab02;
}),
(753,0,l),
(753,700,l,{
name = at02;
}),
(696,700,l),
(425,231,l,{
name = iv01;
}),
(154,700,l,{
name = at01;
}),
(97,700,l)
);
}
);
width = 850;
}
);
},
{
color = 6;
glyphname = G.ss03;
kernLeft = C1;
kernRight = C;
lastChange = "2024-07-10 12:38:09 +0000";
layers = (
{
anchors = (
{
name = bottom;
pos = (388,-19);
},
{
name = top;
pos = (377,719);
}
);
layerId = "80F95D5A-7464-498F-9BB9-FC89FE1B12C4";
shapes = (
{
closed = 1;
nodes = (
(590,-20,o),
(730,118.662,o),
(730,320.17,cs),
(730,390,l),
(371,390,l),
(371,260,l),
(532,260,l),
(532,185.468,o),
(482,120,o),
(399,120,cs),
(286,120,o),
(214,209.389,o),
(214,348.996,cs),
(214,496.638,o),
(281,580,o),
(399,580,cs),
(498,580,o),
(564,534.727,o),
(638,414,c),
(683,578,l),
(616,664,o),
(510,720,o),
(377,720,cs),
(169,720,o),
(23,558,o),
(23,348,cs),
(23,135,o),
(176,-20,o),
(386,-20,cs)
);
}
);
width = 753;
},
{
anchors = (
{
name = bottom;
pos = (387,-9);
},
{
name = top;
pos = (377,719);
}
);
layerId = "C7381861-8087-459F-9A66-D6EC096294DF";
shapes = (
{
closed = 1;
nodes = (
(578,-20,o),
(700,117.352,o),
(700,316.864,cs,{
name = sv03;
}),
(700,370,l,{
name = sv01;
}),
(370,370,l,{
name = dv06;
}),
(370,290,l,{
name = dv05;
}),
(610,290,l,{
name = sv02;
}),
(610,156,o),
(522,60,o),
(392,60,cs,{
name = dv04;
}),
(252,60,o),
(143,164.36,o),
(143,351.003,cs,{
name = dv07;
}),
(143,530.623,o),
(245,640,o),
(379,640,cs),
(464,640,o),
(545,618.85,o),
(617,499,c),
(653,603,l),
(585,680,o),
(494,720,o),
(379,720,cs),
(174,720,o),
(53,561,o),
(53,348,cs,{
name = dv08;
}),
(53,132,o),
(191,-20,o),
(386,-20,cs,{
name = dv03;
})
);
}
);
width = 753;
},
{
anchors = (
{
name = bottom;
pos = (389,-9);
},
{
name = top;
pos = (377,719);
}
);
layerId = "B3C53035-7890-4C98-85EB-10A7AE0A8F58";
shapes = (
{
closed = 1;
nodes = (
(572,-20,o),
(690,117,o),
(690,316,cs,{
name = sv03;
}),
(690,359,l,{
name = sv01;
}),
(370,359,l,{
name = dv06;
}),
(370,309,l,{
name = dv05;
}),
(629,309,l,{
name = sv02;
}),
(629,119,o),
(516,35,o),
(386,35,cs,{
name = dv04;
}),
(236,35,o),
(123,145,o),
(123,351,cs,{
name = dv07;
}),
(123,550,o),
(227,665,o),
(378,665,cs),
(455,665,o),
(549,646,o),
(620,537,c),
(643,603,l),
(575,682,o),
(478,720,o),
(378,720,cs),
(170,720,o),
(63,561,o),
(63,348,cs,{
name = dv08;
}),
(63,132,o),
(197,-20,o),
(386,-20,cs,{
name = dv03;
})
);
}
);
width = 753;
}
);
},
{
color = 6;
glyphname = Q.ss06;
kernLeft = C1;
kernRight = C;
lastChange = "2024-07-10 12:38:28 +0000";
layers = (
{
anchors = (
{
name = bottom;
pos = (388,-20);
},
{
name = ogonek;
pos = (512,-2);
},
{
name = top;
pos = (388,719);
}
);
layerId = "80F95D5A-7464-498F-9BB9-FC89FE1B12C4";
shapes = (
{
closed = 1;
nodes = (
(604,-20,o),
(752,125,o),
(752,350,cs),
(752,568,o),
(608,720,o),
(388,720,cs),
(168,720,o),
(23,569,o),
(23,350,cs),
(23,127,o),
(171,-20,o),
(387,-20,cs)
);
},
{
closed = 1;
nodes = (
(706.503,-19,l),
(620.142,-19,o),
(600.996,40.179,o),
(581.601,100.128,cs),
(561.695,161.658,o),
(541.525,224,o),
(448.148,224,cs),
(358.503,224,o),
(306.503,176,o),
(285.503,129,c),
(293.503,121,l),
(324.503,154,o),
(349.503,162,o),
(367.982,162,cs),
(409.147,162,o),
(424.526,116.652,o),
(443.724,60.045,cs),
(475.604,-33.954,o),
(518.013,-159,o),
(706.503,-159,c)
);
},
{
closed = 1;
nodes = (
(280.251,124,o),
(216,210.847,o),
(216,352.961,cs),
(216,496.061,o),
(276.297,576,o),
(385.029,576,cs),
(495.738,576,o),
(559,491.127,o),
(559,346.052,cs),
(559,202.952,o),
(498.703,124,o),
(388.983,124,cs)
);
}
);
width = 775;
},
{
anchors = (
{
name = bottom;
pos = (388,-20);
},
{
name = ogonek;
pos = (514,-1);
},
{
name = top;
pos = (388,719);
}
);
layerId = "C7381861-8087-459F-9A66-D6EC096294DF";
shapes = (
{
closed = 1;
nodes = (
(583,-20,o),
(722,107,o),
(722,350,cs,{
name = dv06;
}),
(722,575,o),
(596,720,o),
(388,720,cs,{
name = dv04;
}),
(188,720,o),
(53,586,o),
(53,350,cs),
(53,109,o),
(192,-20,o),
(387,-20,cs,{
name = dv01;
})
);
},
{
closed = 1;
nodes = (
(663.32,-40,l),
(596.744,-40,o),
(577.947,13.147,o),
(558.131,69.177,cs),
(536.041,131.633,o),
(512.685,197.671,o),
(420.472,197.671,cs),
(338.759,197.671,o),
(294.081,140.743,o),
(266.32,85,c),
(273.32,81,l),
(298.144,134.078,o),
(337.495,165.671,o),
(373.595,165.671,cs),
(422.369,165.671,o),
(439.452,117.025,o),
(459.518,59.882,cs),
(488.079,-21.452,o),
(522.685,-120,o),
(663.32,-120,c)
);
},
{
closed = 1;
nodes = (
(233.916,60,o),
(147,158.541,o),
(147,349.512,cs),
(147,531.827,o),
(233.916,640,o),
(384.043,640,cs,{
name = dv03;
}),
(546.023,640,o),
(628,543.671,o),
(628,350.003,cs,{
name = dv05;
}),
(628,170.384,o),
(539.109,60,o),
(389.969,60,cs,{
name = dv02;
})
);
}
);
width = 775;
},
{
anchors = (
{
name = bottom;
pos = (388,-20);
},
{
name = ogonek;
pos = (513,-1);
},
{
name = top;
pos = (388,719);
}
);
layerId = "B3C53035-7890-4C98-85EB-10A7AE0A8F58";
shapes = (
{
closed = 1;
nodes = (
(577,-20,o),
(712,110,o),
(712,350,cs,{
name = dv06;
}),
(712,578,o),
(590,720,o),
(389,720,cs,{
name = dv04;
}),
(194,720,o),
(63,587,o),
(63,350,cs),
(63,110,o),
(198,-20,o),
(388,-20,cs,{
name = dv01;
})
);
},
{
closed = 1;
nodes = (
(654.061,-45,l),
(583.426,-45,o),
(561.623,12.75,o),
(539.453,71.474,cs),
(516.52,132.216,o),
(493.194,194,o),
(415.029,194,cs),
(318.75,194,o),
(276.167,109.075,o),
(253.518,62.075,c),
(260.518,58.075,l),
(280.193,100.075,o),
(317.497,162,o),
(378.243,162,cs),
(438.49,162,o),
(455.714,109.638,o),
(475.048,50.862,cs),
(499.779,-24.322,o),
(527.962,-110,o),
(654.061,-110,c)
);
},
{
closed = 1;
nodes = (
(221,35,o),
(124,146,o),
(124,350,cs),
(124,548,o),
(220,665,o),
(386,665,cs,{
name = dv03;
}),
(558,665,o),
(651,554,o),
(651,350,cs,{
name = dv05;
}),
(651,153,o),
(550,35,o),
(390,35,cs,{
name = dv02;
})
);
}
);
width = 775;
}
);
},
{
color = 6;
glyphname = J.ss07;
kernLeft = J;
kernRight = J1;
lastChange = "2024-07-10 12:37:15 +0000";
layers = (
{
anchors = (
{
name = bottom;
pos = (152,-109);
},
{
name = top;
pos = (235,719);
}
);
layerId = "80F95D5A-7464-498F-9BB9-FC89FE1B12C4";
shapes = (
{
closed = 1;
nodes = (
(10,-144,l),
(245,-144,o),
(330,-61,o),
(330,168,cs),
(329.5,700,l),
(139.5,700,l),
(139.5,154,ls),
(139.5,17,o),
(99,-4,o),
(10,-4,c)
);
}
);
width = 380;
},
{
anchors = (
{
name = bottom;
pos = (162,-71);
},
{
name = top;
pos = (262,719);
}
);
layerId = "C7381861-8087-459F-9A66-D6EC096294DF";
shapes = (
{
closed = 1;
nodes = (
(10,-134,l),
(224,-134,o),
(301,-57,o),
(301,155,cs),
(301,700,l),
(211,700,l),
(211,112,ls),
(211,-16,o),
(155,-54,o),
(10,-54,c)
);
}
);
width = 380;
},
{
anchors = (
{
name = bottom;
pos = (164,-69);
},
{
name = top;
pos = (264,719);
}
);
layerId = "B3C53035-7890-4C98-85EB-10A7AE0A8F58";
shapes = (
{
closed = 1;
nodes = (
(10,-124,l),
(217,-124,o),
(291,-48,o),
(291,162,cs),
(291,700,l),
(231,700,l),
(231,162,ls),
(231,-22,o),
(180,-70,o),
(10,-70,c)
);
}
);
width = 380;
}
);
},
{
color = 6;
glyphname = Eng.ss07;
kernLeft = B;
kernRight = H;
lastChange = "2024-07-10 12:37:15 +0000";
layers = (
{
anchors = (
{
name = bottom;
pos = (348,-214);
},
{
name = top;
pos = (366,719);
}
);
layerId = "80F95D5A-7464-498F-9BB9-FC89FE1B12C4";
shapes = (
{
closed = 1;
nodes = (
(58,0,l),
(248,0,l),
(248,379,l),
(494,0,l),
(673.75,134.045,l),
(674,700,l),
(484,700,l),
(484,321,l),
(238,700,l),
(58,700,l)
);
},
{
closed = 1;
nodes = (
(354,-224,l),
(589,-224,o),
(674.215,-141,o),
(674,88,cs),
(673.5,620,l),
(483.75,620,l),
(483.75,74,ls),
(483.75,-63,o),
(443,-84,o),
(354,-84,c)
);
}
);
width = 732;
},
{
anchors = (
{
name = bottom;
pos = (373,-236);
},
{
name = top;
pos = (366,719);
}
);
layerId = "C7381861-8087-459F-9A66-D6EC096294DF";
shapes = (
{
closed = 1;
nodes = (
(87,0,l),
(177,0,l,{
name = ab01;
}),
(177,554,l,{
name = iv01;
}),
(565,0,l,{
name = ab02;
}),
(645,107.677,l),
(645,700,l,{
name = at01;
}),
(555,700,l),
(555,146,l,{
name = iv02;
}),
(167,700,l,{
name = at02;
}),
(87,700,l)
);
},
{
closed = 1;
nodes = (
(353.5,-235,l),
(567.5,-235,o),
(644.5,-158,o),
(644.5,54,cs),
(644.5,599,l),
(554.5,599,l),
(554.5,11,ls),
(554.5,-117,o),
(498.5,-155,o),
(353.5,-155,c)
);
}
);
width = 732;
},
{
anchors = (
{
name = bottom;
pos = (380,-221);
},
{
name = top;
pos = (366,719);
}
);
layerId = "B3C53035-7890-4C98-85EB-10A7AE0A8F58";
shapes = (
{
closed = 1;
nodes = (
(97,0,l),
(157,0,l,{
name = ab01;
}),
(157,589,l,{
name = iv01;
}),
(585,0,l,{
name = ab02;
}),
(635,211.197,l),
(635,700,l,{
name = at01;
}),
(575,700,l),
(575,111,l,{
name = iv02;
}),
(147,700,l,{
name = at02;
}),
(97,700,l)
);
},
{
closed = 1;
nodes = (
(353.5,-221,l),
(560.5,-221,o),
(634.5,-145,o),
(634.5,65,cs),
(634.5,603,l),
(574.5,603,l),
(574.5,65,ls),
(574.5,-119,o),
(523.5,-167,o),
(353.5,-167,c)
);
}
);
width = 732;
}
);
},
{
color = 6;
glyphname = R.ss08;
kernLeft = B;
kernRight = R;
lastChange = "2024-07-10 12:38:09 +0000";
layers = (
{
anchors = (
{
name = bottom;
pos = (323,-20);
},
{
name = top;
pos = (323,719);
}
);
layerId = "80F95D5A-7464-498F-9BB9-FC89FE1B12C4";
shapes = (
{
closed = 1;
nodes = (
(248,0,l),
(248,244,l),
(333,244,ls),
(491,244,o),
(592,334,o),
(592,474,cs),
(592,618,o),
(501,700,o),
(340,700,cs),
(58,700,l),
(58,0,l)
);
},
{
closed = 1;
nodes = (
(608,0,l),
(580,66,o),
(598,171,o),
(573,222,cs),
(548,273,o),
(506,287,o),
(410,313,c),
(265,244,l),
(318,242,o),
(369.067,232.028,o),
(390,183,cs),
(407.067,143.028,o),
(390,70,o),
(415,0,c)
);
},
{
closed = 1;
nodes = (
(248,560,l),
(291,560,ls),
(366,560,o),
(401,534,o),
(401,472,cs),
(401,410,o),
(369,384,o),
(291,384,cs),
(248,384,l)
);
}
);
width = 635;
},
{
anchors = (
{
name = bottom;
pos = (323,-20);
},
{
name = top;
pos = (323,719);
}
);
layerId = "C7381861-8087-459F-9A66-D6EC096294DF";
shapes = (
{
closed = 1;
nodes = (
(178,0,l),
(178,254,l),
(310,254,ls),
(461,254,o),
(556,341,o),
(556,479,cs),
(556,611,o),
(465,700,o),
(330,700,cs),
(88,700,l),
(88,0,l)
);
},
{
closed = 1;
nodes = (
(570,0,l),
(540,66,o),
(560,171,o),
(535,222,cs),
(510,273,o),
(468,287,o),
(372,313,c),
(318,254,l),
(393,254,o),
(433,239,o),
(454,190,cs),
(471,150,o),
(454,70,o),
(479,0,c)
);
},
{
closed = 1;
nodes = (
(178,620,l),
(300,620,ls),
(412,620,o),
(465,579,o),
(465,480,cs),
(465,381,o),
(415,334,o),
(300,334,cs),
(178,334,l)
);
}
);
width = 635;
},
{
anchors = (
{
name = bottom;
pos = (323,-20);
},
{
name = top;
pos = (323,719);
}
);
layerId = "B3C53035-7890-4C98-85EB-10A7AE0A8F58";
shapes = (
{
closed = 1;
nodes = (
(158,0,l),
(158,264,l),
(295,264,l),
(456,282,o),
(546,345,o),
(546,481,cs),
(546,613,o),
(462,700,o),
(330,700,cs),
(98,700,l),
(98,0,l)
);
},
{
closed = 1;
nodes = (
(560,0,l),
(523,67,o),
(550,171,o),
(519,235,cs),
(500,273,o),
(462,299,o),
(361,299,c),
(285,264,l),
(403,264,o),
(448,263,o),
(466,223,cs),
(491,170,o),
(462,67,o),
(499,0,c)
);
},
{
closed = 1;
nodes = (
(158,646,l),
(316,646,ls),
(428,646,o),
(485,592,o),
(485,482,cs),
(485,372,o),
(428,318,o),
(316,318,cs),
(158,318,l)
);
}
);
width = 635;
}
);
},
{
color = 6;
glyphname = C.ss09;
kernLeft = C1;
kernRight = C;
lastChange = "2024-07-10 12:37:15 +0000";
layers = (
{
anchors = (
{
name = bottom;
pos = (397,-19);
},
{
name = top;
pos = (377,719);
}
);
layerId = "80F95D5A-7464-498F-9BB9-FC89FE1B12C4";
shapes = (
{
closed = 1;
nodes = (
(524,261,l),
(502,171.936,o),
(451.62,123,o),
(378.43,123,cs),
(279.58,123,o),
(214,216.958,o),
(214,355.428,cs),
(214,493.899,o),
(279.49,576,o),
(383.89,576,cs),
(450.88,576,o),
(498.91,539.707,o),
(516.97,475,c),
(708.06,475,l),
(675.87,628.29,o),
(562.65,720,o),
(381.56,720,cs),
(169.55,720,o),
(23,565,o),
(23,357,cs),
(23,146,o),
(173.57,-20,o),
(383.79,-20,cs),
(565.66,-20,o),
(683,93,o),
(715,261,c)
);
}
);
width = 740;
},
{
anchors = (
{
name = bottom;
pos = (397,-19);
},
{
name = top;
pos = (377,719);
}
);
layerId = "C7381861-8087-459F-9A66-D6EC096294DF";
shapes = (
{
closed = 1;
nodes = (
(595,261,l),
(579,130,o),
(491.02,60,o),
(378.88,60,cs),
(239.67,60,o),
(143,181,o),
(143,354,cs),
(143,524,o),
(235.6,640,o),
(371.61,640,cs),
(470.28,640,o),
(557.62,590.22,o),
(588.11,474.99,c),
(677.91,475,l),
(643.33,633.35,o),
(531.8,720,o),
(381.44,720,cs),
(186.52,720,o),
(53,572,o),
(53,355,cs),
(53,135,o),
(188.6,-20,o),
(381.76,-20,cs),
(537.85,-20,o),
(651,69,o),
(685,261,c)
);
}
);
width = 740;
},
{
anchors = (
{
name = bottom;
pos = (397,-19);
},
{
name = top;
pos = (377,719);
}
);
layerId = "B3C53035-7890-4C98-85EB-10A7AE0A8F58";
shapes = (
{
closed = 1;
nodes = (
(620,261,l),
(600,120,o),
(511.84,35,o),
(385.49,35,cs),
(228.78,35,o),
(123,164,o),
(123,354,cs),
(123,541,o),
(224.72,665,o),
(379.26,665,cs),
(491.89,665,o),
(574.54,598.4,o),
(613.27,475,c),
(672.83,475,l),
(629.26,634.41,o),
(528.83,720,o),
(383.3,720,cs),
(192.69,720,o),
(63,572,o),
(63,355,cs),
(63,135,o),
(195.73,-20,o),
(384.51,-20,cs),
(539.86,-20,o),
(649,84,o),
(680,261,c)
);
}
);
width = 740;
}
);
},
{
color = 6;
glyphname = Ccedilla.ss09;
kernLeft = C1;
kernRight = C;
lastChange = "2024-07-10 12:37:15 +0000";
layers = (
{
anchors = (
{
name = bottom;
pos = (377,-217);
},
{
name = top;
pos = (377,719);
}
);
layerId = "80F95D5A-7464-498F-9BB9-FC89FE1B12C4";
shapes = (
{
closed = 1;
nodes = (
(524,261,l),
(502,170,o),
(451.62,120,o),
(378.43,120,cs),
(279.58,120,o),
(214,215.41,o),
(214,356.02,cs),
(214,496.63,o),
(279.49,580,o),
(383.89,580,cs),
(450.88,580,o),
(498.91,542.27,o),
(516.97,475,c),
(708.06,475,l),
(675.87,628.29,o),
(562.65,720,o),
(381.56,720,cs),
(169.55,720,o),
(23,565,o),
(23,357,cs),
(23,146,o),
(173.57,-20,o),
(383.79,-20,cs),
(565.66,-20,o),
(683,93,o),
(715,261,c)
);
},
{
closed = 1;
nodes = (
(245,-204,l),
(267,-210,o),
(300,-217,o),
(353,-217,cs),
(456,-217,o),
(505,-190,o),
(505,-133,cs),
(505,-86,o),
(472,-63,o),
(404,-63,c),
(451.423,21.41,l),
(349.423,21.41,l),
(281,-108,l),
(297,-106,o),
(322,-104,o),
(339,-104,cs),
(369,-104,o),
(385,-110,o),
(385,-132,cs),
(385,-150,o),
(374,-163,o),
(337,-163,cs),
(316,-163,o),
(287,-159,o),
(271,-153,c)
);
}
);
width = 740;
},
{
anchors = (
{
name = bottom;
pos = (377,-217);
},
{
name = top;
pos = (377,719);
}
);
layerId = "C7381861-8087-459F-9A66-D6EC096294DF";
shapes = (
{
closed = 1;
nodes = (
(595,261,l),
(579,130,o),
(491.02,60,o),
(378.88,60,cs),
(239.67,60,o),
(143,181,o),
(143,354,cs),
(143,524,o),
(235.6,640,o),
(371.61,640,cs),
(470.28,640,o),
(557.62,590.22,o),
(588.11,474.99,c),
(677.91,475,l),
(643.33,633.35,o),
(531.8,720,o),
(381.44,720,cs),
(186.52,720,o),
(53,572,o),
(53,355,cs),
(53,135,o),
(188.6,-20,o),
(381.76,-20,cs),
(537.85,-20,o),
(651,69,o),
(685,261,c)
);
},
{
closed = 1;
nodes = (
(281,-204,l),
(302,-210,o),
(326,-217,o),
(365,-217,cs),
(445,-217,o),
(491,-188,o),
(491,-136,cs),
(491,-89,o),
(454,-63,o),
(395,-63,c),
(439.74,15.895,l),
(382.74,15.895,l),
(328,-85,l),
(343,-83,o),
(354,-81,o),
(367,-81,cs),
(402,-81,o),
(423,-96,o),
(423,-131,cs),
(423,-165,o),
(404,-181,o),
(362,-181,cs),
(339,-181,o),
(317,-176,o),
(300,-170,c)
);
}
);
width = 740;
},
{
anchors = (
{
name = bottom;
pos = (377,-217);
},
{
name = top;
pos = (377,719);
}
);
layerId = "B3C53035-7890-4C98-85EB-10A7AE0A8F58";
shapes = (
{
closed = 1;
nodes = (
(620,261,l),
(600,120,o),
(511.84,35,o),
(385.49,35,cs),
(228.78,35,o),
(123,164,o),
(123,354,cs),
(123,541,o),
(224.72,665,o),
(379.26,665,cs),
(491.89,665,o),
(574.54,598.4,o),
(613.27,475,c),
(672.83,475,l),
(629.26,634.41,o),
(528.83,720,o),
(383.3,720,cs),
(192.69,720,o),
(63,572,o),
(63,355,cs),
(63,135,o),
(195.73,-20,o),
(384.51,-20,cs),
(539.86,-20,o),
(649,84,o),
(680,261,c)
);
},
{
closed = 1;
nodes = (
(286,-204,l),
(306,-210,o),
(329,-217,o),
(367,-217,cs),
(445,-217,o),
(486,-187,o),
(486,-139,cs),
(486,-91,o),
(446,-63,o),
(388,-63,c),
(428.194,13.137,l),
(383.194,13.137,l),
(333,-81,l),
(345,-78,o),
(355,-77,o),
(365,-77,cs),
(410,-77,o),
(434,-97,o),
(434,-131,cs),
(434,-165,o),
(409,-187,o),
(364,-187,cs),
(343,-187,o),
(319,-182,o),
(301,-176,c)
);
}
);
width = 740;
}
);
},
{
color = 6;
glyphname = Schwa.ss09;
kernLeft = C1;
kernRight = C;
lastChange = "2024-07-10 12:37:15 +0000";
layers = (
{
anchors = (
{
name = bottom;
pos = (380,-20);
},
{
name = top;
pos = (380,719);
}
);
layerId = "80F95D5A-7464-498F-9BB9-FC89FE1B12C4";
shapes = (
{
closed = 1;
nodes = (
(30,417,l),
(26,402,o),
(23,376,o),
(23,358,cs),
(23,125,o),
(160,-20,o),
(380,-20,cs),
(586,-20,o),
(736,111,o),
(736,350,cs),
(736,582,o),
(584,720,o),
(383,720,cs),
(206,720,o),
(77,623,o),
(45,485,c),
(236,485,l),
(254,535.768,o),
(297,576,o),
(379,576,cs),
(493,576,o),
(546,502.821,o),
(546,349.513,cs),
(546,194.227,o),
(493,123,o),
(382,123,cs),
(284,123,o),
(229,177.969,o),
(219,281,c),
(555,281,l),
(556,417,l)
);
}
);
width = 759;
},
{
anchors = (
{
name = bottom;
pos = (380,-20);
},
{
name = top;
pos = (380,719);
}
);
layerId = "C7381861-8087-459F-9A66-D6EC096294DF";
shapes = (
{
closed = 1;
nodes = (
(57,398,l,{
name = sh04;
}),
(55.25,383,o),
(53.5,362,o),
(53.5,347,cs,{
name = sh01;
}),
(53.5,125,o),
(183.5,-20,o),
(380.5,-20,cs,{
name = dv01;
}),
(577.5,-20,o),
(705.5,121,o),
(705.5,350,cs,{
name = sh03;
}),
(705.5,573,o),
(592.411,720,o),
(385.248,720,cs,{
name = dv04;
}),
(214.114,720,o),
(118.038,637,o),
(69,485,c),
(159,485,l),
(191.964,584,o),
(273.874,640,o),
(381.757,640,cs,{
name = dv03;
}),
(541.582,640,o),
(615.5,540.829,o),
(615.5,349.499,cs),
(615.5,167.185,o),
(528.5,60,o),
(381.5,60,cs,{
name = dv02;
}),
(242.5,60,o),
(143.5,158,o),
(143.5,323,c,{
name = sh02;
}),
(629,323,l,{
name = dv05;
}),
(628,398,l,{
name = dv06;
})
);
}
);
width = 759;
},
{
anchors = (
{
name = bottom;
pos = (380,-20);
},
{
name = top;
pos = (380,719);
}
);
layerId = "B3C53035-7890-4C98-85EB-10A7AE0A8F58";
shapes = (
{
closed = 1;
nodes = (
(67,382,l,{
name = sh04;
}),
(65,367,o),
(63,362,o),
(63,347,cs,{
name = sh01;
}),
(63,125,o),
(189,-20,o),
(380,-20,cs,{
name = dv01;
}),
(571,-20,o),
(696,121,o),
(696,350,cs,{
name = sh03;
}),
(696,573,o),
(586,720,o),
(385,720,cs,{
name = dv04;
}),
(220,720,o),
(127,637,o),
(79,485,c),
(140,485,l),
(175,604,o),
(265,665,o),
(381,665,cs,{
name = dv03;
}),
(552,665,o),
(635,561,o),
(635,350,cs),
(635,153,o),
(539,35,o),
(380,35,cs,{
name = dv02;
}),
(232,35,o),
(124,144,o),
(124,331,c,{
name = sh02;
}),
(659,331,l,{
name = dv05;
}),
(658,382,l,{
name = dv06;
})
);
}
);
width = 759;
}
);
},
{
color = 6;
glyphname = G.ss09;
kernLeft = C1;
kernRight = G;
lastChange = "2024-07-10 12:37:15 +0000";
layers = (
{
anchors = (
{
name = bottom;
pos = (380,-19);
},
{
name = top;
pos = (380,719);
}
);
layerId = "80F95D5A-7464-498F-9BB9-FC89FE1B12C4";
shapes = (
{
closed = 1;
nodes = (
(320,251,l),
(574,251,l),
(614,248,l),
(676,0,l),
(737,0,l),
(737,381,l),
(320,381,l)
);
},
{
closed = 1;
nodes = (
(542,328,l),
(542,220.483,o),
(494,120,o),
(383,120,cs),
(287,120,o),
(214,196.332,o),
(214,354.017,cs),
(214,497.642,o),
(275,580,o),
(391,580,cs),
(463,580,o),
(509,548,o),
(526,485,c),
(717,485,l),
(687,623,o),
(556,720,o),
(389,720,cs),
(176,720,o),
(23,563,o),
(23,350,cs),
(23,128,o),
(157,-20,o),
(358,-20,cs),
(501,-20,o),
(608,75,o),
(641,236,c)
);
}
);
width = 780;
},
{
anchors = (
{
name = bottom;
pos = (380,-19);
},
{
name = top;
pos = (380,719);
}
);
layerId = "C7381861-8087-459F-9A66-D6EC096294DF";
shapes = (
{
closed = 1;
nodes = (
(315,271,l,{
name = dv05;
}),
(601,271,l,{
name = dv07;
}),
(623,252,l,{
name = dv08;
}),
(686,0,l,{
name = dv15;
}),
(707,0,l,{
name = dv14;
}),
(707,351,l,{
name = iv02;
}),
(315,351,l,{
name = dv06;
})
);
},
{
closed = 1;
nodes = (
(607,324,l,{
name = iv01;
}),
(603,189.49,o),
(525,60,o),
(377,60,cs,{
name = dv02;
}),
(244,60,o),
(143,164.18,o),
(143,349.499,cs,{
name = dv12;
}),
(143,527.807,o),
(243,640,o),
(382,640,cs,{
name = dv03;
}),
(485,640,o),
(570,584,o),
(600,485,c),
(690,485,l),
(643,640,o),
(539,720,o),
(391,720,cs,{
name = dv04;
}),
(187,720,o),
(53,569,o),
(53,351,cs,{
name = dv11;
}),
(53,128.4,o),
(179,-20,o),
(368,-20,cs,{
name = dv01;
}),
(512,-20,o),
(612,82,o),
(631,243,c,{
name = dv10;
})
);
}
);
width = 780;
},
{
anchors = (
{
name = bottom;
pos = (380,-19);
},
{
name = top;
pos = (380,719);
}
);
layerId = "B3C53035-7890-4C98-85EB-10A7AE0A8F58";
shapes = (
{
closed = 1;
nodes = (
(315,292,l,{
name = dv05;
}),
(613,292,l,{
name = dv07;
}),
(617.94,272.24,l),
(686,0,l,{
name = dv15;
}),
(697,0,l,{
name = dv14;
}),
(697,342,l,{
name = iv02;
}),
(315,342,l,{
name = dv06;
})
);
},
{
closed = 1;
nodes = (
(607,324,l,{
name = iv01;
}),
(603,164,o),
(511,35,o),
(362,35,cs,{
name = dv02;
}),
(232,35,o),
(123,139,o),
(123,343,cs,{
name = dv12;
}),
(123,553,o),
(235,665,o),
(388,665,cs,{
name = dv03;
}),
(507,665,o),
(588,598,o),
(620,485,c),
(680,485,l),
(634,640,o),
(535,720,o),
(389,720,cs,{
name = dv04;
}),
(189,720,o),
(63,569,o),
(63,348,cs,{
name = dv11;
}),
(63,127.2,o),
(184.6,-20,o),
(367,-20,cs,{
name = dv01;
}),
(504,-20,o),
(603,72,o),
(627,251,c,{
name = dv10;
})
);
}
);
width = 780;
}
);
},
{
color = 6;
glyphname = J.ss09;
kernLeft = J;
kernRight = J1;
lastChange = "2024-07-10 12:37:15 +0000";
layers = (
{
anchors = (
{
name = bottom;
pos = (279,-20);
},
{
name = top;
pos = (430,719);
}
);
layerId = "80F95D5A-7464-498F-9BB9-FC89FE1B12C4";
shapes = (
{
closed = 1;
nodes = (
(30,195,l),
(55,55,o),
(131,-20,o),
(280,-20,cs),
(447,-20,o),
(524,75,o),
(524,252,cs),
(524,700,l),
(334,700,l),
(334,251.226,ls),
(334,147.047,o),
(313,120,o),
(278,120,cs),
(243,120,o),
(227,147,o),
(220,195,c)
);
}
);
width = 584;
},
{
anchors = (
{
name = bottom;
pos = (277,-20);
},
{
name = top;
pos = (456,719);
}
);
layerId = "C7381861-8087-459F-9A66-D6EC096294DF";
shapes = (
{
closed = 1;
nodes = (
(50,195,l),
(70,52,o),
(138,-20,o),
(271,-20,cs),
(423,-20,o),
(495,75,o),
(495,252,cs),
(495,700,l),
(405,700,l),
(405,239.28,ls),
(405,115.086,o),
(355,60,o),
(269,60,cs),
(193,60,o),
(147,102.313,o),
(140,195,c)
);
}
);
width = 584;
},
{
anchors = (
{
name = bottom;
pos = (279,-20);
},
{
name = top;
pos = (458,719);
}
);
layerId = "B3C53035-7890-4C98-85EB-10A7AE0A8F58";
shapes = (
{
closed = 1;
nodes = (
(60,195,l),
(84,45,o),
(142,-20,o),
(273,-20,cs),
(407,-20,o),
(485,55,o),
(485,232,cs),
(485,700,l),
(425,700,l),
(425,231,ls),
(425,96,o),
(373,35,o),
(273,35,cs),
(181,35,o),
(133,82,o),
(120,195,c)
);
}
);
width = 584;
}
);
},
{
color = 6;
glyphname = Eng.ss09;
kernLeft = B;
kernRight = H;
lastChange = "2024-07-10 12:37:15 +0000";
layers = (
{
anchors = (
{
name = bottom;
pos = (406,-209);
},
{
name = top;
pos = (366,719);
}
);
layerId = "80F95D5A-7464-498F-9BB9-FC89FE1B12C4";
shapes = (
{
closed = 1;
nodes = (
(58,0,l),
(248,0,l),
(248,379,l),
(494,0,l),
(674,120.876,l),
(674,700,l),
(484,700,l),
(484,321,l),
(238,700,l),
(58,700,l)
);
},
{
closed = 1;
nodes = (
(200,-16,l),
(225,-156,o),
(297.759,-231,o),
(440.405,-231,cs),
(600.284,-231,o),
(674,-136,o),
(674,41,cs),
(674,489,l),
(484,489,l),
(484,40.226,ls),
(484,-63.953,o),
(466.925,-91,o),
(438.467,-91,cs),
(410.009,-91,o),
(397,-64,o),
(390,-16,c)
);
}
);
width = 732;
},
{
anchors = (
{
name = bottom;
pos = (384,-173);
},
{
name = top;
pos = (366,719);
}
);
layerId = "C7381861-8087-459F-9A66-D6EC096294DF";
shapes = (
{
closed = 1;
nodes = (
(87,0,l),
(177,0,l,{
name = ab01;
}),
(177,554,l,{
name = iv01;
}),
(565,0,l,{
name = ab02;
}),
(645,117.117,l),
(645,700,l,{
name = at01;
}),
(555,700,l),
(555,146,l,{
name = iv02;
}),
(167,700,l,{
name = at02;
}),
(87,700,l)
);
},
{
closed = 1;
nodes = (
(219.5,-9,l),
(239.5,-152,o),
(304.3,-221,o),
(431.041,-221,cs),
(575.888,-221,o),
(644.5,-126,o),
(644.5,51,cs),
(644.5,499,l),
(554.5,499,l),
(554.5,38.28,ls),
(554.5,-85.914,o),
(508.376,-141,o),
(429.043,-141,cs),
(358.934,-141,o),
(316.5,-101.687,o),
(309.5,-9,c)
);
}
);
width = 732;
},
{
anchors = (
{
name = bottom;
pos = (373,-218);
},
{
name = top;
pos = (366,719);
}
);
layerId = "B3C53035-7890-4C98-85EB-10A7AE0A8F58";
shapes = (
{
closed = 1;
nodes = (
(97,0,l),
(157,0,l,{
name = ab01;
}),
(157,589,l,{
name = iv01;
}),
(585,0,l,{
name = ab02;
}),
(635,108.211,l),
(635,700,l,{
name = at01;
}),
(575,700,l),
(575,111,l,{
name = iv02;
}),
(147,700,l,{
name = at02;
}),
(97,700,l)
);
},
{
closed = 1;
nodes = (
(210.5,-5,l),
(234.5,-155,o),
(292.5,-220,o),
(423.5,-220,cs),
(557.5,-220,o),
(634.5,-145,o),
(634.5,32,cs),
(634.5,500,l),
(575.5,500,l),
(575.5,31,ls),
(575.5,-104,o),
(523.5,-165,o),
(423.5,-165,cs),
(331.5,-165,o),
(283.5,-118,o),
(270.5,-5,c)
);
}
);
width = 732;
}
);
},
{
color = 6;
glyphname = S.ss09;
kernLeft = S1;
kernRight = S;
lastChange = "2024-07-10 12:37:15 +0000";
layers = (
{
anchors = (
{
name = bottom;
pos = (294,-20);
},
{
name = top;
pos = (279,719);
}
);
layerId = "80F95D5A-7464-498F-9BB9-FC89FE1B12C4";
shapes = (
{
closed = 1;
nodes = (
(26,198,l),
(48.084,73,o),
(128.389,-20,o),
(296.025,-20,cs),
(460.65,-20,o),
(553,70.15,o),
(553,202.371,cs),
(553,343.41,o),
(441.623,383.737,o),
(348.475,417.464,cs),
(281.53,441.703,o),
(224,462.534,o),
(224,514.891,cs),
(224,553.957,o),
(245,580,o),
(281,580,cs),
(319,580,o),
(337,550,o),
(347,502,c),
(538,502,l),
(516,627,o),
(439,720,o),
(279,720,cs),
(121,720,o),
(34,629.85,o),
(34,507.646,cs),
(34,359.538,o),
(147.268,317.299,o),
(240.883,282.389,cs),
(306.816,257.802,o),
(363,236.851,o),
(363,185.109,cs),
(363,146.043,o),
(336.641,120,o),
(294.062,120,cs),
(248.441,120,o),
(227.152,150,o),
(216,198,c)
);
}
);
width = 590;
},
{
anchors = (
{
name = bottom;
pos = (295,-20);
},
{
name = top;
pos = (280,719);
}
);
layerId = "C7381861-8087-459F-9A66-D6EC096294DF";
shapes = (
{
closed = 1;
nodes = (
(48,197,l),
(72,66,o),
(151,-21,o),
(300,-21,cs),
(441,-21,o),
(531,56.117,o),
(531,181.306,cs),
(531,330.82,o),
(419.602,361.389,o),
(317.755,389.337,cs),
(231.991,412.872,o),
(153,434.548,o),
(153,523.824,cs),
(153,603.945,o),
(197,640,o),
(281,640,cs),
(366,640,o),
(414,595.679,o),
(428,502,c),
(518,502,l),
(495,633,o),
(420,720,o),
(279,720,cs),
(143,720,o),
(63,637.876,o),
(63,521.7,cs),
(63,372.708,o),
(173.622,343.004,o),
(275.179,315.734,cs),
(361.352,292.595,o),
(441,271.209,o),
(441,180.183,cs),
(441,98.059,o),
(391,59,o),
(302,59,cs),
(205,59,o),
(152,105.336,o),
(138,197,c)
);
}
);
width = 590;
},
{
anchors = (
{
name = bottom;
pos = (295,-20);
},
{
name = top;
pos = (280,719);
}
);
layerId = "B3C53035-7890-4C98-85EB-10A7AE0A8F58";
shapes = (
{
closed = 1;
nodes = (
(59,197,l),
(83,66,o),
(158,-21,o),
(299,-21,cs),
(436,-21,o),
(521,56,o),
(521,173,cs),
(521,306.147,o),
(413.815,338.757,o),
(312.262,369.652,cs),
(220.849,397.463,o),
(134,423.886,o),
(134,521,cs),
(134,603,o),
(181,665,o),
(277,665,cs),
(379,665,o),
(433,605,o),
(448,502,c),
(508,502,l),
(486,633,o),
(415,720,o),
(281,720,cs),
(150,720,o),
(74,638,o),
(74,526,cs),
(74,389.629,o),
(183.819,355.415,o),
(286.455,323.438,cs),
(376.491,295.387,o),
(461,269.058,o),
(461,177,cs),
(461,72,o),
(392,34,o),
(298,34,cs),
(199,34,o),
(135,90,o),
(119,197,c)
);
}
);
width = 590;
}
);
},
{
color = 6;
glyphname = Scedilla.ss09;
kernLeft = S1;
kernRight = S;
lastChange = "2024-07-10 12:37:15 +0000";
layers = (
{
anchors = (
{
name = bottom;
pos = (274,-218);
},
{
name = top;
pos = (279,719);
}
);
layerId = "80F95D5A-7464-498F-9BB9-FC89FE1B12C4";
shapes = (
{
closed = 1;
nodes = (
(26,198,l),
(48.084,73,o),
(128.389,-20,o),
(296.025,-20,cs),
(460.65,-20,o),
(553,70.15,o),
(553,202.371,cs),
(553,343.41,o),
(441.623,383.737,o),
(348.475,417.464,cs),
(281.53,441.703,o),
(224,462.534,o),
(224,514.891,cs),
(224,553.957,o),
(245,580,o),
(281,580,cs),
(319,580,o),
(337,550,o),
(347,502,c),
(538,502,l),
(516,627,o),
(439,720,o),
(279,720,cs),
(121,720,o),
(34,629.85,o),
(34,507.646,cs),
(34,359.538,o),
(147.268,317.299,o),
(240.883,282.389,cs),
(306.816,257.802,o),
(363,236.851,o),
(363,185.109,cs),
(363,146.043,o),
(336.641,120,o),
(294.062,120,cs),
(248.441,120,o),
(227.152,150,o),
(216,198,c)
);
},
{
closed = 1;
nodes = (
(142,-205,l),
(164,-211,o),
(197,-218,o),
(250,-218,cs),
(353,-218,o),
(402,-191,o),
(402,-134,cs),
(402,-87,o),
(369,-64,o),
(301,-64,c),
(348.423,20.41,l),
(246.423,20.41,l),
(178,-109,l),
(194,-107,o),
(219,-105,o),
(236,-105,cs),
(266,-105,o),
(282,-111,o),
(282,-133,cs),
(282,-151,o),
(271,-164,o),
(234,-164,cs),
(213,-164,o),
(184,-160,o),
(168,-154,c)
);
}
);
width = 590;
},
{
anchors = (
{
name = bottom;
pos = (275,-218);
},
{
name = top;
pos = (280,719);
}
);
layerId = "C7381861-8087-459F-9A66-D6EC096294DF";
shapes = (
{
closed = 1;
nodes = (
(48,197,l),
(72,66,o),
(151,-21,o),
(300,-21,cs),
(441,-21,o),
(531,56.117,o),
(531,181.306,cs),
(531,330.82,o),
(419.602,361.389,o),
(317.755,389.337,cs),
(231.991,412.872,o),
(153,434.548,o),
(153,523.824,cs),
(153,603.945,o),
(197,640,o),
(281,640,cs),
(366,640,o),
(414,595.679,o),
(428,502,c),
(518,502,l),
(495,633,o),
(420,720,o),
(279,720,cs),
(143,720,o),
(63,637.876,o),
(63,521.7,cs),
(63,372.708,o),
(173.622,343.004,o),
(275.179,315.734,cs),
(361.352,292.595,o),
(441,271.209,o),
(441,180.183,cs),
(441,98.059,o),
(391,59,o),
(302,59,cs),
(205,59,o),
(152,105.336,o),
(138,197,c)
);
},
{
closed = 1;
nodes = (
(179,-205,l),
(200,-211,o),
(224,-218,o),
(263,-218,cs),
(343,-218,o),
(389,-189,o),
(389,-137,cs),
(389,-90,o),
(352,-64,o),
(293,-64,c),
(337.74,14.895,l),
(280.74,14.895,l),
(226,-86,l),
(241,-84,o),
(252,-82,o),
(265,-82,cs),
(300,-82,o),
(321,-97,o),
(321,-132,cs),
(321,-166,o),
(302,-182,o),
(260,-182,cs),
(237,-182,o),
(215,-177,o),
(198,-171,c)
);
}
);
width = 590;
},
{
anchors = (
{
name = bottom;
pos = (275,-218);
},
{
name = top;
pos = (280,719);
}
);
layerId = "B3C53035-7890-4C98-85EB-10A7AE0A8F58";
shapes = (
{
closed = 1;
nodes = (
(59,197,l),
(83,66,o),
(158,-21,o),
(299,-21,cs),
(436,-21,o),
(521,56,o),
(521,173,cs),
(521,306.147,o),
(413.815,338.757,o),
(312.262,369.652,cs),
(220.849,397.463,o),
(134,423.886,o),
(134,521,cs),
(134,603,o),
(181,665,o),
(277,665,cs),
(379,665,o),
(433,605,o),
(448,502,c),
(508,502,l),
(486,633,o),
(415,720,o),
(281,720,cs),
(150,720,o),
(74,638,o),
(74,526,cs),
(74,389.629,o),
(183.819,355.415,o),
(286.455,323.438,cs),
(376.491,295.387,o),
(461,269.058,o),
(461,177,cs),
(461,72,o),
(392,34,o),
(298,34,cs),
(199,34,o),
(135,90,o),
(119,197,c)
);
},
{
closed = 1;
nodes = (
(184,-205,l),
(204,-211,o),
(227,-218,o),
(265,-218,cs),
(343,-218,o),
(384,-188,o),
(384,-140,cs),
(384,-92,o),
(344,-64,o),
(286,-64,c),
(326.194,12.137,l),
(281.194,12.137,l),
(231,-82,l),
(243,-79,o),
(253,-78,o),
(263,-78,cs),
(308,-78,o),
(332,-98,o),
(332,-132,cs),
(332,-166,o),
(307,-188,o),
(262,-188,cs),
(241,-188,o),
(217,-183,o),
(199,-177,c)
);
}
);
width = 590;
}
);
},
{
color = 6;
glyphname = Germandbls.ss09;
lastChange = "2024-07-10 12:37:15 +0000";
layers = (
{
layerId = "80F95D5A-7464-498F-9BB9-FC89FE1B12C4";
shapes = (
{
closed = 1;
nodes = (
(45,0,l),
(235,0,l),
(235,444,ls),
(235,540,o),
(279.57,579,o),
(336.875,579,cs),
(363.128,579,o),
(402.372,571.349,o),
(408.409,557.941,c),
(443.498,624.633,l),
(378,553,ls),
(321.494,491.201,o),
(303.596,450.172,o),
(303.596,411.341,cs),
(303.596,218,o),
(500,278.42,o),
(500,160,cs),
(500,137,o),
(494.323,123,o),
(477.323,123,cs),
(460.323,123,o),
(451,137,o),
(449,170,c),
(266,170,l),
(273.3,37.151,o),
(340.146,-19,o),
(491,-19,cs),
(607.038,-19,o),
(689,57.167,o),
(689,165,cs),
(689,364.096,o),
(493,346.135,o),
(493,425.416,cs),
(493,451,o),
(509.997,476.867,o),
(530,499,cs),
(683.468,668.81,l),
(650.088,624.633,l),
(599.386,667.298,o),
(499.452,720,o),
(356.142,720,cs),
(164.983,720,o),
(45,634,o),
(45,489,cs)
);
}
);
width = 703;
},
{
layerId = "C7381861-8087-459F-9A66-D6EC096294DF";
shapes = (
{
closed = 1;
nodes = (
(76,0,l),
(166,0,l),
(166,482,ls),
(166,594,o),
(221.198,639,o),
(332.617,639,cs),
(396.361,639,o),
(461.11,619.043,o),
(488.498,605.852,c),
(488.498,624.633,l),
(423,553,ls),
(366.494,491.201,o),
(345.596,450.172,o),
(345.596,411.341,cs),
(345.596,228,o),
(556,287.62,o),
(556,149.2,cs),
(556,89,o),
(522.889,61,o),
(456,61,cs),
(386,61,o),
(348,91,o),
(346,157,c),
(256,157,l),
(271.394,34.871,o),
(336.672,-20,o),
(455,-20,cs),
(574.621,-20,o),
(648,44.331,o),
(648,149.2,cs),
(648,338.296,o),
(441,306.135,o),
(441,418.735,cs),
(441,451,o),
(457.997,476.867,o),
(478,499,cs),
(631.468,668.81,l),
(610.567,636.558,l),
(539.929,680.153,o),
(439.488,720,o),
(322.224,720,cs),
(139.836,720,o),
(76,624,o),
(76,489,cs)
);
}
);
width = 703;
},
{
layerId = "B3C53035-7890-4C98-85EB-10A7AE0A8F58";
shapes = (
{
closed = 1;
nodes = (
(86,0,l),
(146,0,l),
(146,482,ls),
(146,620,o),
(205,665,o),
(327,665,cs),
(416.023,665,o),
(475.58,641.427,o),
(503.113,622.433,c),
(507.48,636.654,l),
(429.159,550.544,ls),
(372.815,488.597,o),
(354,459,o),
(354,411.341,cs),
(354,248,o),
(575,300,o),
(575,141.58,cs),
(575,64,o),
(522,35,o),
(462,35,cs),
(360,35,o),
(326,83,o),
(324,157,c),
(264,157,l),
(271,45,o),
(324,-20,o),
(460,-20,cs),
(573,-20,o),
(636,47,o),
(636,146.055,cs),
(636,332,o),
(414,299.353,o),
(414,408.433,cs),
(414,449,o),
(444.704,486.691,o),
(464.713,508.818,cs),
(590.867,648.326,l),
(599.01,636.337,l),
(528.082,680.018,o),
(439.924,720,o),
(324,720,cs),
(144,720,o),
(86,624,o),
(86,489,c)
);
}
);
width = 703;
}
);
},
{
color = 6;
glyphname = C.ss10;
kernLeft = C1;
kernRight = C;
lastChange = "2024-07-10 12:37:15 +0000";
layers = (
{
anchors = (
{
name = bottom;
pos = (397,-19);
},
{
name = top;
pos = (377,719);
}
);
layerId = "80F95D5A-7464-498F-9BB9-FC89FE1B12C4";
shapes = (
{
closed = 1;
nodes = (
(647,286,l),
(575,165.273,o),
(495,120,o),
(408,120,cs),
(283.2,120,o),
(213,214.41,o),
(213,356.026,cs),
(213,490.611,o),
(275,580,o),
(399,580,cs),
(488,580,o),
(566,534.727,o),
(638,414,c),
(683,578,l),
(618,664,o),
(514,720,o),
(384,720,cs),
(171,720,o),
(23,570,o),
(23,357,cs),
(23,130.8,o),
(171,-20,o),
(393,-20,cs),
(521,-20,o),
(627,36,o),
(692,122,c)
);
}
);
width = 715;
},
{
anchors = (
{
name = bottom;
pos = (397,-19);
},
{
name = top;
pos = (377,719);
}
);
layerId = "C7381861-8087-459F-9A66-D6EC096294DF";
shapes = (
{
closed = 1;
nodes = (
(626,201,l),
(567,105.321,o),
(491,60,o),
(402,60,cs),
(246,60,o),
(143,184.429,o),
(143,353.01,cs),
(143,520.588,o),
(235,640,o),
(391,640,cs),
(480,640,o),
(560,593.671,o),
(617,499,c),
(653,603,l),
(585,680,o),
(495,720,o),
(389,720,cs),
(186,720,o),
(53,573,o),
(53,357,cs),
(53,137,o),
(190,-20,o),
(396,-20,cs),
(499,-20,o),
(592,19,o),
(662,97,c)
);
}
);
width = 715;
},
{
anchors = (
{
name = bottom;
pos = (397,-19);
},
{
name = top;
pos = (377,719);
}
);
layerId = "B3C53035-7890-4C98-85EB-10A7AE0A8F58";
shapes = (
{
closed = 1;
nodes = (
(629,163,l),
(569.205,71.734,o),
(502.625,35,o),
(397,35,cs),
(232,35,o),
(123,162,o),
(123,356,cs),
(123,545,o),
(226,665,o),
(388,665,cs),
(489.781,665,o),
(562.902,624.658,o),
(620,537,c),
(643,603,l),
(575,682,o),
(488,720,o),
(388,720,cs),
(193,720,o),
(63,575,o),
(63,357,cs),
(63,134,o),
(198,-20,o),
(395,-20,cs),
(497,-20,o),
(584,18,o),
(652,97,c)
);
}
);
width = 715;
}
);
},
{
color = 6;
glyphname = Ccedilla.ss10;
kernLeft = C1;
kernRight = C;
lastChange = "2024-07-10 12:37:15 +0000";
layers = (
{
anchors = (
{
name = bottom;
pos = (377,-217);
},
{
name = top;
pos = (377,719);
}
);
layerId = "80F95D5A-7464-498F-9BB9-FC89FE1B12C4";
shapes = (
{
closed = 1;
nodes = (
(647,286,l),
(575,165.273,o),
(495,120,o),
(408,120,cs),
(283.2,120,o),
(213,214.41,o),
(213,356.026,cs),
(213,490.611,o),
(275,580,o),
(399,580,cs),
(488,580,o),
(566,534.727,o),
(638,414,c),
(683,578,l),
(618,664,o),
(514,720,o),
(384,720,cs),
(171,720,o),
(23,570,o),
(23,357,cs),
(23,130.8,o),
(171,-20,o),
(393,-20,cs),
(521,-20,o),
(627,36,o),
(692,122,c)
);
},
{
closed = 1;
nodes = (
(245,-204,l),
(267,-210,o),
(300,-217,o),
(353,-217,cs),
(456,-217,o),
(505,-190,o),
(505,-133,cs),
(505,-86,o),
(472,-63,o),
(404,-63,c),
(451.423,21.41,l),
(349.423,21.41,l),
(281,-108,l),
(297,-106,o),
(322,-104,o),
(339,-104,cs),
(369,-104,o),
(385,-110,o),
(385,-132,cs),
(385,-150,o),
(374,-163,o),
(337,-163,cs),
(316,-163,o),
(287,-159,o),
(271,-153,c)
);
}
);
width = 715;
},
{
anchors = (
{
name = bottom;
pos = (377,-217);
},
{
name = top;
pos = (377,719);
}
);
layerId = "C7381861-8087-459F-9A66-D6EC096294DF";
shapes = (
{
closed = 1;
nodes = (
(626,201,l),
(567,105.321,o),
(491,60,o),
(402,60,cs),
(246,60,o),
(143,184.429,o),
(143,353.01,cs),
(143,520.588,o),
(235,640,o),
(391,640,cs),
(480,640,o),
(560,593.671,o),
(617,499,c),
(653,603,l),
(585,680,o),
(495,720,o),
(389,720,cs),
(186,720,o),
(53,573,o),
(53,357,cs),
(53,137,o),
(190,-20,o),
(396,-20,cs),
(499,-20,o),
(592,19,o),
(662,97,c)
);
},
{
closed = 1;
nodes = (
(281,-204,l),
(302,-210,o),
(326,-217,o),
(365,-217,cs),
(445,-217,o),
(491,-188,o),
(491,-136,cs),
(491,-89,o),
(454,-63,o),
(395,-63,c),
(439.74,15.895,l),
(382.74,15.895,l),
(328,-85,l),
(343,-83,o),
(354,-81,o),
(367,-81,cs),
(402,-81,o),
(423,-96,o),
(423,-131,cs),
(423,-165,o),
(404,-181,o),
(362,-181,cs),
(339,-181,o),
(317,-176,o),
(300,-170,c)
);
}
);
width = 715;
},
{
anchors = (
{
name = bottom;
pos = (377,-217);
},
{
name = top;
pos = (377,719);
}
);
layerId = "B3C53035-7890-4C98-85EB-10A7AE0A8F58";
shapes = (
{
closed = 1;
nodes = (
(629,163,l),
(569.205,71.734,o),
(502.625,35,o),
(397,35,cs),
(232,35,o),
(123,162,o),
(123,356,cs),
(123,545,o),
(226,665,o),
(388,665,cs),
(489.781,665,o),
(562.902,624.658,o),
(620,537,c),
(643,603,l),
(575,682,o),
(488,720,o),
(388,720,cs),
(193,720,o),
(63,575,o),
(63,357,cs),
(63,134,o),
(198,-20,o),
(395,-20,cs),
(497,-20,o),
(584,18,o),
(652,97,c)
);
},
{
closed = 1;
nodes = (
(286,-204,l),
(306,-210,o),
(329,-217,o),
(367,-217,cs),
(445,-217,o),
(486,-187,o),
(486,-139,cs),
(486,-91,o),
(446,-63,o),
(388,-63,c),
(428.194,13.137,l),
(383.194,13.137,l),
(333,-81,l),
(345,-78,o),
(355,-77,o),
(365,-77,cs),
(410,-77,o),
(434,-97,o),
(434,-131,cs),
(434,-165,o),
(409,-187,o),
(364,-187,cs),
(343,-187,o),
(319,-182,o),
(301,-176,c)
);
}
);
width = 715;
}
);
},
{
color = 6;
glyphname = Schwa.ss10;
kernLeft = C1;
kernRight = C;
lastChange = "2024-07-10 12:38:09 +0000";
layers = (
{
anchors = (
{
name = bottom;
pos = (380,-20);
},
{
name = top;
pos = (380,719);
}
);
layerId = "80F95D5A-7464-498F-9BB9-FC89FE1B12C4";
shapes = (
{
closed = 1;
nodes = (
(586,-20,o),
(736,119,o),
(736,358,cs),
(736,590,o),
(585,720,o),
(374,720,cs),
(241,720,o),
(135,664,o),
(68,578,c),
(109.03,428.467,l),
(182.03,549.194,o),
(268,580,o),
(368,580,cs),
(482,580,o),
(546,508.69,o),
(546,353.013,cs),
(546,195.328,o),
(493,120,o),
(382,120,cs),
(284,120,o),
(229,174.34,o),
(219,280,c),
(555,280,l),
(556,417,l),
(30,417,l),
(26,402,o),
(23,376,o),
(23,358,cs),
(23,125,o),
(160,-20,o),
(380,-20,cs)
);
}
);
width = 759;
},
{
anchors = (
{
name = bottom;
pos = (380,-20);
},
{
name = top;
pos = (380,719);
}
);
layerId = "C7381861-8087-459F-9A66-D6EC096294DF";
shapes = (
{
closed = 1;
nodes = (
(577,-20,o),
(706,129,o),
(706,357,cs,{
name = sh03;
}),
(706,581,o),
(582,720,o),
(372,720,cs),
(260,720,o),
(170,680,o),
(102,603,c),
(138,499,l),
(210,618.85,o),
(291,640,o),
(363,640,cs),
(525,640,o),
(616,534.637,o),
(616,348.997,cs),
(616,166.367,o),
(528,60,o),
(380,60,cs,{
name = dv02;
}),
(243,60,o),
(144,152.358,o),
(144,318,c,{
name = sh02;
}),
(641,318,l,{
name = dv05;
}),
(640,398,l,{
name = dv06;
}),
(57,398,l,{
name = sh04;
}),
(55,383,o),
(53,362,o),
(53,337,cs,{
name = sh01;
}),
(53,135,o),
(183,-20,o),
(382,-20,cs,{
name = dv01;
})
);
}
);
width = 759;
},
{
anchors = (
{
name = bottom;
pos = (380,-20);
},
{
name = top;
pos = (380,719);
}
);
layerId = "B3C53035-7890-4C98-85EB-10A7AE0A8F58";
shapes = (
{
closed = 1;
nodes = (
(571,-20,o),
(696,129,o),
(696,356,cs,{
name = sh03;
}),
(696,581,o),
(574,720,o),
(377,720,cs),
(274,720,o),
(187,682,o),
(119,603,c),
(142,537,l),
(213,643,o),
(297,665,o),
(377,665,cs),
(535,665,o),
(636,570,o),
(636,360,cs),
(636,164,o),
(540,35,o),
(379,35,cs,{
name = dv02;
}),
(231,35,o),
(124,145,o),
(124,333,c,{
name = sh02;
}),
(655,333,l,{
name = dv05;
}),
(654,383,l,{
name = dv06;
}),
(67,383,l,{
name = sh04;
}),
(65,373,o),
(63,362,o),
(63,337,cs,{
name = sh01;
}),
(63,135,o),
(189,-20,o),
(382,-20,cs,{
name = dv01;
})
);
}
);
width = 759;
}
);
},
{
color = 6;
glyphname = G.ss10;
kernLeft = C1;
kernRight = G;
lastChange = "2024-07-10 12:37:15 +0000";
layers = (
{
anchors = (
{
name = bottom;
pos = (384,-19);
},
{
name = top;
pos = (384,719);
}
);
layerId = "80F95D5A-7464-498F-9BB9-FC89FE1B12C4";
shapes = (
{
closed = 1;
nodes = (
(353,241,l),
(607,241,l),
(667,0,l),
(727,0,l),
(727,371,l),
(353,371,l)
);
},
{
closed = 1;
nodes = (
(553,344,l),
(553,339.982,o),
(554,327.928,o),
(554,310.852,cs),
(554,189.309,o),
(493,120,o),
(393,120,cs),
(283,120,o),
(214,202.358,o),
(214,351.004,cs),
(214,490.611,o),
(274,580,o),
(398,580,cs),
(487,580,o),
(557,534.727,o),
(634,414,c),
(679,578,l),
(610,664,o),
(500,720,o),
(372,720,cs),
(156,720,o),
(23,560,o),
(23,354,cs),
(23,129.6,o),
(163.8,-20,o),
(375,-20,cs),
(523,-20,o),
(612,61,o),
(651,229,c)
);
}
);
width = 780;
},
{
anchors = (
{
name = bottom;
pos = (384,-19);
},
{
name = top;
pos = (384,719);
}
);
layerId = "C7381861-8087-459F-9A66-D6EC096294DF";
shapes = (
{
closed = 1;
nodes = (
(353,272,l),
(609,272,l),
(677,0,l),
(697,0,l),
(697,348,l),
(353,348,l)
);
},
{
closed = 1;
nodes = (
(609,344,l),
(609,339.986,o),
(610,326.94,o),
(610,311.887,cs),
(610,169.385,o),
(517,60,o),
(384,60,cs),
(239.4,60,o),
(143,177.606,o),
(143,354.014,cs),
(143,528.616,o),
(234,640,o),
(391,640,cs),
(463,640,o),
(563,618.85,o),
(634,499,c),
(670,603,l),
(602,680,o),
(501,720,o),
(386,720,cs),
(181,720,o),
(53,565,o),
(53,356,cs),
(53,130.4,o),
(181,-20,o),
(373,-20,cs),
(522,-20,o),
(610,90,o),
(631,229,c)
);
}
);
width = 780;
},
{
anchors = (
{
name = bottom;
pos = (384,-19);
},
{
name = top;
pos = (384,719);
}
);
layerId = "B3C53035-7890-4C98-85EB-10A7AE0A8F58";
shapes = (
{
closed = 1;
nodes = (
(353,288,l),
(605,288,l),
(677,0,l),
(687,0,l),
(687,338,l),
(353,338,l)
);
},
{
closed = 1;
nodes = (
(604,334,l),
(604,332,o),
(605,303,o),
(605,288,cs),
(605,146,o),
(513,35,o),
(380,35,cs),
(225.8,35,o),
(123,164.2,o),
(123,358,cs),
(123,548,o),
(227,665,o),
(397,665,cs),
(468,665,o),
(562,646,o),
(633,537,c),
(656,603,l),
(588,682,o),
(491,720,o),
(387,720,cs),
(185,720,o),
(63,565,o),
(63,355,cs),
(63,130,o),
(187.4,-20,o),
(374,-20,cs),
(524,-20,o),
(611,100,o),
(626,229,c)
);
}
);
width = 780;
}
);
},
{
color = 6;
glyphname = J.ss10;
kernLeft = J;
kernRight = J1;
lastChange = "2024-07-10 12:37:15 +0000";
layers = (
{
anchors = (
{
name = bottom;
pos = (269,-20);
},
{
name = top;
pos = (418,719);
}
);
layerId = "80F95D5A-7464-498F-9BB9-FC89FE1B12C4";
shapes = (
{
closed = 1;
nodes = (
(-1,122,l),
(54,41,o),
(141,-20,o),
(263,-20,cs),
(421,-20,o),
(508,82,o),
(508,252,cs),
(508,700,l),
(318,700,l),
(318,253.23,ls),
(318,153.057,o),
(297,120,o),
(235,120,cs),
(159,120,o),
(105,172.315,o),
(44,286,c)
);
}
);
width = 558;
},
{
anchors = (
{
name = bottom;
pos = (257,-20);
},
{
name = top;
pos = (436,719);
}
);
layerId = "C7381861-8087-459F-9A66-D6EC096294DF";
shapes = (
{
closed = 1;
nodes = (
(32,93,l),
(98,16,o),
(180,-20,o),
(258,-20,cs),
(400,-20,o),
(479,67,o),
(479,242,cs),
(479,700,l),
(389,700,l),
(389,239.28,ls),
(389,107.074,o),
(337,60,o),
(261,60,cs),
(189.029,60,o),
(111.832,115.084,o),
(69,197,c)
);
}
);
width = 558;
},
{
anchors = (
{
name = bottom;
pos = (265,-20);
},
{
name = top;
pos = (441,719);
}
);
layerId = "B3C53035-7890-4C98-85EB-10A7AE0A8F58";
shapes = (
{
closed = 1;
nodes = (
(42,94,l),
(82,34,o),
(160,-20,o),
(266,-20,cs),
(402,-20,o),
(469,56,o),
(469,209,cs),
(469,700,l),
(409,700,l),
(409,210,ls),
(409,92,o),
(366,35,o),
(268,35,cs),
(225,35,o),
(132,39,o),
(65,160,c)
);
}
);
width = 558;
}
);
},
{
color = 6;
glyphname = Eng.ss10;
kernLeft = B;
kernRight = H;
lastChange = "2024-07-10 12:37:15 +0000";
layers = (
{
anchors = (
{
name = bottom;
pos = (382,-209);
},
{
name = top;
pos = (366,719);
}
);
layerId = "80F95D5A-7464-498F-9BB9-FC89FE1B12C4";
shapes = (
{
closed = 1;
nodes = (
(58,0,l),
(248,0,l),
(248,379,l),
(494,0,l),
(674,151.451,l),
(674,700,l),
(484,700,l),
(484,321,l),
(238,700,l),
(58,700,l)
);
},
{
closed = 1;
nodes = (
(244.5,-88,l),
(273.293,-169.204,o),
(331.754,-230,o),
(451.672,-230,cs),
(604.929,-230,o),
(673.5,-128,o),
(673.5,42,cs),
(673.5,490,l),
(483.5,490,l),
(483.5,43.23,ls),
(483.5,-56.943,o),
(470.387,-90,o),
(416.107,-90,cs),
(361.515,-90,o),
(338.132,-46.967,o),
(289.5,76,c)
);
}
);
width = 732;
},
{
anchors = (
{
name = bottom;
pos = (368,-220);
},
{
name = top;
pos = (366,719);
}
);
layerId = "C7381861-8087-459F-9A66-D6EC096294DF";
shapes = (
{
closed = 1;
nodes = (
(87,0,l),
(177,0,l,{
name = ab01;
}),
(177,554,l,{
name = iv01;
}),
(565,0,l,{
name = ab02;
}),
(645,93.369,l),
(645,700,l,{
name = at01;
}),
(555,700,l),
(555,146,l,{
name = iv02;
}),
(167,700,l,{
name = at02;
}),
(87,700,l)
);
},
{
closed = 1;
nodes = (
(217.5,-117,l),
(283.5,-194,o),
(361.196,-230,o),
(435.101,-230,cs),
(569.647,-230,o),
(644.5,-143,o),
(644.5,32,cs),
(644.5,490,l),
(554.5,490,l),
(554.5,29.28,ls),
(554.5,-102.926,o),
(506.252,-150,o),
(435.736,-150,cs),
(368.959,-150,o),
(297.332,-94.916,o),
(254.5,-13,c)
);
}
);
width = 732;
},
{
anchors = (
{
name = bottom;
pos = (376,-192);
},
{
name = top;
pos = (366,720);
}
);
layerId = "B3C53035-7890-4C98-85EB-10A7AE0A8F58";
shapes = (
{
closed = 1;
nodes = (
(97,0,l),
(157,0,l,{
name = ab01;
}),
(157,589,l,{
name = iv01;
}),
(585,0,l,{
name = ab02;
}),
(635,81.584,l),
(635,700,l,{
name = at01;
}),
(575,700,l),
(575,111,l,{
name = iv02;
}),
(147,700,l,{
name = at02;
}),
(97,700,l)
);
},
{
closed = 1;
nodes = (
(224.5,-104,l),
(264.5,-164,o),
(339.275,-218,o),
(440.893,-218,cs),
(571.27,-218,o),
(635.5,-142,o),
(635.5,11,cs),
(635.5,502,l),
(575.5,502,l),
(575.5,12,ls),
(575.5,-106,o),
(534.984,-163,o),
(442.644,-163,cs),
(402.128,-163,o),
(314.5,-159,o),
(247.5,-38,c)
);
}
);
width = 732;
}
);
},
{
color = 6;
glyphname = S.ss10;
kernLeft = S1;
kernRight = S;
lastChange = "2024-07-10 12:37:15 +0000";
layers = (
{
anchors = (
{
name = bottom;
pos = (290,-20);
},
{
name = top;
pos = (275,719);
}
);
layerId = "80F95D5A-7464-498F-9BB9-FC89FE1B12C4";
shapes = (
{
closed = 1;
nodes = (
(26,122,l),
(81.107,38,o),
(167.273,-20,o),
(290.512,-20,cs),
(443.808,-20,o),
(543,71.152,o),
(543,214.391,cs),
(543,347.008,o),
(437.629,384.035,o),
(348.197,415.461,cs),
(282.267,438.629,o),
(225,458.752,o),
(225,511.886,cs),
(225,546.945,o),
(249,580,o),
(305,580,cs),
(373,580,o),
(423,530.703,o),
(487,414,c),
(532,578,l),
(478,662,o),
(392,720,o),
(272,720,cs),
(127,720,o),
(35,634.858,o),
(35,488.614,cs),
(35,346.637,o),
(142.648,307.754,o),
(232.877,275.162,cs),
(297.973,251.649,o),
(353,231.411,o),
(353,178.097,cs),
(353,143.038,o),
(328.915,120,o),
(273.719,120,cs),
(193.434,120,o),
(137.235,169.297,o),
(71,286,c)
);
}
);
width = 580;
},
{
anchors = (
{
name = bottom;
pos = (290,-20);
},
{
name = top;
pos = (275,719);
}
);
layerId = "C7381861-8087-459F-9A66-D6EC096294DF";
shapes = (
{
closed = 1;
nodes = (
(48,97,l),
(113.138,23,o),
(198.318,-20,o),
(300.534,-20,cs),
(441.833,-20,o),
(521,54.108,o),
(521,177.294,cs),
(521,316.193,o),
(415.398,354.916,o),
(316.423,384.649,cs),
(229.135,410.87,o),
(147,425.544,o),
(147,520.819,cs),
(147,592.929,o),
(192,640,o),
(276,640,cs),
(341,640,o),
(409,611.8,o),
(474,499,c),
(510,603,l),
(446,677,o),
(367,720,o),
(271,720,cs),
(133,720,o),
(57,631.866,o),
(57,520.698,cs),
(57,375.536,o),
(164.779,344.377,o),
(264.62,315.513,cs),
(350.765,290.609,o),
(431,267.413,o),
(431,174.173,cs),
(431,102.064,o),
(385.87,60,o),
(299.621,60,cs),
(227.413,60,o),
(151.194,89.207,o),
(84,201,c)
);
}
);
width = 580;
},
{
anchors = (
{
name = bottom;
pos = (290,-20);
},
{
name = top;
pos = (275,719);
}
);
layerId = "B3C53035-7890-4C98-85EB-10A7AE0A8F58";
shapes = (
{
closed = 1;
nodes = (
(59,97,l),
(130,14,o),
(196,-20,o),
(297,-20,cs),
(427,-20,o),
(511,56,o),
(511,169,cs),
(511,303.229,o),
(406.795,336.799,o),
(307.236,368.872,cs),
(216.175,398.208,o),
(129,426.292,o),
(129,529,cs),
(129,615,o),
(181,665,o),
(275,665,cs),
(330,665,o),
(409,646,o),
(478,537,c),
(501,603,l),
(432,686,o),
(365,720,o),
(268,720,cs),
(155,720,o),
(69,644,o),
(69,531,cs),
(69,395.864,o),
(174.618,360.264,o),
(274.782,326.502,cs),
(365.108,296.055,o),
(451,267.104,o),
(451,168,cs),
(451,82,o),
(395,35,o),
(296,35,cs),
(237,35,o),
(153,54,o),
(82,163,c)
);
}
);
width = 580;
}
);
},
{
color = 6;
glyphname = Scedilla.ss10;
kernLeft = S1;
kernRight = S;
lastChange = "2024-07-10 12:37:15 +0000";
layers = (
{
anchors = (
{
name = bottom;
pos = (270,-218);
},
{
name = top;
pos = (275,719);
}
);
layerId = "80F95D5A-7464-498F-9BB9-FC89FE1B12C4";
shapes = (
{
closed = 1;
nodes = (
(26,122,l),
(81.107,38,o),
(167.273,-20,o),
(290.512,-20,cs),
(443.808,-20,o),
(543,71.152,o),
(543,214.391,cs),
(543,347.008,o),
(437.629,384.035,o),
(348.197,415.461,cs),
(282.267,438.629,o),
(225,458.752,o),
(225,511.886,cs),
(225,546.945,o),
(249,580,o),
(305,580,cs),
(373,580,o),
(423,530.703,o),
(487,414,c),
(532,578,l),
(478,662,o),
(392,720,o),
(272,720,cs),
(127,720,o),
(35,634.858,o),
(35,488.614,cs),
(35,346.637,o),
(142.648,307.754,o),
(232.877,275.162,cs),
(297.973,251.649,o),
(353,231.411,o),
(353,178.097,cs),
(353,143.038,o),
(328.915,120,o),
(273.719,120,cs),
(193.434,120,o),
(137.235,169.297,o),
(71,286,c)
);
},
{
closed = 1;
nodes = (
(138,-205,l),
(160,-211,o),
(193,-218,o),
(246,-218,cs),
(349,-218,o),
(398,-191,o),
(398,-134,cs),
(398,-87,o),
(365,-64,o),
(297,-64,c),
(344.423,20.41,l),
(242.423,20.41,l),
(174,-109,l),
(190,-107,o),
(215,-105,o),
(232,-105,cs),
(262,-105,o),
(278,-111,o),
(278,-133,cs),
(278,-151,o),
(267,-164,o),
(230,-164,cs),
(209,-164,o),
(180,-160,o),
(164,-154,c)
);
}
);
width = 580;
},
{
anchors = (
{
name = bottom;
pos = (270,-218);
},
{
name = top;
pos = (275,719);
}
);
layerId = "C7381861-8087-459F-9A66-D6EC096294DF";
shapes = (
{
closed = 1;
nodes = (
(48,97,l),
(113.138,23,o),
(198.318,-20,o),
(300.534,-20,cs),
(441.833,-20,o),
(521,54.108,o),
(521,177.294,cs),
(521,316.193,o),
(415.398,354.916,o),
(316.423,384.649,cs),
(229.135,410.87,o),
(147,425.544,o),
(147,520.819,cs),
(147,592.929,o),
(192,640,o),
(276,640,cs),
(341,640,o),
(409,611.8,o),
(474,499,c),
(510,603,l),
(446,677,o),
(367,720,o),
(271,720,cs),
(133,720,o),
(57,631.866,o),
(57,520.698,cs),
(57,375.536,o),
(164.779,344.377,o),
(264.62,315.513,cs),
(350.765,290.609,o),
(431,267.413,o),
(431,174.173,cs),
(431,102.064,o),
(385.87,60,o),
(299.621,60,cs),
(227.413,60,o),
(151.194,89.207,o),
(84,201,c)
);
},
{
closed = 1;
nodes = (
(174,-205,l),
(195,-211,o),
(219,-218,o),
(258,-218,cs),
(338,-218,o),
(384,-189,o),
(384,-137,cs),
(384,-90,o),
(347,-64,o),
(288,-64,c),
(332.74,14.895,l),
(275.74,14.895,l),
(221,-86,l),
(236,-84,o),
(247,-82,o),
(260,-82,cs),
(295,-82,o),
(316,-97,o),
(316,-132,cs),
(316,-166,o),
(297,-182,o),
(255,-182,cs),
(232,-182,o),
(210,-177,o),
(193,-171,c)
);
}
);
width = 580;
},
{
anchors = (
{
name = bottom;
pos = (270,-218);
},
{
name = top;
pos = (275,719);
}
);
layerId = "B3C53035-7890-4C98-85EB-10A7AE0A8F58";
shapes = (
{
closed = 1;
nodes = (
(59,97,l),
(130,14,o),
(196,-20,o),
(297,-20,cs),
(427,-20,o),
(511,56,o),
(511,169,cs),
(511,303.229,o),
(406.795,336.799,o),
(307.236,368.872,cs),
(216.175,398.208,o),
(129,426.292,o),
(129,529,cs),
(129,615,o),
(181,665,o),
(275,665,cs),
(330,665,o),
(409,646,o),
(478,537,c),
(501,603,l),
(432,686,o),
(365,720,o),
(268,720,cs),
(155,720,o),
(69,644,o),
(69,531,cs),
(69,395.864,o),
(174.618,360.264,o),
(274.782,326.502,cs),
(365.108,296.055,o),
(451,267.104,o),
(451,168,cs),
(451,82,o),
(395,35,o),
(296,35,cs),
(237,35,o),
(153,54,o),
(82,163,c)
);
},
{
closed = 1;
nodes = (
(179,-205,l),
(199,-211,o),
(222,-218,o),
(260,-218,cs),
(338,-218,o),
(379,-188,o),
(379,-140,cs),
(379,-92,o),
(339,-64,o),
(281,-64,c),
(321.194,12.137,l),
(276.194,12.137,l),
(226,-82,l),
(238,-79,o),
(248,-78,o),
(258,-78,cs),
(303,-78,o),
(327,-98,o),
(327,-132,cs),
(327,-166,o),
(302,-188,o),
(257,-188,cs),
(236,-188,o),
(212,-183,o),
(194,-177,c)
);
}
);
width = 580;
}
);
},
{
color = 6;
glyphname = Germandbls.ss10;
lastChange = "2024-07-10 12:37:15 +0000";
layers = (
{
layerId = "80F95D5A-7464-498F-9BB9-FC89FE1B12C4";
shapes = (
{
closed = 1;
nodes = (
(516,140,o),
(489.473,120,o),
(462.946,120,cs),
(393.568,120,o),
(361,154,o),
(315,233,c),
(251.103,61.839,l),
(286.83,5.569,o),
(360.493,-20,o),
(456.582,-20,cs),
(645.556,-20,o),
(703,78.895,o),
(703,168.42,cs),
(703,332.091,o),
(511,328,o),
(511,430,cs),
(511,459,o),
(532.669,482.487,o),
(557,511,cs),
(699.155,677.588,l),
(660.508,624.591,l),
(611.747,667.271,o),
(484.898,720,o),
(333.157,720,cs),
(132.558,720,o),
(45,631,o),
(45,499,cs),
(45,0,l),
(235,0,l),
(235,434,ls),
(235,527,o),
(253.907,579,o),
(333.157,579,cs),
(367.53,579,o),
(392.701,573.194,o),
(423.452,556.335,c),
(464.818,652.391,l),
(388,559,ls),
(343.97,505.471,o),
(321,468,o),
(321,418,cs),
(321,262,o),
(516,250,o),
(516,162,cs)
);
}
);
width = 723;
},
{
layerId = "C7381861-8087-459F-9A66-D6EC096294DF";
shapes = (
{
closed = 1;
nodes = (
(572.977,88,o),
(535,60,o),
(472,60,cs),
(433,60,o),
(367,70,o),
(308,162,c),
(271,58,l),
(312.178,7.246,o),
(384.833,-20,o),
(464.333,-20,cs),
(589,-20,o),
(664,47,o),
(664,143.185,cs),
(664,312.354,o),
(446,312,o),
(446,414,cs),
(446,443,o),
(467.669,466.487,o),
(492,495,cs),
(620,645,l),
(622.072,615.96,l),
(558.359,672.582,o),
(456.558,720,o),
(326.249,720,cs),
(148.386,720,o),
(76,631,o),
(76,499,cs),
(76,0,l),
(166,0,l),
(166,504,ls),
(166,587,o),
(200.927,639,o),
(328.995,639,cs),
(393.048,639,o),
(459.664,625.682,o),
(492.182,603.042,c),
(509.818,642.391,l),
(433,549,ls),
(388.97,495.471,o),
(355,458,o),
(355,408,cs),
(355,252,o),
(573.069,268.951,o),
(573,133,cs)
);
}
);
width = 723;
},
{
layerId = "B3C53035-7890-4C98-85EB-10A7AE0A8F58";
shapes = (
{
closed = 1;
nodes = (
(593.898,63,o),
(533,35,o),
(470,35,cs),
(393,35,o),
(331,70,o),
(298,122,c),
(278,55,l),
(321,7,o),
(387,-20,o),
(461.944,-20,cs),
(580,-20,o),
(654,47,o),
(654,142.646,cs),
(654,312,o),
(422,312,o),
(422,414,cs),
(422,443,o),
(443.669,466.487,o),
(468,495,cs),
(596,645,l),
(612.435,615.702,l),
(547.476,672.438,o),
(456.887,720,o),
(326.213,720,cs),
(148.124,720,o),
(86,631,o),
(86,499,cs),
(86,0,l),
(146,0,l),
(146,510,ls),
(146,623,o),
(215.291,665,o),
(326.576,665,cs),
(408.194,665,o),
(484.917,641.683,o),
(525.024,612.672,c),
(515.818,642.391,l),
(439,549,ls),
(394.97,495.471,o),
(361,458,o),
(361,408,cs),
(361,262,o),
(594,279,o),
(593.931,133.049,cs)
);
}
);
width = 723;
}
);
},
{
color = 6;
glyphname = C.ss12;
kernLeft = C1;
kernRight = C;
lastChange = "2024-07-10 12:37:15 +0000";
layers = (
{
anchors = (
{
name = bottom;
pos = (367,-19);
},
{
name = top;
pos = (347,719);
}
);
layerId = "80F95D5A-7464-498F-9BB9-FC89FE1B12C4";
shapes = (
{
closed = 1;
nodes = (
(613.094,218.326,l),
(538.215,158.533,o),
(453.723,124.055,o),
(386,124.055,cs),
(247,124.055,o),
(213,206,o),
(213,352,cs),
(213,512.314,o),
(265.061,576,o),
(386,576,cs),
(453.723,576,o),
(538.215,541.523,o),
(613.094,481.73,c),
(625.574,613.336,l),
(571.116,678.004,o),
(473.377,720,o),
(369,720,cs),
(158,720,o),
(23,569,o),
(23,348,cs),
(23,129,o),
(156,-20,o),
(369,-20,cs),
(473.377,-20,o),
(571.116,22.051,o),
(625.574,86.72,c)
);
}
);
width = 649;
},
{
anchors = (
{
name = bottom;
pos = (367,-19);
},
{
name = top;
pos = (347,719);
}
);
layerId = "C7381861-8087-459F-9A66-D6EC096294DF";
shapes = (
{
closed = 1;
nodes = (
(587.631,145.423,l),
(516.966,78.806,o),
(431.014,60,o),
(368,60,cs),
(214,60,o),
(143,163.178,o),
(143,344.491,cs),
(143,530.812,o),
(213.58,640,o),
(369.58,640,cs),
(432.594,640,o),
(516.966,619.92,o),
(587.631,554.084,c),
(595.651,628.555,l),
(547.531,683.549,o),
(454.946,720,o),
(365.58,720,cs),
(165.58,720,o),
(53,572,o),
(53,348,cs),
(53,123,o),
(166,-20,o),
(364,-20,cs),
(453.365,-20,o),
(547.531,15.957,o),
(595.651,70.951,c)
);
}
);
width = 649;
},
{
anchors = (
{
name = bottom;
pos = (367,-19);
},
{
name = top;
pos = (347,719);
}
);
layerId = "B3C53035-7890-4C98-85EB-10A7AE0A8F58";
shapes = (
{
closed = 1;
nodes = (
(579.307,130.222,l),
(527.029,69.488,o),
(443.701,35.222,o),
(360,35.222,cs),
(210.198,35.222,o),
(123,151.404,o),
(123,351,cs),
(123,554.628,o),
(202.791,665,o),
(350,665,cs),
(433.701,665,o),
(522.347,627.855,o),
(574.625,567.12,c),
(580.685,615.699,l),
(540.238,677.014,o),
(447.142,720,o),
(349,720,cs),
(160,720,o),
(63,576,o),
(63,349,cs),
(63,122,o),
(170,-19.778,o),
(359,-19.778,cs),
(447.142,-19.778,o),
(544.861,19.907,o),
(585.307,81.222,c)
);
}
);
width = 649;
}
);
},
{
color = 6;
glyphname = Ccedilla.ss12;
kernLeft = C1;
kernRight = C;
lastChange = "2024-07-10 12:37:15 +0000";
layers = (
{
anchors = (
{
name = bottom;
pos = (347,-217);
},
{
name = top;
pos = (347,719);
}
);
layerId = "80F95D5A-7464-498F-9BB9-FC89FE1B12C4";
shapes = (
{
closed = 1;
nodes = (
(613.094,218.326,l),
(538.215,158.533,o),
(453.723,124.055,o),
(386,124.055,cs),
(247,124.055,o),
(213,206,o),
(213,352,cs),
(213,512.314,o),
(265.061,576,o),
(386,576,cs),
(453.723,576,o),
(538.215,541.523,o),
(613.094,481.73,c),
(625.574,613.336,l),
(571.116,678.004,o),
(473.377,720,o),
(369,720,cs),
(158,720,o),
(23,569,o),
(23,348,cs),
(23,129,o),
(156,-20,o),
(369,-20,cs),
(473.377,-20,o),
(571.116,22.051,o),
(625.574,86.72,c)
);
},
{
closed = 1;
nodes = (
(215,-204,l),
(237,-210,o),
(270,-217,o),
(323,-217,cs),
(426,-217,o),
(475,-190,o),
(475,-133,cs),
(475,-86,o),
(442,-63,o),
(374,-63,c),
(421.423,21.41,l),
(319.423,21.41,l),
(251,-108,l),
(267,-106,o),
(292,-104,o),
(309,-104,cs),
(339,-104,o),
(355,-110,o),
(355,-132,cs),
(355,-150,o),
(344,-163,o),
(307,-163,cs),
(286,-163,o),
(257,-159,o),
(241,-153,c)
);
}
);
width = 649;
},
{
anchors = (
{
name = bottom;
pos = (347,-217);
},
{
name = top;
pos = (347,719);
}
);
layerId = "C7381861-8087-459F-9A66-D6EC096294DF";
shapes = (
{
closed = 1;
nodes = (
(587.631,145.423,l),
(516.966,78.806,o),
(431.014,60,o),
(368,60,cs),
(214,60,o),
(143,163.178,o),
(143,344.491,cs),
(143,530.812,o),
(213.58,640,o),
(369.58,640,cs),
(432.594,640,o),
(516.966,619.92,o),
(587.631,554.084,c),
(595.651,628.555,l),
(547.531,683.549,o),
(454.946,720,o),
(365.58,720,cs),
(165.58,720,o),
(53,572,o),
(53,348,cs),
(53,123,o),
(166,-20,o),
(364,-20,cs),
(453.365,-20,o),
(547.531,15.957,o),
(595.651,70.951,c)
);
},
{
closed = 1;
nodes = (
(251,-204,l),
(272,-210,o),
(296,-217,o),
(335,-217,cs),
(415,-217,o),
(461,-188,o),
(461,-136,cs),
(461,-89,o),
(424,-63,o),
(365,-63,c),
(409.74,15.895,l),
(352.74,15.895,l),
(298,-85,l),
(313,-83,o),
(324,-81,o),
(337,-81,cs),
(372,-81,o),
(393,-96,o),
(393,-131,cs),
(393,-165,o),
(374,-181,o),
(332,-181,cs),
(309,-181,o),
(287,-176,o),
(270,-170,c)
);
}
);
width = 649;
},
{
anchors = (
{
name = bottom;
pos = (347,-217);
},
{
name = top;
pos = (347,719);
}
);
layerId = "B3C53035-7890-4C98-85EB-10A7AE0A8F58";
shapes = (
{
closed = 1;
nodes = (
(579.307,130.222,l),
(527.029,69.488,o),
(443.701,35.222,o),
(360,35.222,cs),
(210.198,35.222,o),
(123,151.404,o),
(123,351,cs),
(123,554.628,o),
(202.791,665,o),
(350,665,cs),
(433.701,665,o),
(522.347,627.855,o),
(574.625,567.12,c),
(580.685,615.699,l),
(540.238,677.014,o),
(447.142,720,o),
(349,720,cs),
(160,720,o),
(63,576,o),
(63,349,cs),
(63,122,o),
(170,-19.778,o),
(359,-19.778,cs),
(447.142,-19.778,o),
(544.861,19.907,o),
(585.307,81.222,c)
);
},
{
closed = 1;
nodes = (
(256,-204,l),
(276,-210,o),
(299,-217,o),
(337,-217,cs),
(415,-217,o),
(456,-187,o),
(456,-139,cs),
(456,-91,o),
(416,-63,o),
(358,-63,c),
(398.194,13.137,l),
(353.194,13.137,l),
(303,-81,l),
(315,-78,o),
(325,-77,o),
(335,-77,cs),
(380,-77,o),
(404,-97,o),
(404,-131,cs),
(404,-165,o),
(379,-187,o),
(334,-187,cs),
(313,-187,o),
(289,-182,o),
(271,-176,c)
);
}
);
width = 649;
}
);
},
{
color = 6;
glyphname = Schwa.ss12;
kernLeft = C1;
kernRight = C;
lastChange = "2024-07-10 12:37:15 +0000";
layers = (
{
anchors = (
{
name = bottom;
pos = (380,-20);
},
{
name = top;
pos = (380,719);
}
);
layerId = "80F95D5A-7464-498F-9BB9-FC89FE1B12C4";
shapes = (
{
closed = 1;
nodes = (
(30,417,l),
(26,402,o),
(23,376,o),
(23,358,cs),
(23,125,o),
(160,-20,o),
(380,-20,cs),
(586,-20,o),
(736,111,o),
(736,350,cs),
(736,582,o),
(585,720,o),
(374,720,cs),
(256,720,o),
(161,679,o),
(80,596,c),
(93,472,l),
(173,547.701,o),
(246,580,o),
(358,580,cs),
(482,580,o),
(546,508.69,o),
(546,353.013,cs),
(546,195.328,o),
(493,120,o),
(382,120,cs),
(284,120,o),
(229,175,o),
(219,280,c),
(555,280,l),
(556,417,l)
);
}
);
width = 759;
},
{
anchors = (
{
name = bottom;
pos = (380,-20);
},
{
name = top;
pos = (380,719);
}
);
layerId = "C7381861-8087-459F-9A66-D6EC096294DF";
shapes = (
{
closed = 1;
nodes = (
(57,395,l,{
name = sh04;
}),
(55.25,380,o),
(53.5,359,o),
(53.5,344,cs,{
name = sh01;
}),
(53.5,134,o),
(183.4,-20,o),
(380.25,-20,cs,{
name = dv01;
}),
(577.099,-20,o),
(706,121,o),
(706,350,cs,{
name = sh03;
}),
(706,563,o),
(575,720,o),
(379,720,cs),
(273,720,o),
(185,680,o),
(105,595,c),
(114,530,l),
(197,609,o),
(274,640,o),
(372,640,cs),
(521,640,o),
(616,534.819,o),
(616,343.489,cs),
(616,166.183,o),
(527.907,60,o),
(380.751,60,cs,{
name = dv02;
}),
(242.605,60,o),
(143.5,155,o),
(143.5,318,c,{
name = sh02;
}),
(621,318,l,{
name = dv05;
}),
(620,395,l,{
name = dv06;
})
);
}
);
width = 759;
},
{
anchors = (
{
name = bottom;
pos = (380,-20);
},
{
name = top;
pos = (380,719);
}
);
layerId = "B3C53035-7890-4C98-85EB-10A7AE0A8F58";
shapes = (
{
closed = 1;
nodes = (
(67,385,l,{
name = sh04;
}),
(65,370,o),
(63,350,o),
(63,335,cs,{
name = sh01;
}),
(63,122,o),
(189.8,-20,o),
(380,-20,cs,{
name = dv01;
}),
(571,-20,o),
(696,121,o),
(696,350,cs,{
name = sh03;
}),
(696,563,o),
(570,720,o),
(381,720,cs),
(281,720,o),
(191,680,o),
(117,595,c),
(123,546,l),
(193,625,o),
(286,665,o),
(375,665,cs),
(526,665,o),
(636,555,o),
(636,344,cs),
(636,156,o),
(536,35,o),
(381,35,cs,{
name = dv02;
}),
(226.2,35,o),
(123,155,o),
(123,335,c,{
name = sh02;
}),
(661,335,l,{
name = dv05;
}),
(660,385,l,{
name = dv06;
})
);
}
);
width = 759;
}
);
},
{
color = 6;
glyphname = G.ss12;
kernLeft = C1;
kernRight = G;
lastChange = "2024-07-10 12:37:15 +0000";
layers = (
{
anchors = (
{
name = bottom;
pos = (380,-19);
},
{
name = top;
pos = (380,719);
}
);
layerId = "80F95D5A-7464-498F-9BB9-FC89FE1B12C4";
shapes = (
{
closed = 1;
nodes = (
(348,265,l),
(599,265,l),
(641,0,l),
(721,0,l),
(721,395,l),
(348,395,l)
);
},
{
closed = 1;
nodes = (
(576,344,l),
(576,338,o),
(577,325,o),
(574,298,cs),
(565,226,o),
(534,120,o),
(407,120,cs),
(294,120,o),
(214,203,o),
(214,350,cs),
(214,471,o),
(269,580,o),
(421,580,cs),
(504,580,o),
(575,548,o),
(646,472,c),
(659,596,l),
(585,679,o),
(489,720,o),
(374,720,cs),
(161,720,o),
(23,564,o),
(23,353,cs),
(23,154,o),
(145,-20,o),
(360,-20,cs),
(545,-20,o),
(593,110,o),
(633,240,c),
(632,348,l)
);
}
);
width = 754;
},
{
anchors = (
{
name = bottom;
pos = (380,-19);
},
{
name = top;
pos = (380,719);
}
);
layerId = "C7381861-8087-459F-9A66-D6EC096294DF";
shapes = (
{
closed = 1;
nodes = (
(348,292,l),
(605,292,l),
(651,0,l),
(691,0,l),
(691,368,l),
(348,368,l)
);
},
{
closed = 1;
nodes = (
(600,344,l),
(600,338,o),
(600,302,o),
(600,296,c),
(587,148,o),
(500,60,o),
(370,60,cs),
(224,60,o),
(143,170,o),
(143,344,cs),
(143,526,o),
(232,640,o),
(392,640,cs),
(475,640,o),
(553,609,o),
(638,530,c),
(647,595,l),
(564,680,o),
(484,720,o),
(378,720,cs),
(172,720,o),
(53,570,o),
(53,352,cs),
(53,140,o),
(166,-20,o),
(361,-20,cs),
(556,-20,o),
(612,140,o),
(631,230,c),
(625,348,l)
);
}
);
width = 754;
},
{
anchors = (
{
name = bottom;
pos = (380,-19);
},
{
name = top;
pos = (380,719);
}
);
layerId = "B3C53035-7890-4C98-85EB-10A7AE0A8F58";
shapes = (
{
closed = 1;
nodes = (
(348,308,l),
(622,308,l),
(656,0,l),
(681,0,l),
(681,358,l),
(348,358,l)
);
},
{
closed = 1;
nodes = (
(622,344,l),
(622,338,o),
(622,302,o),
(622,296,c),
(609,123,o),
(508,35,o),
(375,35,cs),
(226,35,o),
(123,145,o),
(123,349,cs),
(123,551,o),
(224,665,o),
(377,665,cs),
(468,665,o),
(561,625,o),
(631,546,c),
(637,595,l),
(563,680,o),
(483,720,o),
(379,720,cs),
(178,720,o),
(63,570,o),
(63,353,cs),
(63,140,o),
(174,-20,o),
(362,-20,cs),
(557,-20,o),
(634,151,o),
(637,240,cs),
(641,348,l)
);
}
);
width = 754;
}
);
},
{
color = 6;
glyphname = J.ss12;
kernLeft = J;
kernRight = J1;
lastChange = "2024-07-10 12:37:15 +0000";
layers = (
{
anchors = (
{
name = bottom;
pos = (199,-20);
},
{
name = top;
pos = (337,719);
}
);
layerId = "80F95D5A-7464-498F-9BB9-FC89FE1B12C4";
shapes = (
{
closed = 1;
nodes = (
(9,22,l),
(55.944,-4,o),
(113.875,-20,o),
(202.77,-20,cs),
(349.595,-20,o),
(429.5,76,o),
(429.5,252,cs),
(429.5,700,l),
(239.5,700,l),
(239.5,262,ls),
(239.5,155,o),
(222.46,120,o),
(172.344,120,cs),
(122.228,120,o),
(80.13,128,o),
(24,150,c)
);
}
);
width = 480;
},
{
anchors = (
{
name = bottom;
pos = (196,-20);
},
{
name = top;
pos = (359,719);
}
);
layerId = "C7381861-8087-459F-9A66-D6EC096294DF";
shapes = (
{
closed = 1;
nodes = (
(11,26,l),
(55,0,o),
(105,-20,o),
(183,-20,cs),
(325,-20,o),
(401,47,o),
(401,222,cs),
(401,700,l),
(311,700,l),
(311,217,ls),
(311,109,o),
(273,60,o),
(178,60,cs),
(139,60,o),
(85,68,o),
(20,91,c)
);
}
);
width = 480;
},
{
anchors = (
{
name = bottom;
pos = (199,-20);
},
{
name = top;
pos = (362,719);
}
);
layerId = "B3C53035-7890-4C98-85EB-10A7AE0A8F58";
shapes = (
{
closed = 1;
nodes = (
(21,26,l),
(65,0,o),
(115,-20,o),
(189,-20,cs),
(326,-20,o),
(391,58,o),
(391,222,cs),
(391,700,l),
(331,700,l),
(331,221,ls),
(331,89,o),
(285,35,o),
(187,35,cs),
(146,35,o),
(95,43,o),
(30,66,c)
);
}
);
width = 480;
}
);
},
{
color = 6;
glyphname = Eng.ss12;
kernLeft = B;
kernRight = H;
lastChange = "2024-07-10 12:37:15 +0000";
layers = (
{
anchors = (
{
name = bottom;
pos = (346,-220);
},
{
name = top;
pos = (366,719);
}
);
layerId = "80F95D5A-7464-498F-9BB9-FC89FE1B12C4";
shapes = (
{
closed = 1;
nodes = (
(58,0,l),
(248,0,l),
(248,379,l),
(494,0,l),
(674,125.56,l),
(674,700,l),
(484,700,l),
(484,321,l),
(238,700,l),
(58,700,l)
);
},
{
closed = 1;
nodes = (
(253.75,-188,l),
(300.694,-214,o),
(358.625,-230,o),
(447.52,-230,cs),
(594.345,-230,o),
(674.25,-134,o),
(674.25,42,cs),
(674.25,490,l),
(484.25,490,l),
(484.25,52,ls),
(484.25,-55,o),
(467.21,-90,o),
(417.094,-90,cs),
(366.978,-90,o),
(324.88,-82,o),
(268.75,-60,c)
);
}
);
width = 732;
},
{
anchors = (
{
name = bottom;
pos = (356,-198);
},
{
name = top;
pos = (366,719);
}
);
layerId = "C7381861-8087-459F-9A66-D6EC096294DF";
shapes = (
{
closed = 1;
nodes = (
(87,0,l),
(177,0,l,{
name = ab01;
}),
(177,554,l,{
name = iv01;
}),
(565,0,l,{
name = ab02;
}),
(645,68.33,l),
(645,700,l,{
name = at01;
}),
(555,700,l),
(555,146,l,{
name = iv02;
}),
(167,700,l,{
name = at02;
}),
(87,700,l)
);
},
{
closed = 1;
nodes = (
(255,-176,l),
(299,-202,o),
(349,-222,o),
(427,-222,cs),
(569,-222,o),
(645,-155,o),
(645,20,cs),
(645,498,l),
(555,498,l),
(555,15,ls),
(555,-93,o),
(517,-142,o),
(422,-142,cs),
(383,-142,o),
(329,-134,o),
(264,-111,c)
);
}
);
width = 732;
},
{
anchors = (
{
name = bottom;
pos = (359,-207);
},
{
name = top;
pos = (366,719);
}
);
layerId = "B3C53035-7890-4C98-85EB-10A7AE0A8F58";
shapes = (
{
closed = 1;
nodes = (
(97,0,l),
(157,0,l,{
name = ab01;
}),
(157,589,l,{
name = iv01;
}),
(585,0,l,{
name = ab02;
}),
(635,74.144,l),
(635,700,l,{
name = at01;
}),
(575,700,l),
(575,111,l,{
name = iv02;
}),
(147,700,l,{
name = at02;
}),
(97,700,l)
);
},
{
closed = 1;
nodes = (
(265,-172,l),
(309,-198,o),
(359,-218,o),
(433,-218,cs),
(570,-218,o),
(635,-140,o),
(635,24,cs),
(635,502,l),
(575,502,l),
(575,23,ls),
(575,-109,o),
(529,-163,o),
(431,-163,cs),
(390,-163,o),
(339,-155,o),
(274,-132,c)
);
}
);
width = 732;
}
);
},
{
color = 6;
glyphname = S.ss12;
kernLeft = S1;
kernRight = S;
lastChange = "2024-07-10 12:37:15 +0000";
layers = (
{
anchors = (
{
name = bottom;
pos = (295,-20);
},
{
name = top;
pos = (290,719);
}
);
layerId = "80F95D5A-7464-498F-9BB9-FC89FE1B12C4";
shapes = (
{
closed = 1;
nodes = (
(37.286,92.17,l),
(91.744,27.501,o),
(206.623,-20,o),
(311,-20,cs),
(467,-20,o),
(553,72.154,o),
(553,192.354,cs),
(553,334.128,o),
(451.372,375.431,o),
(365.06,410.509,cs),
(301.358,436.398,o),
(246,458.896,o),
(246,515.893,cs),
(246,555.322,o),
(269.426,575.51,o),
(315.179,575.51,cs),
(382.903,575.51,o),
(448.215,541.523,o),
(523.094,481.73,c),
(535.574,613.336,l),
(481.116,678.004,o),
(383.377,720,o),
(279,720,cs),
(139,720,o),
(56,637.863,o),
(56,518.664,cs),
(56,363.515,o),
(161.678,320.77,o),
(249.029,285.439,cs),
(310.561,260.55,o),
(363,239.34,o),
(363,185.109,cs),
(363,146.043,o),
(339.821,124.49,o),
(274.821,124.49,cs),
(207.097,124.49,o),
(124.645,163.983,o),
(49.766,223.776,c)
);
}
);
width = 590;
},
{
anchors = (
{
name = bottom;
pos = (295,-20);
},
{
name = top;
pos = (290,719);
}
);
layerId = "C7381861-8087-459F-9A66-D6EC096294DF";
shapes = (
{
closed = 1;
nodes = (
(69.144,82.286,l),
(131.859,13.541,o),
(210.425,-20,o),
(308.74,-20,cs),
(450.53,-20,o),
(531,50,o),
(531,174.349,cs),
(531,305.898,o),
(426.92,351.228,o),
(329.312,384.362,cs),
(243.133,413.615,o),
(162,431.156,o),
(162,524.218,cs),
(162,598,o),
(213,640,o),
(293,640,cs),
(356.014,640,o),
(426,622,o),
(496.665,556.163,c),
(504.685,630.635,l),
(456.565,685.629,o),
(383.365,720,o),
(294,720,cs),
(159,720,o),
(72,645,o),
(72,520.233,cs),
(72,382.853,o),
(177.478,348.327,o),
(275.647,316.194,cs),
(361.092,288.226,o),
(441,262.07,o),
(441,164.366,cs),
(441,79,o),
(385.508,60,o),
(304.508,60,cs),
(227.506,60,o),
(148.444,94.928,o),
(77.189,156.989,c)
);
}
);
width = 590;
},
{
anchors = (
{
name = bottom;
pos = (295,-20);
},
{
name = top;
pos = (290,719);
}
);
layerId = "B3C53035-7890-4C98-85EB-10A7AE0A8F58";
shapes = (
{
closed = 1;
nodes = (
(77,82,l),
(128.511,7.768,o),
(206.142,-20,o),
(304.744,-20,cs),
(431,-20,o),
(521,50,o),
(521,171,cs),
(521,304.338,o),
(416.557,340.398,o),
(317.326,374.658,cs),
(227.529,405.661,o),
(142,435.19,o),
(142,534,cs),
(142,608,o),
(180.833,665,o),
(291.304,665,cs),
(375.005,665,o),
(443.722,630.735,o),
(496,570,c),
(502,619,l),
(461.554,680.315,o),
(379.835,720,o),
(291.693,720,cs),
(150.094,720,o),
(82,645,o),
(82,534,cs),
(82,400.965,o),
(185.969,363.395,o),
(284.998,327.61,cs),
(375.041,295.072,o),
(461,264.01,o),
(461,164,cs),
(461,74,o),
(393,35,o),
(304.744,35,cs),
(222,35,o),
(153,52,o),
(83,131,c)
);
}
);
width = 590;
}
);
},
{
color = 6;
glyphname = Scedilla.ss12;
kernLeft = S1;
kernRight = S;
lastChange = "2024-07-10 12:37:15 +0000";
layers = (
{
anchors = (
{
name = bottom;
pos = (275,-218);
},
{
name = top;
pos = (290,719);
}
);
layerId = "80F95D5A-7464-498F-9BB9-FC89FE1B12C4";
shapes = (
{
closed = 1;
nodes = (
(37.286,92.17,l),
(91.744,27.501,o),
(206.623,-20,o),
(311,-20,cs),
(467,-20,o),
(553,72.154,o),
(553,192.354,cs),
(553,334.128,o),
(451.372,375.431,o),
(365.06,410.509,cs),
(301.358,436.398,o),
(246,458.896,o),
(246,515.893,cs),
(246,555.322,o),
(269.426,575.51,o),
(315.179,575.51,cs),
(382.903,575.51,o),
(448.215,541.523,o),
(523.094,481.73,c),
(535.574,613.336,l),
(481.116,678.004,o),
(383.377,720,o),
(279,720,cs),
(139,720,o),
(56,637.863,o),
(56,518.664,cs),
(56,363.515,o),
(161.678,320.77,o),
(249.029,285.439,cs),
(310.561,260.55,o),
(363,239.34,o),
(363,185.109,cs),
(363,146.043,o),
(339.821,124.49,o),
(274.821,124.49,cs),
(207.097,124.49,o),
(124.645,163.983,o),
(49.766,223.776,c)
);
},
{
closed = 1;
nodes = (
(143,-205,l),
(165,-211,o),
(198,-218,o),
(251,-218,cs),
(354,-218,o),
(403,-191,o),
(403,-134,cs),
(403,-87,o),
(370,-64,o),
(302,-64,c),
(349.423,20.41,l),
(247.423,20.41,l),
(179,-109,l),
(195,-107,o),
(220,-105,o),
(237,-105,cs),
(267,-105,o),
(283,-111,o),
(283,-133,cs),
(283,-151,o),
(272,-164,o),
(235,-164,cs),
(214,-164,o),
(185,-160,o),
(169,-154,c)
);
}
);
width = 590;
},
{
anchors = (
{
name = bottom;
pos = (275,-218);
},
{
name = top;
pos = (290,719);
}
);
layerId = "C7381861-8087-459F-9A66-D6EC096294DF";
shapes = (
{
closed = 1;
nodes = (
(69.144,82.286,l),
(131.859,13.541,o),
(210.425,-20,o),
(308.74,-20,cs),
(450.53,-20,o),
(531,50,o),
(531,174.349,cs),
(531,305.898,o),
(426.92,351.228,o),
(329.312,384.362,cs),
(243.133,413.615,o),
(162,431.156,o),
(162,524.218,cs),
(162,598,o),
(213,640,o),
(293,640,cs),
(356.014,640,o),
(426,622,o),
(496.665,556.163,c),
(504.685,630.635,l),
(456.565,685.629,o),
(383.365,720,o),
(294,720,cs),
(159,720,o),
(72,645,o),
(72,520.233,cs),
(72,382.853,o),
(177.478,348.327,o),
(275.647,316.194,cs),
(361.092,288.226,o),
(441,262.07,o),
(441,164.366,cs),
(441,79,o),
(385.508,60,o),
(304.508,60,cs),
(227.506,60,o),
(148.444,94.928,o),
(77.189,156.989,c)
);
},
{
closed = 1;
nodes = (
(179,-205,l),
(200,-211,o),
(224,-218,o),
(263,-218,cs),
(343,-218,o),
(389,-189,o),
(389,-137,cs),
(389,-90,o),
(352,-64,o),
(293,-64,c),
(337.74,14.895,l),
(280.74,14.895,l),
(226,-86,l),
(241,-84,o),
(252,-82,o),
(265,-82,cs),
(300,-82,o),
(321,-97,o),
(321,-132,cs),
(321,-166,o),
(302,-182,o),
(260,-182,cs),
(237,-182,o),
(215,-177,o),
(198,-171,c)
);
}
);
width = 590;
},
{
anchors = (
{
name = bottom;
pos = (275,-218);
},
{
name = top;
pos = (290,719);
}
);
layerId = "B3C53035-7890-4C98-85EB-10A7AE0A8F58";
shapes = (
{
closed = 1;
nodes = (
(77,82,l),
(128.511,7.768,o),
(206.142,-20,o),
(304.744,-20,cs),
(431,-20,o),
(521,50,o),
(521,171,cs),
(521,304.338,o),
(416.557,340.398,o),
(317.326,374.658,cs),
(227.529,405.661,o),
(142,435.19,o),
(142,534,cs),
(142,608,o),
(180.833,665,o),
(291.304,665,cs),
(375.005,665,o),
(443.722,630.735,o),
(496,570,c),
(502,619,l),
(461.554,680.315,o),
(379.835,720,o),
(291.693,720,cs),
(150.094,720,o),
(82,645,o),
(82,534,cs),
(82,400.965,o),
(185.969,363.395,o),
(284.998,327.61,cs),
(375.041,295.072,o),
(461,264.01,o),
(461,164,cs),
(461,74,o),
(393,35,o),
(304.744,35,cs),
(222,35,o),
(153,52,o),
(83,131,c)
);
},
{
closed = 1;
nodes = (
(184,-205,l),
(204,-211,o),
(227,-218,o),
(265,-218,cs),
(343,-218,o),
(384,-188,o),
(384,-140,cs),
(384,-92,o),
(344,-64,o),
(286,-64,c),
(326.194,12.137,l),
(281.194,12.137,l),
(231,-82,l),
(243,-79,o),
(253,-78,o),
(263,-78,cs),
(308,-78,o),
(332,-98,o),
(332,-132,cs),
(332,-166,o),
(307,-188,o),
(262,-188,cs),
(241,-188,o),
(217,-183,o),
(199,-177,c)
);
}
);
width = 590;
}
);
},
{
color = 6;
glyphname = Germandbls.ss12;
lastChange = "2024-07-10 12:38:09 +0000";
layers = (
{
layerId = "80F95D5A-7464-498F-9BB9-FC89FE1B12C4";
shapes = (
{
closed = 1;
nodes = (
(609.454,-20,o),
(674,38.758,o),
(674,148.164,cs),
(674,327.795,o),
(500,317,o),
(500,413.917,cs),
(500,443,o),
(515.669,462.487,o),
(540,491,cs),
(689.992,666.772,l),
(665.812,628.28,l),
(613.867,670.986,o),
(472.952,720,o),
(341.479,720,cs),
(143.13,720,o),
(45,612,o),
(45,489,cs),
(45,0,l),
(235,0,l),
(235,446,ls),
(235,534,o),
(269.601,579,o),
(345.289,579,cs),
(376.7,579,o),
(392.586,571.024,o),
(421.271,559.101,c),
(470.818,642.391,l),
(394,549,ls),
(349.97,495.471,o),
(314,458,o),
(314,390.219,cs),
(314,242,o),
(486,235.895,o),
(486,159.435,cs),
(486,137,o),
(471.191,120,o),
(439.189,120,cs),
(393.27,120,o),
(327.498,159.448,o),
(281.599,208.448,c),
(262.329,73.22,l),
(317.497,1.908,o),
(393.433,-20,o),
(485.159,-20,cs)
);
}
);
width = 693;
},
{
layerId = "C7381861-8087-459F-9A66-D6EC096294DF";
shapes = (
{
closed = 1;
nodes = (
(576.035,-20,o),
(658,32,o),
(658,133.906,cs),
(658,305.354,o),
(426,312,o),
(426,414,cs),
(426,443,o),
(450.669,466.487,o),
(475,495,cs),
(624.992,670.772,l),
(625.739,626.478,l),
(544.201,685.726,o),
(440.122,720,o),
(330.327,720,cs),
(160.776,720,o),
(76,623,o),
(76,489,cs),
(76,0,l),
(166,0,l),
(166,488,ls),
(166,582,o),
(229.557,639,o),
(333.366,639,cs),
(390.668,639,o),
(472.498,619.5,o),
(487.643,604.718,c),
(497.818,642.391,l),
(421,549,ls),
(376.97,495.471,o),
(336,458,o),
(336,400.098,cs),
(336,262,o),
(569.05,255.951,o),
(569,132.204,cs),
(568.979,78,o),
(524.257,60,o),
(461.087,60,cs),
(399.709,60,o),
(337.282,87.887,o),
(282,140,c),
(273,76,l),
(318.758,12.191,o),
(381.06,-20,o),
(466.916,-20,cs)
);
}
);
width = 693;
},
{
layerId = "B3C53035-7890-4C98-85EB-10A7AE0A8F58";
shapes = (
{
closed = 1;
nodes = (
(561.517,-20,o),
(644,43,o),
(644,136,cs),
(644,305.354,o),
(412,312,o),
(412,414,cs),
(412,443,o),
(433.669,466.487,o),
(458,495,cs),
(607.992,670.772,l),
(616.214,626.187,l),
(533.293,685.614,o),
(440.405,720,o),
(330.293,720,cs),
(160.53,720,o),
(86,623,o),
(86,489,cs),
(86,0,l),
(146,0,l),
(146,488,ls),
(146,628,o),
(230.066,665,o),
(333.046,665,cs),
(388.951,665,o),
(486.971,641.424,o),
(518.171,616.03,c),
(505.818,642.391,l),
(429,549,ls),
(384.97,495.471,o),
(351,458,o),
(351,403.841,cs),
(351,262,o),
(584,279,o),
(583.954,138.362,cs),
(583.931,67.049,o),
(524.014,35,o),
(459.744,35,cs),
(404.043,35,o),
(356.911,48,o),
(283,107,c),
(276,58,l),
(335.218,5,o),
(391.264,-20,o),
(457.885,-20,cs)
);
}
);
width = 693;
}
);
},
{
color = 6;
glyphname = G.ss13;
kernLeft = C1;
kernRight = C;
lastChange = "2024-07-10 12:37:15 +0000";
layers = (
{
anchors = (
{
name = bottom;
pos = (382,-19);
},
{
name = top;
pos = (382,719);
}
);
layerId = "80F95D5A-7464-498F-9BB9-FC89FE1B12C4";
shapes = (
{
closed = 1;
nodes = (
(360,256,l),
(536,256,l),
(520,175.457,o),
(470.821,120,o),
(384.304,120,cs),
(277.75,120,o),
(214,209.389,o),
(214,351.004,cs),
(214,491.616,o),
(278.385,580,o),
(382.893,580,cs),
(451.01,580,o),
(493,541,o),
(509,485,c),
(700,485,l),
(657,621,o),
(547.456,720,o),
(378.777,720,cs),
(173.26,720,o),
(23,573,o),
(23,354,cs),
(23,140,o),
(166.872,-20,o),
(380.735,-20,cs),
(590.71,-20,o),
(720,134.623,o),
(720,320.17,cs),
(720,390,l),
(360,390,l)
);
}
);
width = 743;
},
{
anchors = (
{
name = bottom;
pos = (382,-19);
},
{
name = top;
pos = (382,719);
}
);
layerId = "C7381861-8087-459F-9A66-D6EC096294DF";
shapes = (
{
closed = 1;
nodes = (
(360,285,l),
(600,285,l),
(600,153.42,o),
(507.067,60,o),
(375.811,60,cs),
(231.143,60,o),
(143,171.384,o),
(143,348.997,cs),
(143,531.626,o),
(234.514,640,o),
(375.598,640,cs),
(476.645,640,o),
(551,583.636,o),
(580,485,c),
(670,485,l),
(623,640,o),
(519.627,720,o),
(375.678,720,cs),
(182.458,720,o),
(53,576,o),
(53,352,cs),
(53,130,o),
(180.982,-20,o),
(376.833,-20,cs),
(563.957,-20,o),
(690,117,o),
(690,321,cs),
(690,360,l),
(360,360,l)
);
}
);
width = 743;
},
{
anchors = (
{
name = bottom;
pos = (382,-19);
},
{
name = top;
pos = (369,719);
}
);
layerId = "B3C53035-7890-4C98-85EB-10A7AE0A8F58";
shapes = (
{
closed = 1;
nodes = (
(350,309,l,{
name = dv05;
}),
(619,309,l,{
name = sv02;
}),
(619,119,o),
(500.767,35,o),
(374.845,35,cs,{
name = dv04;
}),
(231.62,35,o),
(123,145,o),
(123,352,cs,{
name = dv07;
}),
(123,550,o),
(222.478,665,o),
(366.913,665,cs),
(483.609,665,o),
(563,602,o),
(603,485,c),
(663,485,l),
(618,638,o),
(520.513,720,o),
(367.043,720,cs),
(166.278,720,o),
(63,561,o),
(63,359,cs,{
name = dv08;
}),
(63,132,o),
(192.793,-20,o),
(378.765,-20,cs,{
name = dv03;
}),
(556.019,-20,o),
(680,117,o),
(680,316,cs,{
name = sv03;
}),
(680,359,l,{
name = sv01;
}),
(350,359,l,{
name = dv06;
})
);
}
);
width = 743;
}
);
},
{
color = 6;
glyphname = G.ss14;
kernLeft = C1;
kernRight = G;
lastChange = "2024-07-10 12:37:15 +0000";
layers = (
{
anchors = (
{
name = bottom;
pos = (378,-19);
},
{
name = top;
pos = (378,719);
}
);
layerId = "80F95D5A-7464-498F-9BB9-FC89FE1B12C4";
shapes = (
{
closed = 1;
nodes = (
(351,249,l),
(568,249,l),
(552.95,167.32,o),
(499.8,120,o),
(417.57,120,cs),
(292.22,120,o),
(214,210.39,o),
(214,351,cs),
(214,494.62,o),
(276.14,580,o),
(400.43,580,cs),
(499.67,580,o),
(565.82,534.72,o),
(639,414,c),
(684,578,l),
(620.9,662,o),
(509.73,720,o),
(380.54,720,cs,{
name = " ";
}),
(162.21,720,o),
(23,561,o),
(23,350,cs),
(23,147,o),
(158.23,-20,o),
(372.59,-20,cs),
(472.5,-20,o),
(533.07,22.24,o),
(568,89.84,c),
(568,0,l),
(708,0,l),
(708,381,l),
(351,381,l)
);
}
);
width = 765;
},
{
anchors = (
{
name = bottom;
pos = (377,-19);
},
{
name = top;
pos = (377,719);
}
);
layerId = "C7381861-8087-459F-9A66-D6EC096294DF";
shapes = (
{
closed = 1;
nodes = (
(374,280,l),
(606,280,l),
(606,152.41,o),
(511.2,60,o),
(391.46,60,cs),
(240.78,60,o),
(143,171.38,o),
(143,355.01,cs),
(143,531.62,o),
(235.8,640,o),
(382.49,640,cs),
(467.31,640,o),
(547.15,618.85,o),
(619,499,c),
(655,603,l),
(587.11,680,o),
(497.26,720,o),
(382.45,720,cs),
(184.78,720,o),
(53,576,o),
(53,358,cs),
(53,130,o),
(181.77,-20,o),
(378.43,-20,cs),
(483.95,-20,o),
(568.5,45.75,o),
(606,167.34,c),
(606,0,l),
(686,0,l),
(686,360,l),
(374,360,l)
);
}
);
width = 765;
},
{
anchors = (
{
name = bottom;
pos = (378,-19);
},
{
name = top;
pos = (378,719);
}
);
layerId = "B3C53035-7890-4C98-85EB-10A7AE0A8F58";
shapes = (
{
closed = 1;
nodes = (
(370,309,l,{
name = dv05;
}),
(627,309,l,{
name = sv03;
}),
(627,119,o),
(526,35,o),
(386,35,cs,{
name = dv04;
}),
(236,35,o),
(123,145,o),
(123,351,cs,{
name = dv07;
}),
(123,550,o),
(227,665,o),
(378,665,cs),
(455,665,o),
(549,646,o),
(620,537,c),
(643,603,l),
(575,682,o),
(478,720,o),
(378,720,cs),
(170,720,o),
(63,561,o),
(63,348,cs,{
name = dv08;
}),
(63,132,o),
(187,-20,o),
(376,-20,cs,{
name = dv03;
}),
(511.67,-20,o),
(595.65,61.43,o),
(627,189.91,c),
(627,0,l),
(677,0,l),
(677,359,l),
(370,359,l,{
name = dv06;
})
);
}
);
width = 765;
}
);
},
{
color = 6;
glyphname = G.ss15;
kernLeft = C1;
kernRight = C;
lastChange = "2024-07-10 12:37:15 +0000";
layers = (
{
anchors = (
{
name = bottom;
pos = (383,-19);
},
{
name = top;
pos = (383,719);
}
);
layerId = "80F95D5A-7464-498F-9BB9-FC89FE1B12C4";
shapes = (
{
closed = 1;
nodes = (
(347,269,l),
(537,269,l),
(517,309,l),
(517,183.588,o),
(472.574,124,o),
(379.074,124,cs),
(271.214,124,o),
(213,202.698,o),
(213,348.51,cs),
(213,512.974,o),
(262.869,576,o),
(393,576,cs),
(483,576,o),
(583,548,o),
(654,472,c),
(667,596,l),
(594,679,o),
(493,720,o),
(378,720,cs),
(161,720,o),
(23,575,o),
(23,347,cs),
(23,120,o),
(156.091,-19,o),
(362.043,-19,cs),
(569.937,-19,o),
(704,122,o),
(704,329,cs),
(704,404,l),
(347,404,l)
);
}
);
width = 727;
},
{
anchors = (
{
name = bottom;
pos = (383,-19);
},
{
name = top;
pos = (383,719);
}
);
layerId = "C7381861-8087-459F-9A66-D6EC096294DF";
shapes = (
{
closed = 1;
nodes = (
(357,289,l),
(597,289,l),
(587,309,l),
(587,166,o),
(503.75,61,o),
(365.957,61,cs),
(225.293,61,o),
(143,170,o),
(143,347,cs),
(143,529,o),
(233,640,o),
(389,640,cs),
(477,640,o),
(556,609,o),
(634,530,c),
(643,595,l),
(568,680,o),
(485,720,o),
(377,720,cs),
(173,720,o),
(53,563,o),
(53,350,cs),
(53,132,o),
(175.069,-19,o),
(367.86,-19,cs),
(554.838,-19,o),
(674,123,o),
(674,312,cs),
(674,364,l),
(357,364,l)
);
}
);
width = 727;
},
{
anchors = (
{
name = bottom;
pos = (383,-19);
},
{
name = top;
pos = (383,719);
}
);
layerId = "B3C53035-7890-4C98-85EB-10A7AE0A8F58";
shapes = (
{
closed = 1;
nodes = (
(350,309,l,{
name = dv05;
}),
(618,309,l,{
name = sv02;
}),
(602.568,330.238,l),
(611.045,140.365,o),
(524.53,35,o),
(377,35,cs,{
name = dv04;
}),
(228,35,o),
(123,145,o),
(123,351,cs,{
name = dv07;
}),
(123,550,o),
(228,665,o),
(385,665,cs),
(478,665,o),
(571,625,o),
(641,546,c),
(647,595,l),
(595.291,670.672,o),
(493.715,720,o),
(385,720,cs),
(173,720,o),
(63,561,o),
(63,356,cs,{
name = dv08;
}),
(63,132,o),
(192.684,-20,o),
(378.501,-20,cs,{
name = dv03;
}),
(555.607,-20,o),
(664,117,o),
(664,316,cs,{
name = sv03;
}),
(664,359,l,{
name = sv01;
}),
(350,359,l,{
name = dv06;
})
);
}
);
width = 727;
}
);
},
{
color = 6;
glyphname = IJ.liga.ss07;
kernLeft = B;
kernRight = J1;
lastChange = "2024-07-10 12:37:15 +0000";
layers = (
{
layerId = "80F95D5A-7464-498F-9BB9-FC89FE1B12C4";
shapes = (
{
closed = 1;
nodes = (
(68,50,l),
(258,50,l),
(258,700,l),
(68,700,l)
);
},
{
closed = 1;
nodes = (
(68,-144,l),
(503.537,-144,o),
(579.21,-75,o),
(579,154,cs),
(578.5,700,l),
(388.5,700,l),
(388.5,154,ls),
(388.5,17,o),
(348.454,-4,o),
(68,-4,c)
);
}
);
width = 640;
},
{
layerId = "C7381861-8087-459F-9A66-D6EC096294DF";
shapes = (
{
closed = 1;
nodes = (
(118,50,l,{
name = ab01;
}),
(208,50,l),
(208,700,l,{
name = at01;
}),
(118,700,l)
);
},
{
closed = 1;
nodes = (
(118,-134,l),
(456.426,-134,o),
(551,-77,o),
(551,135,cs),
(551,700,l),
(461,700,l),
(461,112,ls),
(461,-16,o),
(385.438,-54,o),
(118,-54,c)
);
}
);
width = 640;
},
{
layerId = "B3C53035-7890-4C98-85EB-10A7AE0A8F58";
shapes = (
{
closed = 1;
nodes = (
(133,50,l),
(193,50,l),
(193,700,l),
(133,700,l)
);
},
{
closed = 1;
nodes = (
(133,-124,l),
(467,-124,o),
(541,-48,o),
(541,162,cs),
(541,700,l),
(481,700,l),
(481,162,ls),
(481,-22,o),
(430,-70,o),
(133,-70,c)
);
}
);
width = 640;
}
);
},
{
color = 6;
glyphname = IJ.liga.ss09;
kernLeft = B;
kernRight = J1;
lastChange = "2024-07-10 12:37:15 +0000";
layers = (
{
layerId = "80F95D5A-7464-498F-9BB9-FC89FE1B12C4";
shapes = (
{
closed = 1;
nodes = (
(68,195,l),
(93,55,o),
(169,-20,o),
(318,-20,cs),
(485,-20,o),
(562,75,o),
(562,252,cs),
(562,700,l),
(372,700,l),
(372,251.226,ls),
(372,147.047,o),
(351,120,o),
(316,120,cs),
(281,120,o),
(265,147,o),
(258,195,c)
);
},
{
closed = 1;
nodes = (
(68,250,l),
(258,250,l),
(258,700,l),
(68,700,l)
);
}
);
width = 622;
},
{
layerId = "C7381861-8087-459F-9A66-D6EC096294DF";
shapes = (
{
closed = 1;
nodes = (
(118,195,l),
(128.652,52,o),
(200.067,-20,o),
(324.101,-20,cs),
(465.854,-20,o),
(533,75,o),
(533,252,cs),
(533,700,l),
(443,700,l),
(443,239.28,ls),
(443,115.086,o),
(398.66,60,o),
(322.396,60,cs),
(255,60,o),
(214.208,102.313,o),
(208,195,c)
);
},
{
closed = 1;
nodes = (
(118,250,l),
(208,250,l),
(208,700,l),
(118,700,l)
);
}
);
width = 622;
},
{
layerId = "B3C53035-7890-4C98-85EB-10A7AE0A8F58";
shapes = (
{
closed = 1;
nodes = (
(133,195,l),
(150.024,45,o),
(208.247,-20,o),
(328.459,-20,cs),
(451.424,-20,o),
(523,55,o),
(523,232,cs),
(523,700,l),
(463,700,l),
(463,231,ls),
(463,96,o),
(416.967,35,o),
(328.443,35,cs),
(247,35,o),
(204.508,82,o),
(193,195,c)
);
},
{
closed = 1;
nodes = (
(133,250,l,{
name = ab01;
}),
(193,250,l),
(193,700,l),
(133,700,l,{
name = av01;
})
);
}
);
width = 622;
}
);
},
{
color = 6;
glyphname = IJ.liga.ss12;
kernLeft = B;
kernRight = J1;
lastChange = "2024-07-10 12:37:15 +0000";
layers = (
{
layerId = "80F95D5A-7464-498F-9BB9-FC89FE1B12C4";
shapes = (
{
closed = 1;
nodes = (
(79,22,l),
(125.944,-4,o),
(191.629,-20,o),
(292.422,-20,cs),
(458.9,-20,o),
(549.5,76,o),
(549.5,252,cs),
(549.5,700,l),
(359.5,700,l),
(359.5,262,ls),
(359.5,155,o),
(337.115,120,o),
(271.275,120,cs),
(205.435,120,o),
(150.13,128,o),
(94,150,c)
);
},
{
closed = 1;
nodes = (
(68,200,l),
(258,200,l),
(258,700,l),
(68,700,l)
);
}
);
width = 610;
},
{
layerId = "C7381861-8087-459F-9A66-D6EC096294DF";
shapes = (
{
closed = 1;
nodes = (
(121,26,l),
(165,0,o),
(216.445,-20,o),
(296.699,-20,cs),
(442.803,-20,o),
(521,47,o),
(521,222,cs),
(521,700,l),
(431,700,l),
(431,217,ls),
(431,109,o),
(391.319,60,o),
(292.115,60,cs),
(251.389,60,o),
(195,68,o),
(130,91,c)
);
},
{
closed = 1;
nodes = (
(118,200,l),
(208,200,l),
(208,700,l),
(118,700,l)
);
}
);
width = 610;
},
{
layerId = "B3C53035-7890-4C98-85EB-10A7AE0A8F58";
shapes = (
{
closed = 1;
nodes = (
(141,26,l),
(185,0,o),
(235,-20,o),
(309,-20,cs),
(446,-20,o),
(511,58,o),
(511,222,cs),
(511,700,l),
(451,700,l),
(451,221,ls),
(451,89,o),
(405,35,o),
(307,35,cs),
(266,35,o),
(215,43,o),
(150,66,c)
);
},
{
closed = 1;
nodes = (
(133,200,l,{
name = ab01;
}),
(193,200,l),
(193,700,l),
(133,700,l,{
name = av01;
})
);
}
);
width = 610;
}
);
},
{
color = 6;
glyphname = Iacute_J.loclNLD.liga;
kernLeft = B;
kernRight = J1;
lastChange = "2024-07-10 12:37:15 +0000";
layers = (
{
layerId = "80F95D5A-7464-498F-9BB9-FC89FE1B12C4";
shapes = (
{
closed = 1;
nodes = (
(70,122,l),
(135,24,o),
(209,-20,o),
(318,-20,cs),
(482,-20,o),
(560,80,o),
(560,242,cs),
(560,700,l),
(370,700,l),
(370,249,ls),
(370,164,o),
(353.534,120,o),
(303.967,120,cs),
(257.576,120,o),
(216.102,159.569,o),
(176,228,c)
);
},
{
closed = 1;
nodes = (
(420,769,l),
(531,769,l),
(637,920,l),
(491,920,l)
);
},
{
closed = 1;
nodes = (
(70,279.829,l),
(260,279.829,l),
(260,700,l),
(70,700,l)
);
},
{
closed = 1;
nodes = (
(116,770,l),
(227,770,l),
(333,921,l),
(187,921,l)
);
}
);
width = 620;
},
{
layerId = "C7381861-8087-459F-9A66-D6EC096294DF";
shapes = (
{
closed = 1;
nodes = (
(86,122,l),
(150,25,o),
(220,-20,o),
(319,-20,cs,{
name = dv01;
}),
(454,-20,o),
(531,64,o),
(531,222,cs),
(531,700,l,{
name = at01;
}),
(441,700,l),
(441,215,ls),
(441,117,o),
(396,60,o),
(314,60,cs,{
name = dv02;
}),
(248,60,o),
(194,97,o),
(144,180,c)
);
},
{
closed = 1;
nodes = (
(454,769,l),
(524,769,l),
(625,920,l),
(525,920,l)
);
},
{
closed = 1;
nodes = (
(86,279.686,l),
(176,279.686,l),
(176,700,l),
(86,700,l)
);
},
{
closed = 1;
nodes = (
(97,770,l),
(167,770,l),
(268,921,l),
(168,921,l)
);
}
);
width = 620;
},
{
layerId = "B3C53035-7890-4C98-85EB-10A7AE0A8F58";
shapes = (
{
closed = 1;
nodes = (
(96,122,l),
(159,25,o),
(225,-20,o),
(319,-20,cs,{
name = dv01;
}),
(448,-20,o),
(521,64,o),
(521,222,cs),
(521,700,l,{
name = at01;
}),
(461,700,l),
(461,196,ls),
(461,92,o),
(409,35,o),
(318,35,cs,{
name = dv02;
}),
(240.403,35,o),
(187.207,79.516,o),
(139,165,c)
);
},
{
closed = 1;
nodes = (
(464,768,l),
(515,768,l),
(610,919,l),
(535,919,l)
);
},
{
closed = 1;
nodes = (
(92,279.695,l,{
name = ab01;
}),
(152,279.695,l),
(152,700,l),
(92,700,l,{
name = av01;
})
);
},
{
closed = 1;
nodes = (
(98,769,l),
(149,769,l),
(244,920,l),
(169,920,l)
);
}
);
width = 620;
}
);
},
{
color = 6;
glyphname = a;
kernLeft = a;
kernRight = a1;
lastChange = "2024-07-10 12:38:09 +0000";
layers = (
{
anchors = (
{
name = bottom;
pos = (283,-20);
},
{
name = ogonek;
pos = (545,-3);
},
{
name = top;
pos = (291,520);
}
);
layerId = "80F95D5A-7464-498F-9BB9-FC89FE1B12C4";
shapes = (
{
closed = 1;
nodes = (
(337.532,-20,o),
(395,82,o),
(395,258,cs),
(395,432,o),
(338.506,520,o),
(220.649,520,cs),
(89.156,520,o),
(20,401,o),
(20,252,cs),
(20,89,o),
(102.792,-20,o),
(224.545,-20,cs)
);
},
{
closed = 1;
nodes = (
(240.037,116,o),
(210,167,o),
(210,251,cs),
(210,334,o),
(239.098,383,o),
(286.969,383,cs),
(334.84,383,o),
(363,335,o),
(363,251,cs),
(363,168,o),
(335.779,116,o),
(287.908,116,cs)
);
},
{
closed = 1;
nodes = (
(553,0,l),
(553,500,l),
(363,500,l),
(363,0,l)
);
}
);
width = 596;
},
{
anchors = (
{
name = bottom;
pos = (284,-20);
},
{
name = ogonek;
pos = (510,-3);
},
{
name = top;
pos = (283,520);
}
);
layerId = "C7381861-8087-459F-9A66-D6EC096294DF";
shapes = (
{
closed = 1;
nodes = (
(377.627,-20,o),
(445,78,o),
(445,248,cs),
(445,422,o),
(374.698,520,o),
(244.835,520,cs,{
name = at01;
}),
(108.137,520,o),
(31,406,o),
(31,254,cs),
(31,94,o),
(116.925,-20,o),
(253.623,-20,cs,{
name = dv01;
})
);
},
{
closed = 1;
nodes = (
(178.109,50,o),
(121,131.203,o),
(121,256.516,cs),
(121,377.82,o),
(175.205,450,o),
(264.256,450,cs,{
name = sv01;
}),
(358.147,450,o),
(423,369.799,o),
(423,253.509,cs),
(423,139.223,o),
(360.083,50,o),
(267.16,50,cs,{
name = dv02;
})
);
},
{
closed = 1;
nodes = (
(513,0,l),
(513,500,l,{
name = av01;
}),
(423,500,l),
(423,0,l,{
name = ab01;
})
);
}
);
width = 596;
},
{
anchors = (
{
name = bottom;
pos = (283,-20);
},
{
name = ogonek;
pos = (503,-3);
},
{
name = top;
pos = (284,520);
}
);
layerId = "B3C53035-7890-4C98-85EB-10A7AE0A8F58";
shapes = (
{
closed = 1;
nodes = (
(386.729,-20,o),
(459,81,o),
(459,252,cs),
(459,422,o),
(386.729,520,o),
(256.836,520,cs,{
name = at01;
}),
(120.107,520,o),
(41,411,o),
(41,257,cs),
(41,99,o),
(124.014,-20,o),
(260.743,-20,cs,{
name = dv01;
})
);
},
{
closed = 1;
nodes = (
(166.097,30,o),
(101,119,o),
(101,256,cs),
(101,389,o),
(163.182,469,o),
(264.227,469,cs,{
name = sv01;
}),
(370.131,469,o),
(443,381,o),
(443,253,cs),
(443,124,o),
(370.131,30,o),
(267.142,30,cs,{
name = dv02;
})
);
},
{
closed = 1;
nodes = (
(503,0,l,{
name = sh01;
}),
(503,500,l,{
name = av01;
}),
(443,500,l),
(443,0,l,{
name = ab01;
})
);
}
);
width = 596;
}
);
unicode = 97;
},
{
color = 6;
glyphname = aogonek;
kernLeft = a;
kernRight = a1;
lastChange = "2024-07-10 12:37:15 +0000";
layers = (
{
anchors = (
{
name = bottom;
pos = (283,-20);
},
{
name = top;
pos = (291,520);
}
);
layerId = "80F95D5A-7464-498F-9BB9-FC89FE1B12C4";
shapes = (
{
closed = 1;
nodes = (
(363,0,l),
(553,0,l),
(553,500,l),
(363,500,l)
);
},
{
closed = 1;
nodes = (
(337.532,-20,o),
(395,82,o),
(395,258,cs),
(395,432,o),
(338.506,520,o),
(220.649,520,cs),
(89.156,520,o),
(20,401,o),
(20,252,cs),
(20,89,o),
(102.792,-20,o),
(224.545,-20,cs)
);
},
{
closed = 1;
nodes = (
(240.037,116,o),
(210,167,o),
(210,251,cs),
(210,334,o),
(239.098,383,o),
(286.969,383,cs),
(334.84,383,o),
(363,335,o),
(363,251,cs),
(363,168,o),
(335.779,116,o),
(287.908,116,cs)
);
},
{
closed = 1;
nodes = (
(546,-183,l),
(503.672,-169,o),
(483,-138,o),
(483,-104,cs),
(483,-67,o),
(506.619,-24,o),
(545,0,c),
(485.709,3,l),
(389.236,-14,o),
(341,-53,o),
(341,-105,cs),
(341,-158,o),
(392.25,-196,o),
(471.637,-206,c)
);
}
);
width = 596;
},
{
anchors = (
{
name = bottom;
pos = (284,-20);
},
{
name = top;
pos = (283,520);
}
);
layerId = "C7381861-8087-459F-9A66-D6EC096294DF";
shapes = (
{
closed = 1;
nodes = (
(423,0,l,{
name = ab01;
}),
(513,0,l),
(513,500,l,{
name = av01;
}),
(423,500,l)
);
},
{
closed = 1;
nodes = (
(377.627,-20,o),
(445,78,o),
(445,248,cs),
(445,422,o),
(374.698,520,o),
(244.835,520,cs,{
name = at01;
}),
(108.137,520,o),
(31,406,o),
(31,254,cs),
(31,94,o),
(116.925,-20,o),
(253.623,-20,cs,{
name = dv01;
})
);
},
{
closed = 1;
nodes = (
(178.109,50,o),
(121,131.203,o),
(121,256.516,cs),
(121,377.82,o),
(175.205,450,o),
(264.256,450,cs,{
name = sv01;
}),
(358.147,450,o),
(423,369.799,o),
(423,253.509,cs),
(423,139.223,o),
(360.083,50,o),
(267.16,50,cs,{
name = dv02;
})
);
},
{
closed = 1;
nodes = (
(511,-183,l),
(467,-171,o),
(444,-143,o),
(444,-103,cs),
(444,-62,o),
(469,-22,o),
(510,0,c),
(489,3,l),
(416,-12,o),
(369,-59,o),
(369,-110,cs),
(369,-157,o),
(409,-196,o),
(469,-206,c)
);
}
);
width = 596;
},
{
anchors = (
{
name = bottom;
pos = (283,-20);
},
{
name = top;
pos = (284,520);
}
);
layerId = "B3C53035-7890-4C98-85EB-10A7AE0A8F58";
shapes = (
{
closed = 1;
nodes = (
(443,0,l,{
name = ab01;
}),
(503,0,l,{
name = sh01;
}),
(503,500,l,{
name = av01;
}),
(443,500,l)
);
},
{
closed = 1;
nodes = (
(386.729,-20,o),
(459,81,o),
(459,252,cs),
(459,422,o),
(386.729,520,o),
(256.836,520,cs,{
name = at01;
}),
(120.107,520,o),
(41,411,o),
(41,257,cs),
(41,99,o),
(124.014,-20,o),
(260.743,-20,cs,{
name = dv01;
})
);
},
{
closed = 1;
nodes = (
(166.097,30,o),
(101,119,o),
(101,256,cs),
(101,389,o),
(163.182,469,o),
(264.227,469,cs,{
name = sv01;
}),
(370.131,469,o),
(443,381,o),
(443,253,cs),
(443,124,o),
(370.131,30,o),
(267.142,30,cs,{
name = dv02;
})
);
},
{
closed = 1;
nodes = (
(504,-183,l),
(460,-171,o),
(437,-143,o),
(437,-103,cs),
(437,-62,o),
(462,-22,o),
(503,0,c),
(485,3,l),
(425,-12,o),
(382,-59,o),
(382,-108,cs),
(382,-154,o),
(421,-196,o),
(468,-206,c)
);
}
);
width = 596;
}
);
unicode = 261;
},
{
color = 6;
glyphname = ae;
kernLeft = a;
kernRight = b1;
lastChange = "2024-07-10 12:38:09 +0000";
layers = (
{
anchors = (
{
name = bottom;
pos = (466,0);
},
{
name = top;
pos = (466,520);
}
);
layerId = "80F95D5A-7464-498F-9BB9-FC89FE1B12C4";
shapes = (
{
closed = 1;
nodes = (
(775.851,-20,o),
(845.179,14,o),
(899,70,c),
(811,158,l),
(783.469,133.229,o),
(728.758,117,o),
(672.106,117,cs),
(597.62,117,o),
(563,147.667,o),
(563,209,c),
(909,209,l),
(927.904,390.707,o),
(845.467,520,o),
(658,520,cs),
(516.824,520,o),
(397,419,o),
(397,251,cs),
(397,81,o),
(514.557,-20,o),
(675.375,-20,cs)
);
},
{
closed = 1;
nodes = (
(346,-20,o),
(405,82,o),
(405,258,cs),
(405,432,o),
(347,520,o),
(226,520,cs),
(91,520,o),
(20,411,o),
(20,262,cs),
(20,99,o),
(105,-20,o),
(230,-20,cs)
);
},
{
closed = 1;
nodes = (
(242,116,o),
(210,167,o),
(210,251,cs),
(210,334,o),
(241,383,o),
(292,383,cs),
(343,383,o),
(373,335,o),
(373,251,cs),
(373,168,o),
(344,116,o),
(293,116,cs)
);
},
{
closed = 1;
nodes = (
(563,0,l),
(563,500,l),
(373,500,l),
(373,0,l)
);
},
{
closed = 1;
nodes = (
(566,369.838,o),
(597.952,393,o),
(644.94,393,cs),
(691.928,393,o),
(718.241,369.838,o),
(722,326,c),
(562,326,l)
);
}
);
width = 935;
},
{
anchors = (
{
name = bottom;
pos = (470,0);
},
{
name = top;
pos = (470,520);
}
);
layerId = "C7381861-8087-459F-9A66-D6EC096294DF";
shapes = (
{
closed = 1;
nodes = (
(766.184,-20,o),
(834.893,17,o),
(875,70,c),
(822,123,l),
(786.674,76.361,o),
(735.64,50,o),
(675.156,50,cs,{
name = dv02;
}),
(571.198,50,o),
(523,128.419,o),
(523,237,c,{
name = sv04;
}),
(899,237,l,{
name = dv03;
}),
(899,421,o),
(817.52,520,o),
(671.814,520,cs,{
name = at01;
}),
(530.901,520,o),
(436,427,o),
(436,251,cs,{
name = sv03;
}),
(436,72,o),
(533.338,-20,o),
(675.527,-20,cs,{
name = dv01;
})
);
},
{
closed = 1;
nodes = (
(386,-20,o),
(455,78,o),
(455,248,cs),
(455,422,o),
(383,520,o),
(250,520,cs,{
name = at01;
}),
(110,520,o),
(31,411,o),
(31,259,cs),
(31,99,o),
(119,-20,o),
(259,-20,cs,{
name = dv01;
})
);
},
{
closed = 1;
nodes = (
(180,50,o),
(121,131.203,o),
(121,256.516,cs),
(121,377.82,o),
(177,450,o),
(269,450,cs,{
name = sv01;
}),
(366,450,o),
(433,369.799,o),
(433,253.509,cs),
(433,139.223,o),
(368,50,o),
(272,50,cs,{
name = dv02;
})
);
},
{
closed = 1;
nodes = (
(523,0,l),
(523,500,l,{
name = av01;
}),
(433,500,l),
(433,0,l,{
name = ab01;
})
);
},
{
closed = 1;
nodes = (
(533.638,398.329,o),
(589.948,450,o),
(668.208,450,cs,{
name = sv01;
}),
(746.469,450,o),
(796.098,398.329,o),
(806,296,c,{
name = dv04;
}),
(524,296,l,{
name = sv02;
})
);
}
);
width = 935;
},
{
anchors = (
{
name = bottom;
pos = (476,0);
},
{
name = top;
pos = (476,520);
}
);
layerId = "B3C53035-7890-4C98-85EB-10A7AE0A8F58";
shapes = (
{
closed = 1;
nodes = (
(776.973,-20,o),
(837.911,17,o),
(877,70,c),
(841,106,l),
(795.374,50,o),
(746.55,31,o),
(688.152,31,cs,{
name = dv02;
}),
(569.441,31,o),
(512,110,o),
(512,247,c,{
name = sv04;
}),
(901,247,l,{
name = dv03;
}),
(901,421,o),
(823.499,520,o),
(683.806,520,cs,{
name = at01;
}),
(548.896,520,o),
(458,427,o),
(458,254,cs,{
name = sv03;
}),
(458,72,o),
(557.977,-20,o),
(692.231,-20,cs,{
name = dv01;
})
);
},
{
closed = 1;
nodes = (
(395,-20,o),
(469,81,o),
(469,252,cs),
(469,422,o),
(395,520,o),
(262,520,cs,{
name = at01;
}),
(122,520,o),
(41,411,o),
(41,257,cs),
(41,99,o),
(126,-20,o),
(266,-20,cs,{
name = dv01;
})
);
},
{
closed = 1;
nodes = (
(168,30,o),
(101,119,o),
(101,256,cs),
(101,389,o),
(165,469,o),
(269,469,cs,{
name = sv01;
}),
(378,469,o),
(453,381,o),
(453,253,cs),
(453,124,o),
(378,30,o),
(272,30,cs,{
name = dv02;
})
);
},
{
closed = 1;
nodes = (
(513,0,l,{
name = sh01;
}),
(513,500,l,{
name = av01;
}),
(453,500,l),
(453,0,l,{
name = ab01;
})
);
},
{
closed = 1;
nodes = (
(525.618,415,o),
(577.452,470,o),
(681.12,470,cs,{
name = sv01;
}),
(779.988,470,o),
(825.103,420,o),
(837,297,c,{
name = dv04;
}),
(514,297,l,{
name = sv02;
})
);
}
);
width = 935;
}
);
unicode = 230;
},
{
color = 6;
glyphname = b;
kernLeft = b;
kernRight = b1;
lastChange = "2024-07-10 12:37:15 +0000";
layers = (
{
anchors = (
{
name = bottom;
pos = (330,-20);
},
{
name = top;
pos = (338,750);
}
);
layerId = "80F95D5A-7464-498F-9BB9-FC89FE1B12C4";
shapes = (
{
closed = 1;
nodes = (
(45,0,l),
(235,0,l),
(235,750,l),
(45,750,l)
);
},
{
closed = 1;
nodes = (
(495,-20,o),
(578,99,o),
(578,255,cs),
(578,411,o),
(509,520,o),
(377.319,520,cs),
(259,520,o),
(203,432,o),
(203,255,cs),
(203,82,o),
(260,-20,o),
(372.974,-20,cs)
);
},
{
closed = 1;
nodes = (
(262,120,o),
(235,170.637,o),
(235,255.356,cs),
(235,333.258,o),
(263,380,o),
(311,380,cs),
(359,380,o),
(388,332.285,o),
(388,254.382,cs),
(388,169.663,o),
(358,120,o),
(307,120,cs)
);
}
);
width = 600;
},
{
anchors = (
{
name = bottom;
pos = (330,-20);
},
{
name = top;
pos = (338,750);
}
);
layerId = "C7381861-8087-459F-9A66-D6EC096294DF";
shapes = (
{
closed = 1;
nodes = (
(78,0,l),
(168,0,l,{
name = ab02;
}),
(168,750,l,{
name = ab01;
}),
(78,750,l,{
name = sh01;
})
);
},
{
closed = 1;
nodes = (
(474,-20,o),
(560,99,o),
(560,255,cs),
(560,411,o),
(483,520,o),
(345.437,520,cs,{
name = at01;
}),
(215,520,o),
(146,422,o),
(146,255,cs),
(146,78,o),
(212,-20,o),
(336.646,-20,cs,{
name = dv01;
})
);
},
{
closed = 1;
nodes = (
(231,50,o),
(168,138.221,o),
(168,255.514,cs),
(168,368.797,o),
(233,450,o),
(324,450,cs,{
name = sv01;
}),
(415,450,o),
(470,376.817,o),
(470,255.514,cs),
(470,132.206,o),
(412,50,o),
(323,50,cs,{
name = dv02;
})
);
}
);
width = 600;
},
{
anchors = (
{
name = bottom;
pos = (330,-20);
},
{
name = top;
pos = (338,750);
}
);
layerId = "B3C53035-7890-4C98-85EB-10A7AE0A8F58";
shapes = (
{
closed = 1;
nodes = (
(88,0,l),
(148,0,l,{
name = ab02;
}),
(148,750,l,{
name = ab01;
}),
(88,750,l,{
name = sh01;
})
);
},
{
closed = 1;
nodes = (
(459,-20,o),
(550,89,o),
(550,256,cs),
(550,411,o),
(472,520,o),
(338,520,cs,{
name = at01;
}),
(221,520,o),
(131,437,o),
(131,248,cs),
(131,73,o),
(208,-20,o),
(329,-20,cs,{
name = dv01;
})
);
},
{
closed = 1;
nodes = (
(219,30,o),
(148,126,o),
(148,252,cs),
(148,380,o),
(221,469,o),
(326,469,cs,{
name = sv01;
}),
(427,469,o),
(490,388,o),
(490,256,cs),
(490,120,o),
(424,30,o),
(323,30,cs,{
name = dv02;
})
);
}
);
width = 600;
}
);
unicode = 98;
},
{
color = 6;
glyphname = c;
kernLeft = a;
kernRight = b1;
lastChange = "2024-07-10 12:37:15 +0000";
layers = (
{
anchors = (
{
name = bottom;
pos = (284,-20);
},
{
name = top;
pos = (268,520);
}
);
layerId = "80F95D5A-7464-498F-9BB9-FC89FE1B12C4";
shapes = (
{
closed = 1;
nodes = (
(397.235,167.765,l),
(367,137.124,o),
(330.633,120,o),
(292.492,120,cs),
(233.949,120,o),
(210,163.643,o),
(210,250.929,cs),
(210,337.286,o),
(230.292,380,o),
(296.463,380,cs),
(335.283,380,o),
(359.883,365.179,o),
(394,332,c),
(492,430,l),
(430.655,491.345,o),
(361.13,520,o),
(270.786,520,cs),
(115.356,520,o),
(20,421,o),
(20,255,cs),
(20,79,o),
(116.399,-20,o),
(271.018,-20,cs),
(371.235,-20,o),
(439,14,o),
(495,70,c)
);
}
);
width = 505;
},
{
anchors = (
{
name = bottom;
pos = (284,-20);
},
{
name = top;
pos = (271,520);
}
);
layerId = "C7381861-8087-459F-9A66-D6EC096294DF";
shapes = (
{
closed = 1;
nodes = (
(424,123,l),
(388,76.361,o),
(330.642,50,o),
(272.343,50,cs,{
name = dv02;
}),
(181.134,50,o),
(136,118.342,o),
(136,255.025,cs),
(136,387.688,o),
(180.13,450,o),
(274.023,450,cs,{
name = sv01;
}),
(329.42,450,o),
(382,423.639,o),
(418,377,c),
(471,430,l),
(430,483,o),
(360.88,520,o),
(270.64,520,cs,{
name = at01;
}),
(126.64,520,o),
(46,421,o),
(46,255,cs),
(46,79,o),
(128.611,-20,o),
(271.739,-20,cs,{
name = dv01;
}),
(363.956,-20,o),
(436,17,o),
(477,70,c)
);
}
);
width = 505;
},
{
anchors = (
{
name = bottom;
pos = (284,-20);
},
{
name = top;
pos = (264,520);
}
);
layerId = "B3C53035-7890-4C98-85EB-10A7AE0A8F58";
shapes = (
{
closed = 1;
nodes = (
(433,106,l),
(387,50,o),
(331.79,31,o),
(271.821,31,cs,{
name = dv02;
}),
(162.354,31,o),
(110,105,o),
(110,253,cs),
(110,400,o),
(165.347,469,o),
(271.846,469,cs,{
name = sv01;
}),
(329.849,469,o),
(382.819,450,o),
(427,394,c),
(463,430,l),
(423,483,o),
(358.424,520,o),
(271.68,520,cs,{
name = at01;
}),
(127.106,520,o),
(50,421,o),
(50,250,cs),
(50,79,o),
(127.15,-20,o),
(271.807,-20,cs,{
name = dv01;
}),
(359.565,-20,o),
(429,17,o),
(469,70,c)
);
}
);
width = 505;
}
);
unicode = 99;
},
{
color = 6;
glyphname = ccedilla;
kernLeft = a;
kernRight = b1;
lastChange = "2024-07-10 12:37:15 +0000";
layers = (
{
anchors = (
{
name = bottom;
pos = (264,-218);
},
{
name = top;
pos = (268,520);
}
);
layerId = "80F95D5A-7464-498F-9BB9-FC89FE1B12C4";
shapes = (
{
closed = 1;
nodes = (
(397.235,167.765,l),
(367,137.124,o),
(330.633,120,o),
(292.492,120,cs),
(233.949,120,o),
(210,163.643,o),
(210,250.929,cs),
(210,337.286,o),
(230.292,380,o),
(296.463,380,cs),
(335.283,380,o),
(359.883,365.179,o),
(394,332,c),
(492,430,l),
(430.655,491.345,o),
(361.13,520,o),
(270.786,520,cs),
(115.356,520,o),
(20,421,o),
(20,255,cs),
(20,79,o),
(116.399,-20,o),
(271.018,-20,cs),
(371.235,-20,o),
(439,14,o),
(495,70,c)
);
},
{
closed = 1;
nodes = (
(132,-205,l),
(154,-211,o),
(187,-218,o),
(240,-218,cs),
(343,-218,o),
(392,-191,o),
(392,-134,cs),
(392,-87,o),
(359,-64,o),
(291,-64,c),
(338.423,20.41,l),
(236.423,20.41,l),
(168,-109,l),
(184,-107,o),
(209,-105,o),
(226,-105,cs),
(256,-105,o),
(272,-111,o),
(272,-133,cs),
(272,-151,o),
(261,-164,o),
(224,-164,cs),
(203,-164,o),
(174,-160,o),
(158,-154,c)
);
}
);
width = 505;
},
{
anchors = (
{
name = bottom;
pos = (264,-218);
},
{
name = top;
pos = (271,520);
}
);
layerId = "C7381861-8087-459F-9A66-D6EC096294DF";
shapes = (
{
closed = 1;
nodes = (
(424,123,l),
(388,76.361,o),
(330.642,50,o),
(272.343,50,cs,{
name = dv02;
}),
(181.134,50,o),
(136,118.342,o),
(136,255.025,cs),
(136,387.688,o),
(180.13,450,o),
(274.023,450,cs,{
name = sv01;
}),
(329.42,450,o),
(382,423.639,o),
(418,377,c),
(471,430,l),
(430,483,o),
(360.88,520,o),
(270.64,520,cs,{
name = at01;
}),
(126.64,520,o),
(46,421,o),
(46,255,cs),
(46,79,o),
(128.611,-20,o),
(271.739,-20,cs,{
name = dv01;
}),
(363.956,-20,o),
(436,17,o),
(477,70,c)
);
},
{
closed = 1;
nodes = (
(168,-205,l),
(189,-211,o),
(213,-218,o),
(252,-218,cs),
(332,-218,o),
(378,-189,o),
(378,-137,cs),
(378,-90,o),
(341,-64,o),
(282,-64,c),
(326.74,14.895,l),
(269.74,14.895,l),
(215,-86,l),
(230,-84,o),
(241,-82,o),
(254,-82,cs),
(289,-82,o),
(310,-97,o),
(310,-132,cs),
(310,-166,o),
(291,-182,o),
(249,-182,cs),
(226,-182,o),
(204,-177,o),
(187,-171,c)
);
}
);
width = 505;
},
{
anchors = (
{
name = bottom;
pos = (264,-218);
},
{
name = top;
pos = (264,520);
}
);
layerId = "B3C53035-7890-4C98-85EB-10A7AE0A8F58";
shapes = (
{
closed = 1;
nodes = (
(433,106,l),
(387,50,o),
(331.79,31,o),
(271.821,31,cs,{
name = dv02;
}),
(162.354,31,o),
(110,105,o),
(110,253,cs),
(110,400,o),
(165.347,469,o),
(271.846,469,cs,{
name = sv01;
}),
(329.849,469,o),
(382.819,450,o),
(427,394,c),
(463,430,l),
(423,483,o),
(358.424,520,o),
(271.68,520,cs,{
name = at01;
}),
(127.106,520,o),
(50,421,o),
(50,250,cs),
(50,79,o),
(127.15,-20,o),
(271.807,-20,cs,{
name = dv01;
}),
(359.565,-20,o),
(429,17,o),
(469,70,c)
);
},
{
closed = 1;
nodes = (
(173,-205,l),
(193,-211,o),
(216,-218,o),
(254,-218,cs),
(332,-218,o),
(373,-188,o),
(373,-140,cs),
(373,-92,o),
(333,-64,o),
(275,-64,c),
(315.194,12.137,l),
(270.194,12.137,l),
(220,-82,l),
(232,-79,o),
(242,-78,o),
(252,-78,cs),
(297,-78,o),
(321,-98,o),
(321,-132,cs),
(321,-166,o),
(296,-188,o),
(251,-188,cs),
(230,-188,o),
(206,-183,o),
(188,-177,c)
);
}
);
width = 505;
}
);
unicode = 231;
},
{
color = 6;
glyphname = d;
kernLeft = a;
lastChange = "2024-07-10 12:38:09 +0000";
layers = (
{
anchors = (
{
name = bottom;
pos = (266,-20);
},
{
name = top;
pos = (259,750);
},
{
name = topright;
pos = (601,750);
}
);
layerId = "80F95D5A-7464-498F-9BB9-FC89FE1B12C4";
shapes = (
{
closed = 1;
nodes = (
(338,-20,o),
(395,82,o),
(395,255,cs),
(395,432,o),
(339,520,o),
(226,520,cs),
(89,520,o),
(20,411,o),
(20,255,cs),
(20,99,o),
(103,-20,o),
(237,-20,cs)
);
},
{
closed = 1;
nodes = (
(239.804,116,o),
(210,167,o),
(210,254,cs),
(210,334,o),
(238.81,383,o),
(286.497,383,cs),
(334.183,383,o),
(362,335,o),
(362,255,cs),
(362,168,o),
(335.176,116,o),
(290.471,116,cs)
);
},
{
closed = 1;
nodes = (
(553,0,l),
(553,750,l),
(363,750,l),
(363,0,l)
);
}
);
width = 597;
},
{
anchors = (
{
name = bottom;
pos = (285,-20);
},
{
name = top;
pos = (280,750);
},
{
name = topright;
pos = (560,750);
}
);
layerId = "C7381861-8087-459F-9A66-D6EC096294DF";
shapes = (
{
closed = 1;
nodes = (
(398,-20,o),
(464,78,o),
(464,255,cs),
(464,422,o),
(395,520,o),
(272,520,cs,{
name = at01;
}),
(127,520,o),
(50,411,o),
(50,255,cs),
(50,99,o),
(136,-20,o),
(278,-20,cs,{
name = dv01;
})
);
},
{
closed = 1;
nodes = (
(196.811,50,o),
(140,130.201,o),
(140,255.514,cs),
(140,378.822,o),
(190.831,450,o),
(285.517,450,cs,{
name = sv01;
}),
(376.215,450,o),
(441,369.799,o),
(441,256.516,cs),
(441,141.228,o),
(378.209,50,o),
(286.513,50,cs,{
name = dv02;
})
);
},
{
closed = 1;
nodes = (
(532,0,l),
(532,750,l,{
name = ab01;
}),
(442,750,l),
(442,0,l,{
name = ab02;
})
);
}
);
width = 597;
},
{
anchors = (
{
name = bottom;
pos = (290,-20);
},
{
name = top;
pos = (284,750);
},
{
name = topright;
pos = (550,750);
}
);
layerId = "B3C53035-7890-4C98-85EB-10A7AE0A8F58";
shapes = (
{
closed = 1;
nodes = (
(403,-20,o),
(475,81,o),
(475,251,cs),
(475,423,o),
(401,520,o),
(269,520,cs,{
name = at01;
}),
(130,520,o),
(55,411,o),
(55,258,cs),
(55,99,o),
(135,-20,o),
(274,-20,cs,{
name = dv01;
})
);
},
{
closed = 1;
nodes = (
(179.81,30,o),
(115,118,o),
(115,258,cs),
(115,390,o),
(171.833,469,o),
(274.532,469,cs,{
name = sv01;
}),
(383.213,469,o),
(456,381,o),
(456,254,cs),
(456,126,o),
(381.219,30,o),
(278.52,30,cs,{
name = dv02;
})
);
},
{
closed = 1;
nodes = (
(517,0,l),
(517,750,l,{
name = ab01;
}),
(457,750,l),
(457,0,l,{
name = ab03;
})
);
}
);
width = 597;
}
);
unicode = 100;
},
{
color = 6;
glyphname = dcroat;
kernLeft = a;
lastChange = "2024-07-10 12:38:09 +0000";
layers = (
{
layerId = "80F95D5A-7464-498F-9BB9-FC89FE1B12C4";
shapes = (
{
closed = 1;
nodes = (
(367,-20,o),
(424,78.222,o),
(424,244.815,cs),
(424,415.259,o),
(368,500,o),
(255,500,cs),
(118,500,o),
(49,395.037,o),
(49,244.815,cs),
(49,94.593,o),
(132,-20,o),
(266,-20,cs)
);
},
{
closed = 1;
nodes = (
(268.804,116,o),
(239,163.18,o),
(239,243.663,cs),
(239,317.67,o),
(267.81,363,o),
(315.497,363,cs),
(363.183,363,o),
(391,318.596,o),
(391,244.588,cs),
(391,164.105,o),
(364.176,116,o),
(319.471,116,cs)
);
},
{
closed = 1;
nodes = (
(582,0,l),
(582,750,l),
(392,750,l),
(392,0,l)
);
},
{
closed = 1;
nodes = (
(652.447,621,l),
(652.447,665,l),
(211.455,665,l),
(211.455,621,l)
);
}
);
width = 635;
},
{
layerId = "C7381861-8087-459F-9A66-D6EC096294DF";
shapes = (
{
closed = 1;
nodes = (
(408,-20,o),
(474,74.37,o),
(474,244.815,cs),
(474,405.63,o),
(405,500,o),
(282,500,cs,{
name = at01;
}),
(137,500,o),
(60,395.037,o),
(60,244.815,cs),
(60,94.593,o),
(146,-20,o),
(288,-20,cs,{
name = dv01;
})
);
},
{
closed = 1;
nodes = (
(206.811,50,o),
(150,126.19,o),
(150,245.238,cs),
(150,362.381,o),
(200.831,430,o),
(295.517,430,cs,{
name = sv01;
}),
(386.215,430,o),
(451,353.81,o),
(451,246.19,cs),
(451,136.667,o),
(388.209,50,o),
(296.513,50,cs,{
name = dv02;
})
);
},
{
closed = 1;
nodes = (
(542,0,l),
(542,750,l,{
name = ab01;
}),
(452,750,l),
(452,0,l,{
name = ab02;
})
);
},
{
closed = 1;
nodes = (
(627.447,631,l),
(627.447,665,l),
(216.455,665,l),
(216.455,631,l)
);
}
);
width = 635;
},
{
layerId = "B3C53035-7890-4C98-85EB-10A7AE0A8F58";
shapes = (
{
closed = 1;
nodes = (
(418,-20,o),
(490,77.259,o),
(490,240.963,cs),
(490,406.593,o),
(416,500,o),
(284,500,cs,{
name = at01;
}),
(145,500,o),
(70,395.037,o),
(70,247.704,cs),
(70,94.593,o),
(150,-20,o),
(289,-20,cs,{
name = dv01;
})
);
},
{
closed = 1;
nodes = (
(194.81,30,o),
(130,113.991,o),
(130,247.613,cs),
(130,373.599,o),
(186.833,449,o),
(289.532,449,cs,{
name = sv01;
}),
(398.213,449,o),
(471,365.009,o),
(471,243.795,cs),
(471,121.626,o),
(396.219,30,o),
(293.52,30,cs,{
name = dv02;
})
);
},
{
closed = 1;
nodes = (
(532,0,l),
(532,750,l,{
name = ab01;
}),
(472,750,l),
(472,0,l,{
name = ab03;
})
);
},
{
closed = 1;
nodes = (
(627.447,632,l),
(627.447,664,l),
(216.455,664,l),
(216.455,632,l)
);
}
);
width = 635;
}
);
unicode = 273;
},
{
color = 6;
glyphname = eth;
kernLeft = a;
kernRight = b1;
lastChange = "2024-07-10 12:37:15 +0000";
layers = (
{
layerId = "80F95D5A-7464-498F-9BB9-FC89FE1B12C4";
shapes = (
{
closed = 1;
nodes = (
(558,530.609,o),
(342.95,695.516,o),
(143,778,c),
(89.478,656.441,l),
(187.114,622.419,o),
(344.14,538.937,o),
(390.094,424.354,c),
(359.401,454.703,o),
(314.178,471,o),
(260.387,471,cs),
(123.696,471,o),
(20,367,o),
(20,225,cs),
(20,81,o),
(128.95,-20,o),
(287.072,-20,cs),
(448.086,-20,o),
(558,92.314,o),
(558,278.798,cs)
);
},
{
closed = 1;
nodes = (
(235.742,114,o),
(210,154,o),
(210,222,cs),
(210,293,o),
(238.404,337,o),
(291.663,337,cs),
(338.708,337,o),
(368,302,o),
(368,228,cs),
(368,153,o),
(338.708,114,o),
(287.225,114,cs)
);
},
{
closed = 1;
nodes = (
(269.023,642.015,l),
(99,585,l),
(136,490,l),
(307.116,571.044,l),
(477,631,l),
(440,726,l)
);
}
);
width = 578;
},
{
layerId = "C7381861-8087-459F-9A66-D6EC096294DF";
shapes = (
{
closed = 1;
nodes = (
(528,509.859,o),
(330.141,651.06,o),
(150,743,c),
(119,687,l),
(210.463,643.097,o),
(426.037,505.35,o),
(450.906,365.83,c),
(433.821,410.694,o),
(365.973,471,o),
(271.225,471,cs),
(147.871,471,o),
(42,377,o),
(42,229,cs),
(42,85,o),
(139.59,-20,o),
(285,-20,cs),
(427.482,-20,o),
(528,87.402,o),
(528,270.304,cs)
);
},
{
closed = 1;
nodes = (
(192.623,51,o),
(132,115,o),
(132,225,cs),
(132,333,o),
(189.736,401,o),
(285.962,401,cs),
(375.453,401,o),
(438,341,o),
(438,232,cs),
(438,126,o),
(378.34,51,o),
(282.113,51,cs)
);
},
{
closed = 1;
nodes = (
(279.067,613.024,l),
(118,552,l),
(134,519,l),
(311.994,591.997,l),
(466,654,l),
(450,690,l)
);
}
);
width = 578;
},
{
layerId = "B3C53035-7890-4C98-85EB-10A7AE0A8F58";
shapes = (
{
closed = 1;
nodes = (
(518,489.221,o),
(325.374,631.42,o),
(146,734,c),
(120,685,l),
(223.165,636.254,o),
(424.248,512.942,o),
(457.545,354.463,c),
(431.028,429.501,o),
(354.016,471,o),
(277,471,cs),
(153,471,o),
(40,377,o),
(40,226,cs),
(40,85,o),
(136,-20,o),
(280,-20,cs),
(419,-20,o),
(518,84.894,o),
(518,260.776,cs)
);
},
{
closed = 1;
nodes = (
(171,31,o),
(100,103,o),
(100,223,cs),
(100,344,o),
(172,420,o),
(284,420,cs),
(389,420,o),
(458,354,o),
(458,234,cs),
(458,114,o),
(388,31,o),
(276,31,cs)
);
},
{
closed = 1;
nodes = (
(277.956,604.978,l),
(121,545,l),
(133,521,l),
(299.058,599.018,l),
(463,660,l),
(452,685,l)
);
}
);
width = 578;
}
);
unicode = 240;
},
{
color = 6;
glyphname = e;
kernLeft = a;
kernRight = b1;
lastChange = "2024-07-10 12:38:28 +0000";
layers = (
{
anchors = (
{
name = bottom;
pos = (271,-20);
},
{
name = ogonek;
pos = (401,-3);
},
{
name = top;
pos = (271,520);
}
);
layerId = "80F95D5A-7464-498F-9BB9-FC89FE1B12C4";
shapes = (
{
closed = 1;
nodes = (
(382.746,-20,o),
(447.09,14,o),
(502,70,c),
(414,158,l),
(386.358,133.229,o),
(341.849,117,o),
(295.761,117,cs),
(235.165,117,o),
(207,147.667,o),
(207,209,c),
(532,209,l),
(557.868,390.707,o),
(457.467,520,o),
(270,520,cs),
(116.824,520,o),
(20,419,o),
(20,251,cs),
(20,81,o),
(129.104,-20,o),
(289.495,-20,cs)
);
},
{
closed = 1;
nodes = (
(210.437,365.838,o),
(237.889,393,o),
(278.261,393,cs),
(318.633,393,o),
(341.241,365.838,o),
(345,309,c),
(207,309,l)
);
}
);
width = 550;
},
{
anchors = (
{
name = bottom;
pos = (271,-20);
},
{
name = ogonek;
pos = (390,-3);
},
{
name = top;
pos = (271,520);
}
);
layerId = "C7381861-8087-459F-9A66-D6EC096294DF";
shapes = (
{
closed = 1;
nodes = (
(368.907,-20,o),
(435.893,17,o),
(476,70,c),
(423,123,l),
(388.029,76.361,o),
(339.442,50,o),
(281.859,50,cs,{
name = dv02;
}),
(182.887,50,o),
(137,128.419,o),
(137,237,c,{
name = sv04;
}),
(500,237,l,{
name = dv03;
}),
(511.739,421,o),
(425.76,520,o),
(276.907,520,cs,{
name = at01;
}),
(132.95,520,o),
(47,427,o),
(47,251,cs,{
name = sv03;
}),
(47,72,o),
(141.897,-20,o),
(280.522,-20,cs,{
name = dv01;
})
);
},
{
closed = 1;
nodes = (
(150.276,398.329,o),
(203.277,450,o),
(276.94,450,cs,{
name = sv01;
}),
(350.603,450,o),
(397.316,398.329,o),
(407,296,c,{
name = dv04;
}),
(141,296,l,{
name = sv02;
})
);
}
);
width = 550;
},
{
anchors = (
{
name = bottom;
pos = (271,-20);
},
{
name = ogonek;
pos = (389,-3);
},
{
name = top;
pos = (271,520);
}
);
layerId = "B3C53035-7890-4C98-85EB-10A7AE0A8F58";
shapes = (
{
closed = 1;
nodes = (
(372.331,-20,o),
(433.911,17,o),
(473,70,c),
(437,106,l),
(392.345,50,o),
(343.87,31,o),
(285.89,31,cs,{
name = dv02;
}),
(168.029,31,o),
(111,110,o),
(111,247,c,{
name = sv04;
}),
(497,247,l,{
name = dv03;
}),
(505.688,421,o),
(413.749,520,o),
(270.903,520,cs,{
name = at01;
}),
(132.948,520,o),
(50,427,o),
(50,254,cs,{
name = sv03;
}),
(50,72,o),
(151.029,-20,o),
(286.697,-20,cs,{
name = dv01;
})
);
},
{
closed = 1;
nodes = (
(123.465,401,o),
(169.105,470,o),
(271.775,470,cs,{
name = sv01;
}),
(369.69,470,o),
(421.519,401,o),
(433,293,c,{
name = dv04;
}),
(113,293,l,{
name = sv02;
})
);
}
);
width = 550;
}
);
unicode = 101;
},
